G04 #@! TF.FileFunction,Legend,Bot*
%FSLAX46Y46*%
G04 Gerber Fmt 4.6, Leading zero omitted, Abs format (unit mm)*
G04 Created by KiCad (PCBNEW 4.0.2-stable) date 4/20/2016 11:19:16 PM*
%MOMM*%
G01*
G04 APERTURE LIST*
%ADD10C,0.100000*%
%ADD11C,0.200000*%
%ADD12C,0.300000*%
%ADD13C,0.203200*%
%ADD14C,0.254000*%
%ADD15C,0.150000*%
G04 APERTURE END LIST*
D10*
D11*
X217708220Y-110642400D02*
G75*
G03X217708220Y-110642400I-3281420J0D01*
G01*
D12*
X209402514Y-111121114D02*
X209473943Y-111192543D01*
X209688229Y-111263971D01*
X209831086Y-111263971D01*
X210045371Y-111192543D01*
X210188229Y-111049686D01*
X210259657Y-110906829D01*
X210331086Y-110621114D01*
X210331086Y-110406829D01*
X210259657Y-110121114D01*
X210188229Y-109978257D01*
X210045371Y-109835400D01*
X209831086Y-109763971D01*
X209688229Y-109763971D01*
X209473943Y-109835400D01*
X209402514Y-109906829D01*
X208759657Y-111263971D02*
X208759657Y-110263971D01*
X208759657Y-110549686D02*
X208688229Y-110406829D01*
X208616800Y-110335400D01*
X208473943Y-110263971D01*
X208331086Y-110263971D01*
X207259658Y-111192543D02*
X207402515Y-111263971D01*
X207688229Y-111263971D01*
X207831086Y-111192543D01*
X207902515Y-111049686D01*
X207902515Y-110478257D01*
X207831086Y-110335400D01*
X207688229Y-110263971D01*
X207402515Y-110263971D01*
X207259658Y-110335400D01*
X207188229Y-110478257D01*
X207188229Y-110621114D01*
X207902515Y-110763971D01*
X205902515Y-111263971D02*
X205902515Y-110478257D01*
X205973944Y-110335400D01*
X206116801Y-110263971D01*
X206402515Y-110263971D01*
X206545372Y-110335400D01*
X205902515Y-111192543D02*
X206045372Y-111263971D01*
X206402515Y-111263971D01*
X206545372Y-111192543D01*
X206616801Y-111049686D01*
X206616801Y-110906829D01*
X206545372Y-110763971D01*
X206402515Y-110692543D01*
X206045372Y-110692543D01*
X205902515Y-110621114D01*
X205402515Y-110263971D02*
X204831086Y-110263971D01*
X205188229Y-109763971D02*
X205188229Y-111049686D01*
X205116801Y-111192543D01*
X204973943Y-111263971D01*
X204831086Y-111263971D01*
X204331086Y-111263971D02*
X204331086Y-110263971D01*
X204331086Y-109763971D02*
X204402515Y-109835400D01*
X204331086Y-109906829D01*
X204259658Y-109835400D01*
X204331086Y-109763971D01*
X204331086Y-109906829D01*
X203759657Y-110263971D02*
X203402514Y-111263971D01*
X203045372Y-110263971D01*
X201902515Y-111192543D02*
X202045372Y-111263971D01*
X202331086Y-111263971D01*
X202473943Y-111192543D01*
X202545372Y-111049686D01*
X202545372Y-110478257D01*
X202473943Y-110335400D01*
X202331086Y-110263971D01*
X202045372Y-110263971D01*
X201902515Y-110335400D01*
X201831086Y-110478257D01*
X201831086Y-110621114D01*
X202545372Y-110763971D01*
X199188229Y-111121114D02*
X199259658Y-111192543D01*
X199473944Y-111263971D01*
X199616801Y-111263971D01*
X199831086Y-111192543D01*
X199973944Y-111049686D01*
X200045372Y-110906829D01*
X200116801Y-110621114D01*
X200116801Y-110406829D01*
X200045372Y-110121114D01*
X199973944Y-109978257D01*
X199831086Y-109835400D01*
X199616801Y-109763971D01*
X199473944Y-109763971D01*
X199259658Y-109835400D01*
X199188229Y-109906829D01*
X198331086Y-111263971D02*
X198473944Y-111192543D01*
X198545372Y-111121114D01*
X198616801Y-110978257D01*
X198616801Y-110549686D01*
X198545372Y-110406829D01*
X198473944Y-110335400D01*
X198331086Y-110263971D01*
X198116801Y-110263971D01*
X197973944Y-110335400D01*
X197902515Y-110406829D01*
X197831086Y-110549686D01*
X197831086Y-110978257D01*
X197902515Y-111121114D01*
X197973944Y-111192543D01*
X198116801Y-111263971D01*
X198331086Y-111263971D01*
X197188229Y-111263971D02*
X197188229Y-110263971D01*
X197188229Y-110406829D02*
X197116801Y-110335400D01*
X196973943Y-110263971D01*
X196759658Y-110263971D01*
X196616801Y-110335400D01*
X196545372Y-110478257D01*
X196545372Y-111263971D01*
X196545372Y-110478257D02*
X196473943Y-110335400D01*
X196331086Y-110263971D01*
X196116801Y-110263971D01*
X195973943Y-110335400D01*
X195902515Y-110478257D01*
X195902515Y-111263971D01*
X195188229Y-111263971D02*
X195188229Y-110263971D01*
X195188229Y-110406829D02*
X195116801Y-110335400D01*
X194973943Y-110263971D01*
X194759658Y-110263971D01*
X194616801Y-110335400D01*
X194545372Y-110478257D01*
X194545372Y-111263971D01*
X194545372Y-110478257D02*
X194473943Y-110335400D01*
X194331086Y-110263971D01*
X194116801Y-110263971D01*
X193973943Y-110335400D01*
X193902515Y-110478257D01*
X193902515Y-111263971D01*
X192973943Y-111263971D02*
X193116801Y-111192543D01*
X193188229Y-111121114D01*
X193259658Y-110978257D01*
X193259658Y-110549686D01*
X193188229Y-110406829D01*
X193116801Y-110335400D01*
X192973943Y-110263971D01*
X192759658Y-110263971D01*
X192616801Y-110335400D01*
X192545372Y-110406829D01*
X192473943Y-110549686D01*
X192473943Y-110978257D01*
X192545372Y-111121114D01*
X192616801Y-111192543D01*
X192759658Y-111263971D01*
X192973943Y-111263971D01*
X191831086Y-110263971D02*
X191831086Y-111263971D01*
X191831086Y-110406829D02*
X191759658Y-110335400D01*
X191616800Y-110263971D01*
X191402515Y-110263971D01*
X191259658Y-110335400D01*
X191188229Y-110478257D01*
X191188229Y-111263971D01*
X190545372Y-111192543D02*
X190402515Y-111263971D01*
X190116800Y-111263971D01*
X189973943Y-111192543D01*
X189902515Y-111049686D01*
X189902515Y-110978257D01*
X189973943Y-110835400D01*
X190116800Y-110763971D01*
X190331086Y-110763971D01*
X190473943Y-110692543D01*
X190545372Y-110549686D01*
X190545372Y-110478257D01*
X190473943Y-110335400D01*
X190331086Y-110263971D01*
X190116800Y-110263971D01*
X189973943Y-110335400D01*
X210331086Y-113235400D02*
X209616800Y-113235400D01*
X210473943Y-113663971D02*
X209973943Y-112163971D01*
X209473943Y-113663971D01*
X209188229Y-112663971D02*
X208616800Y-112663971D01*
X208973943Y-112163971D02*
X208973943Y-113449686D01*
X208902515Y-113592543D01*
X208759657Y-113663971D01*
X208616800Y-113663971D01*
X208116800Y-113663971D02*
X208116800Y-112663971D01*
X208116800Y-112949686D02*
X208045372Y-112806829D01*
X207973943Y-112735400D01*
X207831086Y-112663971D01*
X207688229Y-112663971D01*
X207188229Y-113663971D02*
X207188229Y-112663971D01*
X207188229Y-112163971D02*
X207259658Y-112235400D01*
X207188229Y-112306829D01*
X207116801Y-112235400D01*
X207188229Y-112163971D01*
X207188229Y-112306829D01*
X206473943Y-113663971D02*
X206473943Y-112163971D01*
X206473943Y-112735400D02*
X206331086Y-112663971D01*
X206045372Y-112663971D01*
X205902515Y-112735400D01*
X205831086Y-112806829D01*
X205759657Y-112949686D01*
X205759657Y-113378257D01*
X205831086Y-113521114D01*
X205902515Y-113592543D01*
X206045372Y-113663971D01*
X206331086Y-113663971D01*
X206473943Y-113592543D01*
X204473943Y-112663971D02*
X204473943Y-113663971D01*
X205116800Y-112663971D02*
X205116800Y-113449686D01*
X205045372Y-113592543D01*
X204902514Y-113663971D01*
X204688229Y-113663971D01*
X204545372Y-113592543D01*
X204473943Y-113521114D01*
X203973943Y-112663971D02*
X203402514Y-112663971D01*
X203759657Y-112163971D02*
X203759657Y-113449686D01*
X203688229Y-113592543D01*
X203545371Y-113663971D01*
X203402514Y-113663971D01*
X202902514Y-113663971D02*
X202902514Y-112663971D01*
X202902514Y-112163971D02*
X202973943Y-112235400D01*
X202902514Y-112306829D01*
X202831086Y-112235400D01*
X202902514Y-112163971D01*
X202902514Y-112306829D01*
X201973942Y-113663971D02*
X202116800Y-113592543D01*
X202188228Y-113521114D01*
X202259657Y-113378257D01*
X202259657Y-112949686D01*
X202188228Y-112806829D01*
X202116800Y-112735400D01*
X201973942Y-112663971D01*
X201759657Y-112663971D01*
X201616800Y-112735400D01*
X201545371Y-112806829D01*
X201473942Y-112949686D01*
X201473942Y-113378257D01*
X201545371Y-113521114D01*
X201616800Y-113592543D01*
X201759657Y-113663971D01*
X201973942Y-113663971D01*
X200831085Y-112663971D02*
X200831085Y-113663971D01*
X200831085Y-112806829D02*
X200759657Y-112735400D01*
X200616799Y-112663971D01*
X200402514Y-112663971D01*
X200259657Y-112735400D01*
X200188228Y-112878257D01*
X200188228Y-113663971D01*
X199473942Y-113092543D02*
X198331085Y-113092543D01*
X197688228Y-113592543D02*
X197473942Y-113663971D01*
X197116799Y-113663971D01*
X196973942Y-113592543D01*
X196902513Y-113521114D01*
X196831085Y-113378257D01*
X196831085Y-113235400D01*
X196902513Y-113092543D01*
X196973942Y-113021114D01*
X197116799Y-112949686D01*
X197402513Y-112878257D01*
X197545371Y-112806829D01*
X197616799Y-112735400D01*
X197688228Y-112592543D01*
X197688228Y-112449686D01*
X197616799Y-112306829D01*
X197545371Y-112235400D01*
X197402513Y-112163971D01*
X197045371Y-112163971D01*
X196831085Y-112235400D01*
X196188228Y-113663971D02*
X196188228Y-112163971D01*
X195545371Y-113663971D02*
X195545371Y-112878257D01*
X195616800Y-112735400D01*
X195759657Y-112663971D01*
X195973942Y-112663971D01*
X196116800Y-112735400D01*
X196188228Y-112806829D01*
X194188228Y-113663971D02*
X194188228Y-112878257D01*
X194259657Y-112735400D01*
X194402514Y-112663971D01*
X194688228Y-112663971D01*
X194831085Y-112735400D01*
X194188228Y-113592543D02*
X194331085Y-113663971D01*
X194688228Y-113663971D01*
X194831085Y-113592543D01*
X194902514Y-113449686D01*
X194902514Y-113306829D01*
X194831085Y-113163971D01*
X194688228Y-113092543D01*
X194331085Y-113092543D01*
X194188228Y-113021114D01*
X193473942Y-113663971D02*
X193473942Y-112663971D01*
X193473942Y-112949686D02*
X193402514Y-112806829D01*
X193331085Y-112735400D01*
X193188228Y-112663971D01*
X193045371Y-112663971D01*
X191973943Y-113592543D02*
X192116800Y-113663971D01*
X192402514Y-113663971D01*
X192545371Y-113592543D01*
X192616800Y-113449686D01*
X192616800Y-112878257D01*
X192545371Y-112735400D01*
X192402514Y-112663971D01*
X192116800Y-112663971D01*
X191973943Y-112735400D01*
X191902514Y-112878257D01*
X191902514Y-113021114D01*
X192616800Y-113163971D01*
X191331086Y-113235400D02*
X190616800Y-113235400D01*
X191473943Y-113663971D02*
X190973943Y-112163971D01*
X190473943Y-113663971D01*
X189759657Y-113663971D02*
X189902515Y-113592543D01*
X189973943Y-113449686D01*
X189973943Y-112163971D01*
X189188229Y-113663971D02*
X189188229Y-112663971D01*
X189188229Y-112163971D02*
X189259658Y-112235400D01*
X189188229Y-112306829D01*
X189116801Y-112235400D01*
X189188229Y-112163971D01*
X189188229Y-112306829D01*
X188473943Y-113663971D02*
X188473943Y-112163971D01*
X188331086Y-113092543D02*
X187902515Y-113663971D01*
X187902515Y-112663971D02*
X188473943Y-113235400D01*
X186688229Y-113592543D02*
X186831086Y-113663971D01*
X187116800Y-113663971D01*
X187259657Y-113592543D01*
X187331086Y-113449686D01*
X187331086Y-112878257D01*
X187259657Y-112735400D01*
X187116800Y-112663971D01*
X186831086Y-112663971D01*
X186688229Y-112735400D01*
X186616800Y-112878257D01*
X186616800Y-113021114D01*
X187331086Y-113163971D01*
X214936010Y-111574943D02*
X215056962Y-111695895D01*
X215419819Y-111816848D01*
X215661724Y-111816848D01*
X216024581Y-111695895D01*
X216266486Y-111453990D01*
X216387438Y-111212086D01*
X216508390Y-110728276D01*
X216508390Y-110365419D01*
X216387438Y-109881610D01*
X216266486Y-109639705D01*
X216024581Y-109397800D01*
X215661724Y-109276848D01*
X215419819Y-109276848D01*
X215056962Y-109397800D01*
X214936010Y-109518752D01*
X212396010Y-111574943D02*
X212516962Y-111695895D01*
X212879819Y-111816848D01*
X213121724Y-111816848D01*
X213484581Y-111695895D01*
X213726486Y-111453990D01*
X213847438Y-111212086D01*
X213968390Y-110728276D01*
X213968390Y-110365419D01*
X213847438Y-109881610D01*
X213726486Y-109639705D01*
X213484581Y-109397800D01*
X213121724Y-109276848D01*
X212879819Y-109276848D01*
X212516962Y-109397800D01*
X212396010Y-109518752D01*
D13*
X210458485Y-109034971D02*
X210458485Y-107534971D01*
X210101342Y-107534971D01*
X209887057Y-107606400D01*
X209744199Y-107749257D01*
X209672771Y-107892114D01*
X209601342Y-108177829D01*
X209601342Y-108392114D01*
X209672771Y-108677829D01*
X209744199Y-108820686D01*
X209887057Y-108963543D01*
X210101342Y-109034971D01*
X210458485Y-109034971D01*
X208387057Y-108963543D02*
X208529914Y-109034971D01*
X208815628Y-109034971D01*
X208958485Y-108963543D01*
X209029914Y-108820686D01*
X209029914Y-108249257D01*
X208958485Y-108106400D01*
X208815628Y-108034971D01*
X208529914Y-108034971D01*
X208387057Y-108106400D01*
X208315628Y-108249257D01*
X208315628Y-108392114D01*
X209029914Y-108534971D01*
X207744200Y-108963543D02*
X207601343Y-109034971D01*
X207315628Y-109034971D01*
X207172771Y-108963543D01*
X207101343Y-108820686D01*
X207101343Y-108749257D01*
X207172771Y-108606400D01*
X207315628Y-108534971D01*
X207529914Y-108534971D01*
X207672771Y-108463543D01*
X207744200Y-108320686D01*
X207744200Y-108249257D01*
X207672771Y-108106400D01*
X207529914Y-108034971D01*
X207315628Y-108034971D01*
X207172771Y-108106400D01*
X206458485Y-109034971D02*
X206458485Y-108034971D01*
X206458485Y-107534971D02*
X206529914Y-107606400D01*
X206458485Y-107677829D01*
X206387057Y-107606400D01*
X206458485Y-107534971D01*
X206458485Y-107677829D01*
X205101342Y-108034971D02*
X205101342Y-109249257D01*
X205172771Y-109392114D01*
X205244199Y-109463543D01*
X205387056Y-109534971D01*
X205601342Y-109534971D01*
X205744199Y-109463543D01*
X205101342Y-108963543D02*
X205244199Y-109034971D01*
X205529913Y-109034971D01*
X205672771Y-108963543D01*
X205744199Y-108892114D01*
X205815628Y-108749257D01*
X205815628Y-108320686D01*
X205744199Y-108177829D01*
X205672771Y-108106400D01*
X205529913Y-108034971D01*
X205244199Y-108034971D01*
X205101342Y-108106400D01*
X204387056Y-108034971D02*
X204387056Y-109034971D01*
X204387056Y-108177829D02*
X204315628Y-108106400D01*
X204172770Y-108034971D01*
X203958485Y-108034971D01*
X203815628Y-108106400D01*
X203744199Y-108249257D01*
X203744199Y-109034971D01*
X201887056Y-109034971D02*
X201887056Y-107534971D01*
X201887056Y-108106400D02*
X201744199Y-108034971D01*
X201458485Y-108034971D01*
X201315628Y-108106400D01*
X201244199Y-108177829D01*
X201172770Y-108320686D01*
X201172770Y-108749257D01*
X201244199Y-108892114D01*
X201315628Y-108963543D01*
X201458485Y-109034971D01*
X201744199Y-109034971D01*
X201887056Y-108963543D01*
X200672770Y-108034971D02*
X200315627Y-109034971D01*
X199958485Y-108034971D02*
X200315627Y-109034971D01*
X200458485Y-109392114D01*
X200529913Y-109463543D01*
X200672770Y-109534971D01*
X198244199Y-109034971D02*
X198244199Y-108034971D01*
X198244199Y-108177829D02*
X198172771Y-108106400D01*
X198029913Y-108034971D01*
X197815628Y-108034971D01*
X197672771Y-108106400D01*
X197601342Y-108249257D01*
X197601342Y-109034971D01*
X197601342Y-108249257D02*
X197529913Y-108106400D01*
X197387056Y-108034971D01*
X197172771Y-108034971D01*
X197029913Y-108106400D01*
X196958485Y-108249257D01*
X196958485Y-109034971D01*
X196244199Y-108034971D02*
X196244199Y-109320686D01*
X196315628Y-109463543D01*
X196458485Y-109534971D01*
X196529913Y-109534971D01*
X196244199Y-107534971D02*
X196315628Y-107606400D01*
X196244199Y-107677829D01*
X196172771Y-107606400D01*
X196244199Y-107534971D01*
X196244199Y-107677829D01*
X195529913Y-109034971D02*
X195529913Y-108034971D01*
X195529913Y-108320686D02*
X195458485Y-108177829D01*
X195387056Y-108106400D01*
X195244199Y-108034971D01*
X195101342Y-108034971D01*
X194601342Y-109034971D02*
X194601342Y-108034971D01*
X194601342Y-107534971D02*
X194672771Y-107606400D01*
X194601342Y-107677829D01*
X194529914Y-107606400D01*
X194601342Y-107534971D01*
X194601342Y-107677829D01*
X193244199Y-108963543D02*
X193387056Y-109034971D01*
X193672770Y-109034971D01*
X193815628Y-108963543D01*
X193887056Y-108892114D01*
X193958485Y-108749257D01*
X193958485Y-108320686D01*
X193887056Y-108177829D01*
X193815628Y-108106400D01*
X193672770Y-108034971D01*
X193387056Y-108034971D01*
X193244199Y-108106400D01*
X192029914Y-108963543D02*
X192172771Y-109034971D01*
X192458485Y-109034971D01*
X192601342Y-108963543D01*
X192672771Y-108820686D01*
X192672771Y-108249257D01*
X192601342Y-108106400D01*
X192458485Y-108034971D01*
X192172771Y-108034971D01*
X192029914Y-108106400D01*
X191958485Y-108249257D01*
X191958485Y-108392114D01*
X192672771Y-108534971D01*
X216050857Y-104073371D02*
X216050857Y-102573371D01*
X215479429Y-102573371D01*
X215336571Y-102644800D01*
X215265143Y-102716229D01*
X215193714Y-102859086D01*
X215193714Y-103073371D01*
X215265143Y-103216229D01*
X215336571Y-103287657D01*
X215479429Y-103359086D01*
X216050857Y-103359086D01*
X214336571Y-104073371D02*
X214479429Y-104001943D01*
X214550857Y-103930514D01*
X214622286Y-103787657D01*
X214622286Y-103359086D01*
X214550857Y-103216229D01*
X214479429Y-103144800D01*
X214336571Y-103073371D01*
X214122286Y-103073371D01*
X213979429Y-103144800D01*
X213908000Y-103216229D01*
X213836571Y-103359086D01*
X213836571Y-103787657D01*
X213908000Y-103930514D01*
X213979429Y-104001943D01*
X214122286Y-104073371D01*
X214336571Y-104073371D01*
X213336571Y-103073371D02*
X213050857Y-104073371D01*
X212765143Y-103359086D01*
X212479428Y-104073371D01*
X212193714Y-103073371D01*
X211050857Y-104001943D02*
X211193714Y-104073371D01*
X211479428Y-104073371D01*
X211622285Y-104001943D01*
X211693714Y-103859086D01*
X211693714Y-103287657D01*
X211622285Y-103144800D01*
X211479428Y-103073371D01*
X211193714Y-103073371D01*
X211050857Y-103144800D01*
X210979428Y-103287657D01*
X210979428Y-103430514D01*
X211693714Y-103573371D01*
X210336571Y-104073371D02*
X210336571Y-103073371D01*
X210336571Y-103359086D02*
X210265143Y-103216229D01*
X210193714Y-103144800D01*
X210050857Y-103073371D01*
X209908000Y-103073371D01*
X209336572Y-104001943D02*
X209336572Y-104073371D01*
X209408000Y-104216229D01*
X209479429Y-104287657D01*
X207550857Y-104073371D02*
X207550857Y-102573371D01*
X206836571Y-103073371D02*
X206836571Y-104073371D01*
X206836571Y-103216229D02*
X206765143Y-103144800D01*
X206622285Y-103073371D01*
X206408000Y-103073371D01*
X206265143Y-103144800D01*
X206193714Y-103287657D01*
X206193714Y-104073371D01*
X205693714Y-103073371D02*
X205122285Y-103073371D01*
X205479428Y-102573371D02*
X205479428Y-103859086D01*
X205408000Y-104001943D01*
X205265142Y-104073371D01*
X205122285Y-104073371D01*
X204050857Y-104001943D02*
X204193714Y-104073371D01*
X204479428Y-104073371D01*
X204622285Y-104001943D01*
X204693714Y-103859086D01*
X204693714Y-103287657D01*
X204622285Y-103144800D01*
X204479428Y-103073371D01*
X204193714Y-103073371D01*
X204050857Y-103144800D01*
X203979428Y-103287657D01*
X203979428Y-103430514D01*
X204693714Y-103573371D01*
X203336571Y-104073371D02*
X203336571Y-103073371D01*
X203336571Y-103359086D02*
X203265143Y-103216229D01*
X203193714Y-103144800D01*
X203050857Y-103073371D01*
X202908000Y-103073371D01*
X202622286Y-103073371D02*
X202050857Y-103073371D01*
X202408000Y-104073371D02*
X202408000Y-102787657D01*
X202336572Y-102644800D01*
X202193714Y-102573371D01*
X202050857Y-102573371D01*
X200908000Y-104073371D02*
X200908000Y-103287657D01*
X200979429Y-103144800D01*
X201122286Y-103073371D01*
X201408000Y-103073371D01*
X201550857Y-103144800D01*
X200908000Y-104001943D02*
X201050857Y-104073371D01*
X201408000Y-104073371D01*
X201550857Y-104001943D01*
X201622286Y-103859086D01*
X201622286Y-103716229D01*
X201550857Y-103573371D01*
X201408000Y-103501943D01*
X201050857Y-103501943D01*
X200908000Y-103430514D01*
X199550857Y-104001943D02*
X199693714Y-104073371D01*
X199979428Y-104073371D01*
X200122286Y-104001943D01*
X200193714Y-103930514D01*
X200265143Y-103787657D01*
X200265143Y-103359086D01*
X200193714Y-103216229D01*
X200122286Y-103144800D01*
X199979428Y-103073371D01*
X199693714Y-103073371D01*
X199550857Y-103144800D01*
X198336572Y-104001943D02*
X198479429Y-104073371D01*
X198765143Y-104073371D01*
X198908000Y-104001943D01*
X198979429Y-103859086D01*
X198979429Y-103287657D01*
X198908000Y-103144800D01*
X198765143Y-103073371D01*
X198479429Y-103073371D01*
X198336572Y-103144800D01*
X198265143Y-103287657D01*
X198265143Y-103430514D01*
X198979429Y-103573371D01*
X197550858Y-104001943D02*
X197550858Y-104073371D01*
X197622286Y-104216229D01*
X197693715Y-104287657D01*
X195122286Y-104073371D02*
X195122286Y-103287657D01*
X195193715Y-103144800D01*
X195336572Y-103073371D01*
X195622286Y-103073371D01*
X195765143Y-103144800D01*
X195122286Y-104001943D02*
X195265143Y-104073371D01*
X195622286Y-104073371D01*
X195765143Y-104001943D01*
X195836572Y-103859086D01*
X195836572Y-103716229D01*
X195765143Y-103573371D01*
X195622286Y-103501943D01*
X195265143Y-103501943D01*
X195122286Y-103430514D01*
X194408000Y-103073371D02*
X194408000Y-104073371D01*
X194408000Y-103216229D02*
X194336572Y-103144800D01*
X194193714Y-103073371D01*
X193979429Y-103073371D01*
X193836572Y-103144800D01*
X193765143Y-103287657D01*
X193765143Y-104073371D01*
X192408000Y-104073371D02*
X192408000Y-102573371D01*
X192408000Y-104001943D02*
X192550857Y-104073371D01*
X192836571Y-104073371D01*
X192979429Y-104001943D01*
X193050857Y-103930514D01*
X193122286Y-103787657D01*
X193122286Y-103359086D01*
X193050857Y-103216229D01*
X192979429Y-103144800D01*
X192836571Y-103073371D01*
X192550857Y-103073371D01*
X192408000Y-103144800D01*
X189693714Y-103930514D02*
X189765143Y-104001943D01*
X189979429Y-104073371D01*
X190122286Y-104073371D01*
X190336571Y-104001943D01*
X190479429Y-103859086D01*
X190550857Y-103716229D01*
X190622286Y-103430514D01*
X190622286Y-103216229D01*
X190550857Y-102930514D01*
X190479429Y-102787657D01*
X190336571Y-102644800D01*
X190122286Y-102573371D01*
X189979429Y-102573371D01*
X189765143Y-102644800D01*
X189693714Y-102716229D01*
X188836571Y-104073371D02*
X188979429Y-104001943D01*
X189050857Y-103930514D01*
X189122286Y-103787657D01*
X189122286Y-103359086D01*
X189050857Y-103216229D01*
X188979429Y-103144800D01*
X188836571Y-103073371D01*
X188622286Y-103073371D01*
X188479429Y-103144800D01*
X188408000Y-103216229D01*
X188336571Y-103359086D01*
X188336571Y-103787657D01*
X188408000Y-103930514D01*
X188479429Y-104001943D01*
X188622286Y-104073371D01*
X188836571Y-104073371D01*
X187693714Y-103073371D02*
X187693714Y-104073371D01*
X187693714Y-103216229D02*
X187622286Y-103144800D01*
X187479428Y-103073371D01*
X187265143Y-103073371D01*
X187122286Y-103144800D01*
X187050857Y-103287657D01*
X187050857Y-104073371D01*
X186550857Y-103073371D02*
X185979428Y-103073371D01*
X186336571Y-102573371D02*
X186336571Y-103859086D01*
X186265143Y-104001943D01*
X186122285Y-104073371D01*
X185979428Y-104073371D01*
X185479428Y-104073371D02*
X185479428Y-103073371D01*
X185479428Y-103359086D02*
X185408000Y-103216229D01*
X185336571Y-103144800D01*
X185193714Y-103073371D01*
X185050857Y-103073371D01*
X184336571Y-104073371D02*
X184479429Y-104001943D01*
X184550857Y-103930514D01*
X184622286Y-103787657D01*
X184622286Y-103359086D01*
X184550857Y-103216229D01*
X184479429Y-103144800D01*
X184336571Y-103073371D01*
X184122286Y-103073371D01*
X183979429Y-103144800D01*
X183908000Y-103216229D01*
X183836571Y-103359086D01*
X183836571Y-103787657D01*
X183908000Y-103930514D01*
X183979429Y-104001943D01*
X184122286Y-104073371D01*
X184336571Y-104073371D01*
X182979428Y-104073371D02*
X183122286Y-104001943D01*
X183193714Y-103859086D01*
X183193714Y-102573371D01*
X181336572Y-103644800D02*
X180622286Y-103644800D01*
X181479429Y-104073371D02*
X180979429Y-102573371D01*
X180479429Y-104073371D01*
X179336572Y-104073371D02*
X179336572Y-102573371D01*
X179336572Y-104001943D02*
X179479429Y-104073371D01*
X179765143Y-104073371D01*
X179908001Y-104001943D01*
X179979429Y-103930514D01*
X180050858Y-103787657D01*
X180050858Y-103359086D01*
X179979429Y-103216229D01*
X179908001Y-103144800D01*
X179765143Y-103073371D01*
X179479429Y-103073371D01*
X179336572Y-103144800D01*
X177979429Y-104073371D02*
X177979429Y-103287657D01*
X178050858Y-103144800D01*
X178193715Y-103073371D01*
X178479429Y-103073371D01*
X178622286Y-103144800D01*
X177979429Y-104001943D02*
X178122286Y-104073371D01*
X178479429Y-104073371D01*
X178622286Y-104001943D01*
X178693715Y-103859086D01*
X178693715Y-103716229D01*
X178622286Y-103573371D01*
X178479429Y-103501943D01*
X178122286Y-103501943D01*
X177979429Y-103430514D01*
X177265143Y-103073371D02*
X177265143Y-104573371D01*
X177265143Y-103144800D02*
X177122286Y-103073371D01*
X176836572Y-103073371D01*
X176693715Y-103144800D01*
X176622286Y-103216229D01*
X176550857Y-103359086D01*
X176550857Y-103787657D01*
X176622286Y-103930514D01*
X176693715Y-104001943D01*
X176836572Y-104073371D01*
X177122286Y-104073371D01*
X177265143Y-104001943D01*
X176122286Y-103073371D02*
X175550857Y-103073371D01*
X175908000Y-102573371D02*
X175908000Y-103859086D01*
X175836572Y-104001943D01*
X175693714Y-104073371D01*
X175550857Y-104073371D01*
X174479429Y-104001943D02*
X174622286Y-104073371D01*
X174908000Y-104073371D01*
X175050857Y-104001943D01*
X175122286Y-103859086D01*
X175122286Y-103287657D01*
X175050857Y-103144800D01*
X174908000Y-103073371D01*
X174622286Y-103073371D01*
X174479429Y-103144800D01*
X174408000Y-103287657D01*
X174408000Y-103430514D01*
X175122286Y-103573371D01*
X173765143Y-104073371D02*
X173765143Y-103073371D01*
X173765143Y-103359086D02*
X173693715Y-103216229D01*
X173622286Y-103144800D01*
X173479429Y-103073371D01*
X173336572Y-103073371D01*
X216122286Y-105948000D02*
X215408000Y-105948000D01*
X216265143Y-106376571D02*
X215765143Y-104876571D01*
X215265143Y-106376571D01*
X212765143Y-106376571D02*
X213265143Y-105662286D01*
X213622286Y-106376571D02*
X213622286Y-104876571D01*
X213050858Y-104876571D01*
X212908000Y-104948000D01*
X212836572Y-105019429D01*
X212765143Y-105162286D01*
X212765143Y-105376571D01*
X212836572Y-105519429D01*
X212908000Y-105590857D01*
X213050858Y-105662286D01*
X213622286Y-105662286D01*
X211550858Y-106305143D02*
X211693715Y-106376571D01*
X211979429Y-106376571D01*
X212122286Y-106305143D01*
X212193715Y-106162286D01*
X212193715Y-105590857D01*
X212122286Y-105448000D01*
X211979429Y-105376571D01*
X211693715Y-105376571D01*
X211550858Y-105448000D01*
X211479429Y-105590857D01*
X211479429Y-105733714D01*
X212193715Y-105876571D01*
X210836572Y-105376571D02*
X210836572Y-106876571D01*
X210836572Y-105448000D02*
X210693715Y-105376571D01*
X210408001Y-105376571D01*
X210265144Y-105448000D01*
X210193715Y-105519429D01*
X210122286Y-105662286D01*
X210122286Y-106090857D01*
X210193715Y-106233714D01*
X210265144Y-106305143D01*
X210408001Y-106376571D01*
X210693715Y-106376571D01*
X210836572Y-106305143D01*
X209479429Y-106376571D02*
X209479429Y-105376571D01*
X209479429Y-105662286D02*
X209408001Y-105519429D01*
X209336572Y-105448000D01*
X209193715Y-105376571D01*
X209050858Y-105376571D01*
X207908001Y-106376571D02*
X207908001Y-105590857D01*
X207979430Y-105448000D01*
X208122287Y-105376571D01*
X208408001Y-105376571D01*
X208550858Y-105448000D01*
X207908001Y-106305143D02*
X208050858Y-106376571D01*
X208408001Y-106376571D01*
X208550858Y-106305143D01*
X208622287Y-106162286D01*
X208622287Y-106019429D01*
X208550858Y-105876571D01*
X208408001Y-105805143D01*
X208050858Y-105805143D01*
X207908001Y-105733714D01*
X207193715Y-105376571D02*
X207193715Y-106876571D01*
X207193715Y-105448000D02*
X207050858Y-105376571D01*
X206765144Y-105376571D01*
X206622287Y-105448000D01*
X206550858Y-105519429D01*
X206479429Y-105662286D01*
X206479429Y-106090857D01*
X206550858Y-106233714D01*
X206622287Y-106305143D01*
X206765144Y-106376571D01*
X207050858Y-106376571D01*
X207193715Y-106305143D01*
X204765144Y-105948000D02*
X204050858Y-105948000D01*
X204908001Y-106376571D02*
X204408001Y-104876571D01*
X203908001Y-106376571D01*
X203408001Y-106376571D02*
X203408001Y-105376571D01*
X203408001Y-105662286D02*
X203336573Y-105519429D01*
X203265144Y-105448000D01*
X203122287Y-105376571D01*
X202979430Y-105376571D01*
X201836573Y-106376571D02*
X201836573Y-104876571D01*
X201836573Y-106305143D02*
X201979430Y-106376571D01*
X202265144Y-106376571D01*
X202408002Y-106305143D01*
X202479430Y-106233714D01*
X202550859Y-106090857D01*
X202550859Y-105662286D01*
X202479430Y-105519429D01*
X202408002Y-105448000D01*
X202265144Y-105376571D01*
X201979430Y-105376571D01*
X201836573Y-105448000D01*
X200479430Y-105376571D02*
X200479430Y-106376571D01*
X201122287Y-105376571D02*
X201122287Y-106162286D01*
X201050859Y-106305143D01*
X200908001Y-106376571D01*
X200693716Y-106376571D01*
X200550859Y-106305143D01*
X200479430Y-106233714D01*
X199765144Y-106376571D02*
X199765144Y-105376571D01*
X199765144Y-104876571D02*
X199836573Y-104948000D01*
X199765144Y-105019429D01*
X199693716Y-104948000D01*
X199765144Y-104876571D01*
X199765144Y-105019429D01*
X199050858Y-105376571D02*
X199050858Y-106376571D01*
X199050858Y-105519429D02*
X198979430Y-105448000D01*
X198836572Y-105376571D01*
X198622287Y-105376571D01*
X198479430Y-105448000D01*
X198408001Y-105590857D01*
X198408001Y-106376571D01*
X197479429Y-106376571D02*
X197622287Y-106305143D01*
X197693715Y-106233714D01*
X197765144Y-106090857D01*
X197765144Y-105662286D01*
X197693715Y-105519429D01*
X197622287Y-105448000D01*
X197479429Y-105376571D01*
X197265144Y-105376571D01*
X197122287Y-105448000D01*
X197050858Y-105519429D01*
X196979429Y-105662286D01*
X196979429Y-106090857D01*
X197050858Y-106233714D01*
X197122287Y-106305143D01*
X197265144Y-106376571D01*
X197479429Y-106376571D01*
X195193715Y-106376571D02*
X195193715Y-104876571D01*
X194693715Y-105948000D01*
X194193715Y-104876571D01*
X194193715Y-106376571D01*
X192908001Y-106305143D02*
X193050858Y-106376571D01*
X193336572Y-106376571D01*
X193479429Y-106305143D01*
X193550858Y-106162286D01*
X193550858Y-105590857D01*
X193479429Y-105448000D01*
X193336572Y-105376571D01*
X193050858Y-105376571D01*
X192908001Y-105448000D01*
X192836572Y-105590857D01*
X192836572Y-105733714D01*
X193550858Y-105876571D01*
X191550858Y-105376571D02*
X191550858Y-106590857D01*
X191622287Y-106733714D01*
X191693715Y-106805143D01*
X191836572Y-106876571D01*
X192050858Y-106876571D01*
X192193715Y-106805143D01*
X191550858Y-106305143D02*
X191693715Y-106376571D01*
X191979429Y-106376571D01*
X192122287Y-106305143D01*
X192193715Y-106233714D01*
X192265144Y-106090857D01*
X192265144Y-105662286D01*
X192193715Y-105519429D01*
X192122287Y-105448000D01*
X191979429Y-105376571D01*
X191693715Y-105376571D01*
X191550858Y-105448000D01*
X190193715Y-106376571D02*
X190193715Y-105590857D01*
X190265144Y-105448000D01*
X190408001Y-105376571D01*
X190693715Y-105376571D01*
X190836572Y-105448000D01*
X190193715Y-106305143D02*
X190336572Y-106376571D01*
X190693715Y-106376571D01*
X190836572Y-106305143D01*
X190908001Y-106162286D01*
X190908001Y-106019429D01*
X190836572Y-105876571D01*
X190693715Y-105805143D01*
X190336572Y-105805143D01*
X190193715Y-105733714D01*
X188336572Y-106376571D02*
X188336572Y-104876571D01*
X187765144Y-104876571D01*
X187622286Y-104948000D01*
X187550858Y-105019429D01*
X187479429Y-105162286D01*
X187479429Y-105376571D01*
X187550858Y-105519429D01*
X187622286Y-105590857D01*
X187765144Y-105662286D01*
X188336572Y-105662286D01*
X186622286Y-106376571D02*
X186765144Y-106305143D01*
X186836572Y-106233714D01*
X186908001Y-106090857D01*
X186908001Y-105662286D01*
X186836572Y-105519429D01*
X186765144Y-105448000D01*
X186622286Y-105376571D01*
X186408001Y-105376571D01*
X186265144Y-105448000D01*
X186193715Y-105519429D01*
X186122286Y-105662286D01*
X186122286Y-106090857D01*
X186193715Y-106233714D01*
X186265144Y-106305143D01*
X186408001Y-106376571D01*
X186622286Y-106376571D01*
X185265143Y-106376571D02*
X185408001Y-106305143D01*
X185479429Y-106162286D01*
X185479429Y-104876571D01*
X184479429Y-106376571D02*
X184622287Y-106305143D01*
X184693715Y-106233714D01*
X184765144Y-106090857D01*
X184765144Y-105662286D01*
X184693715Y-105519429D01*
X184622287Y-105448000D01*
X184479429Y-105376571D01*
X184265144Y-105376571D01*
X184122287Y-105448000D01*
X184050858Y-105519429D01*
X183979429Y-105662286D01*
X183979429Y-106090857D01*
X184050858Y-106233714D01*
X184122287Y-106305143D01*
X184265144Y-106376571D01*
X184479429Y-106376571D01*
X183122286Y-106376571D02*
X183265144Y-106305143D01*
X183336572Y-106162286D01*
X183336572Y-104876571D01*
X181908001Y-105376571D02*
X181908001Y-106376571D01*
X182550858Y-105376571D02*
X182550858Y-106162286D01*
X182479430Y-106305143D01*
X182336572Y-106376571D01*
X182122287Y-106376571D01*
X181979430Y-106305143D01*
X181908001Y-106233714D01*
X180122287Y-106305143D02*
X179908001Y-106376571D01*
X179550858Y-106376571D01*
X179408001Y-106305143D01*
X179336572Y-106233714D01*
X179265144Y-106090857D01*
X179265144Y-105948000D01*
X179336572Y-105805143D01*
X179408001Y-105733714D01*
X179550858Y-105662286D01*
X179836572Y-105590857D01*
X179979430Y-105519429D01*
X180050858Y-105448000D01*
X180122287Y-105305143D01*
X180122287Y-105162286D01*
X180050858Y-105019429D01*
X179979430Y-104948000D01*
X179836572Y-104876571D01*
X179479430Y-104876571D01*
X179265144Y-104948000D01*
X178622287Y-106376571D02*
X178622287Y-104876571D01*
X177979430Y-106376571D02*
X177979430Y-105590857D01*
X178050859Y-105448000D01*
X178193716Y-105376571D01*
X178408001Y-105376571D01*
X178550859Y-105448000D01*
X178622287Y-105519429D01*
X177265144Y-106376571D02*
X177265144Y-105376571D01*
X177265144Y-104876571D02*
X177336573Y-104948000D01*
X177265144Y-105019429D01*
X177193716Y-104948000D01*
X177265144Y-104876571D01*
X177265144Y-105019429D01*
X175979430Y-106305143D02*
X176122287Y-106376571D01*
X176408001Y-106376571D01*
X176550858Y-106305143D01*
X176622287Y-106162286D01*
X176622287Y-105590857D01*
X176550858Y-105448000D01*
X176408001Y-105376571D01*
X176122287Y-105376571D01*
X175979430Y-105448000D01*
X175908001Y-105590857D01*
X175908001Y-105733714D01*
X176622287Y-105876571D01*
X175050858Y-106376571D02*
X175193716Y-106305143D01*
X175265144Y-106162286D01*
X175265144Y-104876571D01*
X173836573Y-106376571D02*
X173836573Y-104876571D01*
X173836573Y-106305143D02*
X173979430Y-106376571D01*
X174265144Y-106376571D01*
X174408002Y-106305143D01*
X174479430Y-106233714D01*
X174550859Y-106090857D01*
X174550859Y-105662286D01*
X174479430Y-105519429D01*
X174408002Y-105448000D01*
X174265144Y-105376571D01*
X173979430Y-105376571D01*
X173836573Y-105448000D01*
D12*
X218111828Y-100208543D02*
X216968971Y-100208543D01*
X216326114Y-100708543D02*
X216111828Y-100779971D01*
X215754685Y-100779971D01*
X215611828Y-100708543D01*
X215540399Y-100637114D01*
X215468971Y-100494257D01*
X215468971Y-100351400D01*
X215540399Y-100208543D01*
X215611828Y-100137114D01*
X215754685Y-100065686D01*
X216040399Y-99994257D01*
X216183257Y-99922829D01*
X216254685Y-99851400D01*
X216326114Y-99708543D01*
X216326114Y-99565686D01*
X216254685Y-99422829D01*
X216183257Y-99351400D01*
X216040399Y-99279971D01*
X215683257Y-99279971D01*
X215468971Y-99351400D01*
X214826114Y-99279971D02*
X214826114Y-100494257D01*
X214754686Y-100637114D01*
X214683257Y-100708543D01*
X214540400Y-100779971D01*
X214254686Y-100779971D01*
X214111828Y-100708543D01*
X214040400Y-100637114D01*
X213968971Y-100494257D01*
X213968971Y-99279971D01*
X213254685Y-100779971D02*
X213254685Y-99279971D01*
X212683257Y-99279971D01*
X212540399Y-99351400D01*
X212468971Y-99422829D01*
X212397542Y-99565686D01*
X212397542Y-99779971D01*
X212468971Y-99922829D01*
X212540399Y-99994257D01*
X212683257Y-100065686D01*
X213254685Y-100065686D01*
X218111828Y-94442743D02*
X216968971Y-94442743D01*
X216326114Y-94942743D02*
X216111828Y-95014171D01*
X215754685Y-95014171D01*
X215611828Y-94942743D01*
X215540399Y-94871314D01*
X215468971Y-94728457D01*
X215468971Y-94585600D01*
X215540399Y-94442743D01*
X215611828Y-94371314D01*
X215754685Y-94299886D01*
X216040399Y-94228457D01*
X216183257Y-94157029D01*
X216254685Y-94085600D01*
X216326114Y-93942743D01*
X216326114Y-93799886D01*
X216254685Y-93657029D01*
X216183257Y-93585600D01*
X216040399Y-93514171D01*
X215683257Y-93514171D01*
X215468971Y-93585600D01*
X214826114Y-93514171D02*
X214826114Y-94728457D01*
X214754686Y-94871314D01*
X214683257Y-94942743D01*
X214540400Y-95014171D01*
X214254686Y-95014171D01*
X214111828Y-94942743D01*
X214040400Y-94871314D01*
X213968971Y-94728457D01*
X213968971Y-93514171D01*
X213254685Y-95014171D02*
X213254685Y-93514171D01*
X212683257Y-93514171D01*
X212540399Y-93585600D01*
X212468971Y-93657029D01*
X212397542Y-93799886D01*
X212397542Y-94014171D01*
X212468971Y-94157029D01*
X212540399Y-94228457D01*
X212683257Y-94299886D01*
X213254685Y-94299886D01*
X218086428Y-88549943D02*
X216943571Y-88549943D01*
X217515000Y-89121371D02*
X217515000Y-87978514D01*
X216300714Y-89049943D02*
X216086428Y-89121371D01*
X215729285Y-89121371D01*
X215586428Y-89049943D01*
X215514999Y-88978514D01*
X215443571Y-88835657D01*
X215443571Y-88692800D01*
X215514999Y-88549943D01*
X215586428Y-88478514D01*
X215729285Y-88407086D01*
X216014999Y-88335657D01*
X216157857Y-88264229D01*
X216229285Y-88192800D01*
X216300714Y-88049943D01*
X216300714Y-87907086D01*
X216229285Y-87764229D01*
X216157857Y-87692800D01*
X216014999Y-87621371D01*
X215657857Y-87621371D01*
X215443571Y-87692800D01*
X214800714Y-87621371D02*
X214800714Y-88835657D01*
X214729286Y-88978514D01*
X214657857Y-89049943D01*
X214515000Y-89121371D01*
X214229286Y-89121371D01*
X214086428Y-89049943D01*
X214015000Y-88978514D01*
X213943571Y-88835657D01*
X213943571Y-87621371D01*
X213229285Y-89121371D02*
X213229285Y-87621371D01*
X212657857Y-87621371D01*
X212514999Y-87692800D01*
X212443571Y-87764229D01*
X212372142Y-87907086D01*
X212372142Y-88121371D01*
X212443571Y-88264229D01*
X212514999Y-88335657D01*
X212657857Y-88407086D01*
X213229285Y-88407086D01*
X218035628Y-82911143D02*
X216892771Y-82911143D01*
X217464200Y-83482571D02*
X217464200Y-82339714D01*
X216249914Y-83411143D02*
X216035628Y-83482571D01*
X215678485Y-83482571D01*
X215535628Y-83411143D01*
X215464199Y-83339714D01*
X215392771Y-83196857D01*
X215392771Y-83054000D01*
X215464199Y-82911143D01*
X215535628Y-82839714D01*
X215678485Y-82768286D01*
X215964199Y-82696857D01*
X216107057Y-82625429D01*
X216178485Y-82554000D01*
X216249914Y-82411143D01*
X216249914Y-82268286D01*
X216178485Y-82125429D01*
X216107057Y-82054000D01*
X215964199Y-81982571D01*
X215607057Y-81982571D01*
X215392771Y-82054000D01*
X214749914Y-81982571D02*
X214749914Y-83196857D01*
X214678486Y-83339714D01*
X214607057Y-83411143D01*
X214464200Y-83482571D01*
X214178486Y-83482571D01*
X214035628Y-83411143D01*
X213964200Y-83339714D01*
X213892771Y-83196857D01*
X213892771Y-81982571D01*
X213178485Y-83482571D02*
X213178485Y-81982571D01*
X212607057Y-81982571D01*
X212464199Y-82054000D01*
X212392771Y-82125429D01*
X212321342Y-82268286D01*
X212321342Y-82482571D01*
X212392771Y-82625429D01*
X212464199Y-82696857D01*
X212607057Y-82768286D01*
X213178485Y-82768286D01*
D14*
X170075981Y-78697343D02*
X171726981Y-79197343D01*
X170075981Y-79697343D01*
X171726981Y-80197343D02*
X170075981Y-80197343D01*
X171726981Y-80911629D02*
X170075981Y-80911629D01*
X171726981Y-81768772D01*
X170075981Y-81768772D01*
X172720000Y-79197343D02*
X172641381Y-79054486D01*
X172641381Y-78840200D01*
X172720000Y-78625915D01*
X172877238Y-78483057D01*
X173034476Y-78411629D01*
X173348952Y-78340200D01*
X173584810Y-78340200D01*
X173899286Y-78411629D01*
X174056524Y-78483057D01*
X174213762Y-78625915D01*
X174292381Y-78840200D01*
X174292381Y-78983057D01*
X174213762Y-79197343D01*
X174135143Y-79268772D01*
X173584810Y-79268772D01*
X173584810Y-78983057D01*
X174292381Y-79911629D02*
X172641381Y-79911629D01*
X174292381Y-80768772D01*
X172641381Y-80768772D01*
X174292381Y-81483058D02*
X172641381Y-81483058D01*
X172641381Y-81840201D01*
X172720000Y-82054486D01*
X172877238Y-82197344D01*
X173034476Y-82268772D01*
X173348952Y-82340201D01*
X173584810Y-82340201D01*
X173899286Y-82268772D01*
X174056524Y-82197344D01*
X174213762Y-82054486D01*
X174292381Y-81840201D01*
X174292381Y-81483058D01*
X175285400Y-79197343D02*
X175206781Y-79054486D01*
X175206781Y-78840200D01*
X175285400Y-78625915D01*
X175442638Y-78483057D01*
X175599876Y-78411629D01*
X175914352Y-78340200D01*
X176150210Y-78340200D01*
X176464686Y-78411629D01*
X176621924Y-78483057D01*
X176779162Y-78625915D01*
X176857781Y-78840200D01*
X176857781Y-78983057D01*
X176779162Y-79197343D01*
X176700543Y-79268772D01*
X176150210Y-79268772D01*
X176150210Y-78983057D01*
X176857781Y-79911629D02*
X175206781Y-79911629D01*
X176857781Y-80768772D01*
X175206781Y-80768772D01*
X176857781Y-81483058D02*
X175206781Y-81483058D01*
X175206781Y-81840201D01*
X175285400Y-82054486D01*
X175442638Y-82197344D01*
X175599876Y-82268772D01*
X175914352Y-82340201D01*
X176150210Y-82340201D01*
X176464686Y-82268772D01*
X176621924Y-82197344D01*
X176779162Y-82054486D01*
X176857781Y-81840201D01*
X176857781Y-81483058D01*
X177772181Y-80054487D02*
X177772181Y-79340201D01*
X178558371Y-79268772D01*
X178479752Y-79340201D01*
X178401133Y-79483058D01*
X178401133Y-79840201D01*
X178479752Y-79983058D01*
X178558371Y-80054487D01*
X178715610Y-80125915D01*
X179108705Y-80125915D01*
X179265943Y-80054487D01*
X179344562Y-79983058D01*
X179423181Y-79840201D01*
X179423181Y-79483058D01*
X179344562Y-79340201D01*
X179265943Y-79268772D01*
X177772181Y-80554486D02*
X179423181Y-81054486D01*
X177772181Y-81554486D01*
X180337581Y-78125915D02*
X180337581Y-79054486D01*
X180966533Y-78554486D01*
X180966533Y-78768772D01*
X181045152Y-78911629D01*
X181123771Y-78983058D01*
X181281010Y-79054486D01*
X181674105Y-79054486D01*
X181831343Y-78983058D01*
X181909962Y-78911629D01*
X181988581Y-78768772D01*
X181988581Y-78340200D01*
X181909962Y-78197343D01*
X181831343Y-78125915D01*
X181831343Y-79697343D02*
X181909962Y-79768771D01*
X181988581Y-79697343D01*
X181909962Y-79625914D01*
X181831343Y-79697343D01*
X181988581Y-79697343D01*
X180337581Y-80268772D02*
X180337581Y-81197343D01*
X180966533Y-80697343D01*
X180966533Y-80911629D01*
X181045152Y-81054486D01*
X181123771Y-81125915D01*
X181281010Y-81197343D01*
X181674105Y-81197343D01*
X181831343Y-81125915D01*
X181909962Y-81054486D01*
X181988581Y-80911629D01*
X181988581Y-80483057D01*
X181909962Y-80340200D01*
X181831343Y-80268772D01*
X180337581Y-81625914D02*
X181988581Y-82125914D01*
X180337581Y-82625914D01*
X184553981Y-79518772D02*
X183767790Y-79018772D01*
X184553981Y-78661629D02*
X182902981Y-78661629D01*
X182902981Y-79233057D01*
X182981600Y-79375915D01*
X183060219Y-79447343D01*
X183217457Y-79518772D01*
X183453314Y-79518772D01*
X183610552Y-79447343D01*
X183689171Y-79375915D01*
X183767790Y-79233057D01*
X183767790Y-78661629D01*
X184475362Y-80090200D02*
X184553981Y-80304486D01*
X184553981Y-80661629D01*
X184475362Y-80804486D01*
X184396743Y-80875915D01*
X184239505Y-80947343D01*
X184082267Y-80947343D01*
X183925029Y-80875915D01*
X183846410Y-80804486D01*
X183767790Y-80661629D01*
X183689171Y-80375915D01*
X183610552Y-80233057D01*
X183531933Y-80161629D01*
X183374695Y-80090200D01*
X183217457Y-80090200D01*
X183060219Y-80161629D01*
X182981600Y-80233057D01*
X182902981Y-80375915D01*
X182902981Y-80733057D01*
X182981600Y-80947343D01*
X182902981Y-81375914D02*
X182902981Y-82233057D01*
X184553981Y-81804486D02*
X182902981Y-81804486D01*
D15*
X160816000Y-101973000D02*
X158716000Y-101973000D01*
X160816000Y-107323000D02*
X158716000Y-107323000D01*
X134581000Y-82304000D02*
X134581000Y-83304000D01*
X132881000Y-83304000D02*
X132881000Y-82304000D01*
X136994000Y-82304000D02*
X136994000Y-83304000D01*
X135294000Y-83304000D02*
X135294000Y-82304000D01*
X139534000Y-82304000D02*
X139534000Y-83304000D01*
X137834000Y-83304000D02*
X137834000Y-82304000D01*
X142201000Y-82304000D02*
X142201000Y-83304000D01*
X140501000Y-83304000D02*
X140501000Y-82304000D01*
X141199500Y-99496500D02*
X141199500Y-98496500D01*
X142899500Y-98496500D02*
X142899500Y-99496500D01*
X171696000Y-117377500D02*
X171696000Y-119477500D01*
X177046000Y-117377500D02*
X177046000Y-119477500D01*
X181745000Y-130653500D02*
X181745000Y-128553500D01*
X176395000Y-130653500D02*
X176395000Y-128553500D01*
X160432666Y-108600381D02*
X160766000Y-108124190D01*
X161004095Y-108600381D02*
X161004095Y-107600381D01*
X160623142Y-107600381D01*
X160527904Y-107648000D01*
X160480285Y-107695619D01*
X160432666Y-107790857D01*
X160432666Y-107933714D01*
X160480285Y-108028952D01*
X160527904Y-108076571D01*
X160623142Y-108124190D01*
X161004095Y-108124190D01*
X160004095Y-108600381D02*
X160004095Y-107600381D01*
X159623142Y-107600381D01*
X159527904Y-107648000D01*
X159480285Y-107695619D01*
X159432666Y-107790857D01*
X159432666Y-107933714D01*
X159480285Y-108028952D01*
X159527904Y-108076571D01*
X159623142Y-108124190D01*
X160004095Y-108124190D01*
X159099333Y-107600381D02*
X158480285Y-107600381D01*
X158813619Y-107981333D01*
X158670761Y-107981333D01*
X158575523Y-108028952D01*
X158527904Y-108076571D01*
X158480285Y-108171810D01*
X158480285Y-108409905D01*
X158527904Y-108505143D01*
X158575523Y-108552762D01*
X158670761Y-108600381D01*
X158956476Y-108600381D01*
X159051714Y-108552762D01*
X159099333Y-108505143D01*
X134342143Y-79335334D02*
X134389762Y-79287715D01*
X134437381Y-79144858D01*
X134437381Y-79049620D01*
X134389762Y-78906762D01*
X134294524Y-78811524D01*
X134199286Y-78763905D01*
X134008810Y-78716286D01*
X133865952Y-78716286D01*
X133675476Y-78763905D01*
X133580238Y-78811524D01*
X133485000Y-78906762D01*
X133437381Y-79049620D01*
X133437381Y-79144858D01*
X133485000Y-79287715D01*
X133532619Y-79335334D01*
X133437381Y-80192477D02*
X133437381Y-80002000D01*
X133485000Y-79906762D01*
X133532619Y-79859143D01*
X133675476Y-79763905D01*
X133865952Y-79716286D01*
X134246905Y-79716286D01*
X134342143Y-79763905D01*
X134389762Y-79811524D01*
X134437381Y-79906762D01*
X134437381Y-80097239D01*
X134389762Y-80192477D01*
X134342143Y-80240096D01*
X134246905Y-80287715D01*
X134008810Y-80287715D01*
X133913571Y-80240096D01*
X133865952Y-80192477D01*
X133818333Y-80097239D01*
X133818333Y-79906762D01*
X133865952Y-79811524D01*
X133913571Y-79763905D01*
X134008810Y-79716286D01*
X136628143Y-79462334D02*
X136675762Y-79414715D01*
X136723381Y-79271858D01*
X136723381Y-79176620D01*
X136675762Y-79033762D01*
X136580524Y-78938524D01*
X136485286Y-78890905D01*
X136294810Y-78843286D01*
X136151952Y-78843286D01*
X135961476Y-78890905D01*
X135866238Y-78938524D01*
X135771000Y-79033762D01*
X135723381Y-79176620D01*
X135723381Y-79271858D01*
X135771000Y-79414715D01*
X135818619Y-79462334D01*
X135723381Y-79795667D02*
X135723381Y-80462334D01*
X136723381Y-80033762D01*
X139295143Y-79462334D02*
X139342762Y-79414715D01*
X139390381Y-79271858D01*
X139390381Y-79176620D01*
X139342762Y-79033762D01*
X139247524Y-78938524D01*
X139152286Y-78890905D01*
X138961810Y-78843286D01*
X138818952Y-78843286D01*
X138628476Y-78890905D01*
X138533238Y-78938524D01*
X138438000Y-79033762D01*
X138390381Y-79176620D01*
X138390381Y-79271858D01*
X138438000Y-79414715D01*
X138485619Y-79462334D01*
X138818952Y-80033762D02*
X138771333Y-79938524D01*
X138723714Y-79890905D01*
X138628476Y-79843286D01*
X138580857Y-79843286D01*
X138485619Y-79890905D01*
X138438000Y-79938524D01*
X138390381Y-80033762D01*
X138390381Y-80224239D01*
X138438000Y-80319477D01*
X138485619Y-80367096D01*
X138580857Y-80414715D01*
X138628476Y-80414715D01*
X138723714Y-80367096D01*
X138771333Y-80319477D01*
X138818952Y-80224239D01*
X138818952Y-80033762D01*
X138866571Y-79938524D01*
X138914190Y-79890905D01*
X139009429Y-79843286D01*
X139199905Y-79843286D01*
X139295143Y-79890905D01*
X139342762Y-79938524D01*
X139390381Y-80033762D01*
X139390381Y-80224239D01*
X139342762Y-80319477D01*
X139295143Y-80367096D01*
X139199905Y-80414715D01*
X139009429Y-80414715D01*
X138914190Y-80367096D01*
X138866571Y-80319477D01*
X138818952Y-80224239D01*
X141835143Y-79462334D02*
X141882762Y-79414715D01*
X141930381Y-79271858D01*
X141930381Y-79176620D01*
X141882762Y-79033762D01*
X141787524Y-78938524D01*
X141692286Y-78890905D01*
X141501810Y-78843286D01*
X141358952Y-78843286D01*
X141168476Y-78890905D01*
X141073238Y-78938524D01*
X140978000Y-79033762D01*
X140930381Y-79176620D01*
X140930381Y-79271858D01*
X140978000Y-79414715D01*
X141025619Y-79462334D01*
X141930381Y-79938524D02*
X141930381Y-80129000D01*
X141882762Y-80224239D01*
X141835143Y-80271858D01*
X141692286Y-80367096D01*
X141501810Y-80414715D01*
X141120857Y-80414715D01*
X141025619Y-80367096D01*
X140978000Y-80319477D01*
X140930381Y-80224239D01*
X140930381Y-80033762D01*
X140978000Y-79938524D01*
X141025619Y-79890905D01*
X141120857Y-79843286D01*
X141358952Y-79843286D01*
X141454190Y-79890905D01*
X141501810Y-79938524D01*
X141549429Y-80033762D01*
X141549429Y-80224239D01*
X141501810Y-80319477D01*
X141454190Y-80367096D01*
X141358952Y-80414715D01*
X142025643Y-102062043D02*
X142073262Y-102014424D01*
X142120881Y-101871567D01*
X142120881Y-101776329D01*
X142073262Y-101633471D01*
X141978024Y-101538233D01*
X141882786Y-101490614D01*
X141692310Y-101442995D01*
X141549452Y-101442995D01*
X141358976Y-101490614D01*
X141263738Y-101538233D01*
X141168500Y-101633471D01*
X141120881Y-101776329D01*
X141120881Y-101871567D01*
X141168500Y-102014424D01*
X141216119Y-102062043D01*
X142120881Y-103014424D02*
X142120881Y-102442995D01*
X142120881Y-102728709D02*
X141120881Y-102728709D01*
X141263738Y-102633471D01*
X141358976Y-102538233D01*
X141406595Y-102442995D01*
X142120881Y-103966805D02*
X142120881Y-103395376D01*
X142120881Y-103681090D02*
X141120881Y-103681090D01*
X141263738Y-103585852D01*
X141358976Y-103490614D01*
X141406595Y-103395376D01*
X178323381Y-117760834D02*
X177847190Y-117427500D01*
X178323381Y-117189405D02*
X177323381Y-117189405D01*
X177323381Y-117570358D01*
X177371000Y-117665596D01*
X177418619Y-117713215D01*
X177513857Y-117760834D01*
X177656714Y-117760834D01*
X177751952Y-117713215D01*
X177799571Y-117665596D01*
X177847190Y-117570358D01*
X177847190Y-117189405D01*
X178323381Y-118189405D02*
X177323381Y-118189405D01*
X177323381Y-118570358D01*
X177371000Y-118665596D01*
X177418619Y-118713215D01*
X177513857Y-118760834D01*
X177656714Y-118760834D01*
X177751952Y-118713215D01*
X177799571Y-118665596D01*
X177847190Y-118570358D01*
X177847190Y-118189405D01*
X178323381Y-119713215D02*
X178323381Y-119141786D01*
X178323381Y-119427500D02*
X177323381Y-119427500D01*
X177466238Y-119332262D01*
X177561476Y-119237024D01*
X177609095Y-119141786D01*
X176022381Y-128936834D02*
X175546190Y-128603500D01*
X176022381Y-128365405D02*
X175022381Y-128365405D01*
X175022381Y-128746358D01*
X175070000Y-128841596D01*
X175117619Y-128889215D01*
X175212857Y-128936834D01*
X175355714Y-128936834D01*
X175450952Y-128889215D01*
X175498571Y-128841596D01*
X175546190Y-128746358D01*
X175546190Y-128365405D01*
X176022381Y-129365405D02*
X175022381Y-129365405D01*
X175022381Y-129746358D01*
X175070000Y-129841596D01*
X175117619Y-129889215D01*
X175212857Y-129936834D01*
X175355714Y-129936834D01*
X175450952Y-129889215D01*
X175498571Y-129841596D01*
X175546190Y-129746358D01*
X175546190Y-129365405D01*
X175117619Y-130317786D02*
X175070000Y-130365405D01*
X175022381Y-130460643D01*
X175022381Y-130698739D01*
X175070000Y-130793977D01*
X175117619Y-130841596D01*
X175212857Y-130889215D01*
X175308095Y-130889215D01*
X175450952Y-130841596D01*
X176022381Y-130270167D01*
X176022381Y-130889215D01*
M02*
