G04 #@! TF.FileFunction,Soldermask,Top*
%FSLAX46Y46*%
G04 Gerber Fmt 4.6, Leading zero omitted, Abs format (unit mm)*
G04 Created by KiCad (PCBNEW 4.0.2-stable) date 4/20/2016 11:19:16 PM*
%MOMM*%
G01*
G04 APERTURE LIST*
%ADD10C,0.100000*%
%ADD11O,1.924000X2.940000*%
%ADD12C,4.337000*%
%ADD13C,1.924000*%
%ADD14C,2.940000*%
%ADD15R,3.999180X2.000200*%
%ADD16R,3.956000X6.400000*%
%ADD17R,2.000200X3.999180*%
%ADD18R,2.432000X2.432000*%
%ADD19C,2.432000*%
%ADD20R,1.924000X1.924000*%
%ADD21R,1.620000X1.310000*%
%ADD22R,1.700000X1.100000*%
%ADD23R,4.057600X2.432000*%
%ADD24R,1.416000X2.432000*%
%ADD25R,1.100000X1.700000*%
%ADD26R,1.900000X1.700000*%
%ADD27R,2.432000X2.127200*%
%ADD28O,2.432000X2.127200*%
%ADD29R,2.127200X2.432000*%
%ADD30O,2.127200X2.432000*%
%ADD31R,1.700000X1.900000*%
%ADD32R,5.000000X1.500000*%
%ADD33R,9.800000X11.200000*%
%ADD34R,1.790000X5.000000*%
%ADD35R,11.200000X9.800000*%
%ADD36R,2.200860X3.900120*%
%ADD37R,2.400000X2.000000*%
%ADD38R,3.900120X2.200860*%
%ADD39R,1.997660X2.200860*%
%ADD40R,2.200860X1.997660*%
%ADD41C,2.400000*%
%ADD42C,2.900000*%
%ADD43R,2.127200X2.127200*%
%ADD44O,2.127200X2.127200*%
%ADD45O,1.670000X2.178000*%
%ADD46R,1.670000X2.178000*%
%ADD47R,2.051000X3.448000*%
%ADD48R,6.496000X6.496000*%
%ADD49R,2.200860X1.200100*%
%ADD50R,1.200100X2.200860*%
%ADD51R,1.700000X1.700000*%
%ADD52C,1.700000*%
%ADD53C,2.178000*%
%ADD54R,2.178000X2.178000*%
%ADD55O,2.432000X2.432000*%
%ADD56R,1.900000X1.650000*%
%ADD57R,2.051000X2.051000*%
%ADD58C,2.051000*%
%ADD59R,1.670000X1.797000*%
%ADD60C,1.670000*%
%ADD61C,0.254000*%
G04 APERTURE END LIST*
D10*
D11*
X148082000Y-124460000D03*
X145542000Y-124460000D03*
X143002000Y-124460000D03*
X140462000Y-124460000D03*
X137922000Y-124460000D03*
X135382000Y-124460000D03*
X132842000Y-124460000D03*
X130302000Y-124460000D03*
X125222000Y-76200000D03*
X127762000Y-76200000D03*
X130302000Y-76200000D03*
X132842000Y-76200000D03*
X143002000Y-76200000D03*
X148082000Y-76200000D03*
X150622000Y-76200000D03*
X140462000Y-76200000D03*
X137922000Y-76200000D03*
X135382000Y-76200000D03*
X153162000Y-76200000D03*
X155702000Y-76200000D03*
X158242000Y-76200000D03*
X165862000Y-76200000D03*
X163322000Y-76200000D03*
X160782000Y-76200000D03*
X170942000Y-76200000D03*
X173482000Y-76200000D03*
X176022000Y-76200000D03*
X181102000Y-76200000D03*
X183642000Y-76200000D03*
X153162000Y-124460000D03*
X155702000Y-124460000D03*
X158242000Y-124460000D03*
X160782000Y-124460000D03*
X163322000Y-124460000D03*
X165862000Y-124460000D03*
X168402000Y-124460000D03*
X170942000Y-124460000D03*
X175006000Y-124460000D03*
X177546000Y-124460000D03*
X180086000Y-124460000D03*
X182626000Y-124460000D03*
X185166000Y-124460000D03*
X187706000Y-124460000D03*
X190246000Y-124460000D03*
X192786000Y-124460000D03*
X178562000Y-76200000D03*
D12*
X120142000Y-76200000D03*
X126492000Y-124460000D03*
X201422000Y-124460000D03*
X202692000Y-76200000D03*
D13*
X122682000Y-121920000D03*
X120142000Y-121920000D03*
X122682000Y-119380000D03*
X120142000Y-119380000D03*
X122682000Y-116840000D03*
X120142000Y-116840000D03*
X122682000Y-114300000D03*
X120142000Y-114300000D03*
X122682000Y-124460000D03*
X120142000Y-124460000D03*
X120142000Y-111760000D03*
X122682000Y-111760000D03*
X122682000Y-109220000D03*
X120142000Y-109220000D03*
X122682000Y-106680000D03*
X120142000Y-106680000D03*
X122682000Y-104140000D03*
X120142000Y-104140000D03*
X122682000Y-101600000D03*
X120142000Y-101600000D03*
X122682000Y-99060000D03*
X120142000Y-99060000D03*
X122682000Y-96520000D03*
X120142000Y-96520000D03*
X122682000Y-93980000D03*
X120142000Y-93980000D03*
X122682000Y-91440000D03*
X120142000Y-91440000D03*
X122682000Y-88900000D03*
X120142000Y-88900000D03*
X122682000Y-86360000D03*
X120142000Y-86360000D03*
X122682000Y-83820000D03*
X120142000Y-83820000D03*
X122682000Y-81280000D03*
X120142000Y-81280000D03*
D14*
X174671091Y-83705444D03*
X174671091Y-88785444D03*
D15*
X191980820Y-102108000D03*
X186479180Y-102108000D03*
D16*
X196881500Y-116443000D03*
X187381500Y-116443000D03*
D17*
X129311400Y-99230180D03*
X129311400Y-104731820D03*
D18*
X202514200Y-134162800D03*
D19*
X198704200Y-134162800D03*
X191084200Y-134162800D03*
X187274200Y-134162800D03*
D20*
X170370500Y-58166000D03*
D13*
X167830500Y-58166000D03*
X165290500Y-58166000D03*
X162750500Y-58166000D03*
X160210500Y-58166000D03*
X157670500Y-58166000D03*
D20*
X155130500Y-58166000D03*
D13*
X152590500Y-58166000D03*
X152590500Y-70866000D03*
X155130500Y-70866000D03*
X157670500Y-70866000D03*
X160210500Y-70866000D03*
X162750500Y-70866000D03*
X165290500Y-70866000D03*
X167830500Y-70866000D03*
X170370500Y-70866000D03*
D20*
X211010500Y-58166000D03*
D13*
X208470500Y-58166000D03*
X205930500Y-58166000D03*
X203390500Y-58166000D03*
X200850500Y-58166000D03*
X198310500Y-58166000D03*
D20*
X195770500Y-58166000D03*
D13*
X193230500Y-58166000D03*
X193230500Y-70866000D03*
X195770500Y-70866000D03*
X198310500Y-70866000D03*
X200850500Y-70866000D03*
X203390500Y-70866000D03*
X205930500Y-70866000D03*
X208470500Y-70866000D03*
X211010500Y-70866000D03*
D21*
X155829000Y-115840000D03*
X155829000Y-119110000D03*
D14*
X205257400Y-82677000D03*
X210337400Y-82677000D03*
X205232000Y-88392000D03*
X210312000Y-88392000D03*
X205232000Y-94234000D03*
X210312000Y-94234000D03*
D20*
X129730500Y-58166000D03*
D13*
X127190500Y-58166000D03*
X124650500Y-58166000D03*
X122110500Y-58166000D03*
X119570500Y-58166000D03*
X117030500Y-58166000D03*
D20*
X114490500Y-58166000D03*
D13*
X111950500Y-58166000D03*
X111950500Y-70866000D03*
X114490500Y-70866000D03*
X117030500Y-70866000D03*
X119570500Y-70866000D03*
X122110500Y-70866000D03*
X124650500Y-70866000D03*
X127190500Y-70866000D03*
X129730500Y-70866000D03*
D14*
X180513090Y-83705444D03*
X180513090Y-88785444D03*
D22*
X138684000Y-81727000D03*
X138684000Y-83627000D03*
X136271000Y-81727000D03*
X136271000Y-83627000D03*
X141351000Y-81727000D03*
X141351000Y-83627000D03*
D20*
X150050500Y-58166000D03*
D13*
X147510500Y-58166000D03*
X144970500Y-58166000D03*
X142430500Y-58166000D03*
X139890500Y-58166000D03*
X137350500Y-58166000D03*
D20*
X134810500Y-58166000D03*
D13*
X132270500Y-58166000D03*
X132270500Y-70866000D03*
X134810500Y-70866000D03*
X137350500Y-70866000D03*
X139890500Y-70866000D03*
X142430500Y-70866000D03*
X144970500Y-70866000D03*
X147510500Y-70866000D03*
X150050500Y-70866000D03*
D20*
X190690500Y-58166000D03*
D13*
X188150500Y-58166000D03*
X185610500Y-58166000D03*
X183070500Y-58166000D03*
X180530500Y-58166000D03*
X177990500Y-58166000D03*
D20*
X175450500Y-58166000D03*
D13*
X172910500Y-58166000D03*
X172910500Y-70866000D03*
X175450500Y-70866000D03*
X177990500Y-70866000D03*
X180530500Y-70866000D03*
X183070500Y-70866000D03*
X185610500Y-70866000D03*
X188150500Y-70866000D03*
X190690500Y-70866000D03*
D17*
X190500000Y-62019180D03*
X190500000Y-67520820D03*
X170180000Y-62273180D03*
X170180000Y-67774820D03*
X149860000Y-61765180D03*
X149860000Y-67266820D03*
X129540000Y-61765180D03*
X129540000Y-67266820D03*
X109220000Y-61765180D03*
X109220000Y-67266820D03*
D23*
X165481000Y-92710000D03*
D24*
X165481000Y-99314000D03*
X167767000Y-99314000D03*
X163195000Y-99314000D03*
D25*
X187137000Y-76263500D03*
X189037000Y-76263500D03*
D22*
X133731000Y-81727000D03*
X133731000Y-83627000D03*
D26*
X177783500Y-109855000D03*
X180483500Y-109855000D03*
X175086000Y-109855000D03*
X172386000Y-109855000D03*
D14*
X205232000Y-100076000D03*
X210312000Y-100076000D03*
D27*
X135001000Y-136906000D03*
D28*
X135001000Y-134366000D03*
X135001000Y-131826000D03*
X135001000Y-129286000D03*
D29*
X205930500Y-54102000D03*
D30*
X203390500Y-54102000D03*
X200850500Y-54102000D03*
X198310500Y-54102000D03*
D29*
X185610500Y-54102000D03*
D30*
X183070500Y-54102000D03*
X180530500Y-54102000D03*
X177990500Y-54102000D03*
D29*
X165303200Y-51562000D03*
D30*
X162763200Y-51562000D03*
X160223200Y-51562000D03*
X157683200Y-51562000D03*
D29*
X165303200Y-54102000D03*
D30*
X162763200Y-54102000D03*
X160223200Y-54102000D03*
X157683200Y-54102000D03*
D29*
X144970500Y-54102000D03*
D30*
X142430500Y-54102000D03*
X139890500Y-54102000D03*
X137350500Y-54102000D03*
D29*
X124650500Y-54102000D03*
D30*
X122110500Y-54102000D03*
X119570500Y-54102000D03*
X117030500Y-54102000D03*
D14*
X167386000Y-88773000D03*
X167386000Y-83693000D03*
X161544000Y-88773000D03*
X161544000Y-83693000D03*
D31*
X185547000Y-86973400D03*
X185547000Y-84273400D03*
X154813000Y-65579000D03*
X154813000Y-68279000D03*
X195326000Y-65325000D03*
X195326000Y-68025000D03*
X175133000Y-65579000D03*
X175133000Y-68279000D03*
X134493000Y-65579000D03*
X134493000Y-68279000D03*
X114173000Y-65579000D03*
X114173000Y-68279000D03*
D32*
X203073000Y-115096500D03*
X203073000Y-113396500D03*
X203073000Y-109996500D03*
D33*
X212223000Y-111696500D03*
D32*
X203073000Y-111696500D03*
X203073000Y-108296500D03*
D34*
X177673000Y-105797000D03*
D35*
X177673000Y-96647000D03*
D34*
X180213000Y-105797000D03*
X175133000Y-105797000D03*
D36*
X192278000Y-96098360D03*
X192278000Y-91099640D03*
D37*
X201644500Y-104648000D03*
X205644500Y-104648000D03*
D38*
X194586860Y-108077000D03*
X189588140Y-108077000D03*
D26*
X202231000Y-118618000D03*
X204931000Y-118618000D03*
X207692000Y-119761000D03*
X210392000Y-119761000D03*
D23*
X152400000Y-92710000D03*
D24*
X152400000Y-99314000D03*
X154686000Y-99314000D03*
X150114000Y-99314000D03*
D39*
X191302640Y-76454000D03*
X194142360Y-76454000D03*
D40*
X185547000Y-82064860D03*
X185547000Y-79225140D03*
X161480500Y-110784640D03*
X161480500Y-113624360D03*
X160401000Y-95399860D03*
X160401000Y-92560140D03*
X147015200Y-95501460D03*
X147015200Y-92661740D03*
X149923500Y-110594140D03*
X149923500Y-113433860D03*
D36*
X186309000Y-90932000D03*
X186309000Y-95930720D03*
D41*
X216969600Y-65593600D03*
X216969600Y-61093600D03*
D42*
X214469600Y-66843600D03*
X214469600Y-59843600D03*
D21*
X157353000Y-92345000D03*
X157353000Y-95615000D03*
X167322500Y-115967000D03*
X167322500Y-119237000D03*
X170434000Y-92345000D03*
X170434000Y-95615000D03*
D14*
X154432000Y-83693000D03*
X154432000Y-88773000D03*
X148463000Y-88773000D03*
X148463000Y-83693000D03*
D43*
X141351000Y-86487000D03*
D44*
X141351000Y-89027000D03*
X138811000Y-86487000D03*
X138811000Y-89027000D03*
X136271000Y-86487000D03*
X136271000Y-89027000D03*
X133731000Y-86487000D03*
X133731000Y-89027000D03*
D43*
X141605000Y-111760000D03*
D44*
X141605000Y-114300000D03*
X139065000Y-111760000D03*
X139065000Y-114300000D03*
X136525000Y-111760000D03*
X136525000Y-114300000D03*
X133985000Y-111760000D03*
X133985000Y-114300000D03*
X131445000Y-111760000D03*
X131445000Y-114300000D03*
X128905000Y-111760000D03*
X128905000Y-114300000D03*
D29*
X141605000Y-109220000D03*
D30*
X139065000Y-109220000D03*
X136525000Y-109220000D03*
X133985000Y-109220000D03*
X131445000Y-109220000D03*
X128905000Y-109220000D03*
D27*
X163449000Y-136906000D03*
D28*
X163449000Y-134366000D03*
X163449000Y-131826000D03*
D27*
X167259000Y-136906000D03*
D28*
X167259000Y-134366000D03*
X167259000Y-131826000D03*
D27*
X171069000Y-136906000D03*
D28*
X171069000Y-134366000D03*
X171069000Y-131826000D03*
D27*
X154559000Y-136906000D03*
D28*
X154559000Y-134366000D03*
X154559000Y-131826000D03*
X154559000Y-129286000D03*
D27*
X150622000Y-136842500D03*
D28*
X150622000Y-134302500D03*
X150622000Y-131762500D03*
X150622000Y-129222500D03*
D14*
X208965800Y-128092200D03*
X214045800Y-128092200D03*
X208991200Y-133883400D03*
X214071200Y-133883400D03*
D26*
X178736000Y-130937000D03*
X181436000Y-130937000D03*
D31*
X176530000Y-129587000D03*
X176530000Y-132287000D03*
D39*
X184381140Y-138430000D03*
X187220860Y-138430000D03*
D19*
X201168000Y-98552000D03*
X196088000Y-98552000D03*
X198628000Y-96012000D03*
X198628000Y-101092000D03*
X201295000Y-82423000D03*
X196215000Y-82423000D03*
X198755000Y-79883000D03*
X198755000Y-84963000D03*
D45*
X203479400Y-68351400D03*
D46*
X203479400Y-60731400D03*
D45*
X200939400Y-68351400D03*
X200939400Y-60731400D03*
X198399400Y-68351400D03*
X198399400Y-60731400D03*
X183286400Y-68376800D03*
D46*
X183286400Y-60756800D03*
D45*
X180746400Y-68376800D03*
X180746400Y-60756800D03*
X178206400Y-68376800D03*
X178206400Y-60756800D03*
X163195000Y-68326000D03*
D46*
X163195000Y-60706000D03*
D45*
X160655000Y-68326000D03*
X160655000Y-60706000D03*
X158115000Y-68326000D03*
X158115000Y-60706000D03*
X142392400Y-68376800D03*
D46*
X142392400Y-60756800D03*
D45*
X139852400Y-68376800D03*
X139852400Y-60756800D03*
X137312400Y-68376800D03*
X137312400Y-60756800D03*
X122097800Y-68427600D03*
D46*
X122097800Y-60807600D03*
D45*
X119557800Y-68427600D03*
X119557800Y-60807600D03*
X117017800Y-68427600D03*
X117017800Y-60807600D03*
D47*
X139369800Y-96520000D03*
D48*
X137083800Y-102870000D03*
D47*
X134797800Y-96520000D03*
D12*
X107696000Y-50800000D03*
X216281000Y-50800000D03*
X107696000Y-139700000D03*
X216281000Y-139700000D03*
D49*
X161693860Y-116652000D03*
X161693860Y-118552000D03*
X164696140Y-117602000D03*
D50*
X179517000Y-136502140D03*
X181417000Y-136502140D03*
X180467000Y-133499860D03*
D49*
X149882860Y-116398000D03*
X149882860Y-118298000D03*
X152885140Y-117348000D03*
D51*
X179006500Y-114046000D03*
D52*
X179006500Y-119046000D03*
D53*
X143126460Y-95185980D03*
D54*
X143126460Y-105345980D03*
D43*
X167322500Y-113284000D03*
D44*
X164782500Y-113284000D03*
X167322500Y-110744000D03*
X164782500Y-110744000D03*
D43*
X155765500Y-113220500D03*
D44*
X153225500Y-113220500D03*
X155765500Y-110680500D03*
X153225500Y-110680500D03*
D18*
X185356500Y-110490000D03*
D55*
X185356500Y-107950000D03*
D56*
X202331000Y-120904000D03*
X204831000Y-120904000D03*
D31*
X157924500Y-131271000D03*
X157924500Y-128571000D03*
X157924500Y-133651000D03*
X157924500Y-136351000D03*
D26*
X143844000Y-128333500D03*
X141144000Y-128333500D03*
X143844000Y-130810000D03*
X141144000Y-130810000D03*
D43*
X107721400Y-122834400D03*
D44*
X110261400Y-122834400D03*
X107721400Y-125374400D03*
X110261400Y-125374400D03*
X107721400Y-127914400D03*
X110261400Y-127914400D03*
X107721400Y-130454400D03*
X110261400Y-130454400D03*
X107721400Y-132994400D03*
X110261400Y-132994400D03*
X107721400Y-135534400D03*
X110261400Y-135534400D03*
D57*
X122286600Y-135162800D03*
D58*
X124786600Y-135162800D03*
D59*
X122232600Y-129727200D03*
D60*
X124232600Y-129727200D03*
D43*
X111633000Y-112522000D03*
D44*
X109093000Y-112522000D03*
X111633000Y-109982000D03*
X109093000Y-109982000D03*
X111633000Y-107442000D03*
X109093000Y-107442000D03*
X111633000Y-104902000D03*
X109093000Y-104902000D03*
X111633000Y-102362000D03*
X109093000Y-102362000D03*
D43*
X111760000Y-91313000D03*
D44*
X109220000Y-91313000D03*
X111760000Y-88773000D03*
X109220000Y-88773000D03*
X111760000Y-86233000D03*
X109220000Y-86233000D03*
X111760000Y-83693000D03*
X109220000Y-83693000D03*
X111760000Y-81153000D03*
X109220000Y-81153000D03*
D61*
G36*
X202209400Y-85852000D02*
X195300600Y-85852000D01*
X195300600Y-78994000D01*
X202209400Y-78994000D01*
X202209400Y-85852000D01*
X202209400Y-85852000D01*
G37*
X202209400Y-85852000D02*
X195300600Y-85852000D01*
X195300600Y-78994000D01*
X202209400Y-78994000D01*
X202209400Y-85852000D01*
G36*
X202107800Y-101981000D02*
X195148200Y-101981000D01*
X195148200Y-95097600D01*
X202107800Y-95097600D01*
X202107800Y-101981000D01*
X202107800Y-101981000D01*
G37*
X202107800Y-101981000D02*
X195148200Y-101981000D01*
X195148200Y-95097600D01*
X202107800Y-95097600D01*
X202107800Y-101981000D01*
M02*
