G04 #@! TF.FileFunction,Soldermask,Bot*
%FSLAX46Y46*%
G04 Gerber Fmt 4.6, Leading zero omitted, Abs format (unit mm)*
G04 Created by KiCad (PCBNEW 4.0.2-stable) date 5/17/2016 9:00:01 PM*
%MOMM*%
G01*
G04 APERTURE LIST*
%ADD10C,0.100000*%
%ADD11O,1.924000X2.940000*%
%ADD12C,4.337000*%
%ADD13C,1.924000*%
%ADD14C,2.940000*%
%ADD15R,1.416000X1.300000*%
%ADD16R,2.432000X2.432000*%
%ADD17C,2.432000*%
%ADD18R,1.924000X1.924000*%
%ADD19R,2.432000X2.127200*%
%ADD20O,2.432000X2.127200*%
%ADD21R,2.127200X2.432000*%
%ADD22O,2.127200X2.432000*%
%ADD23C,2.400000*%
%ADD24C,2.900000*%
%ADD25R,2.127200X2.127200*%
%ADD26O,2.127200X2.127200*%
%ADD27O,1.670000X2.178000*%
%ADD28R,1.670000X2.178000*%
%ADD29R,1.300000X1.416000*%
%ADD30R,1.700000X1.700000*%
%ADD31C,1.700000*%
%ADD32C,2.178000*%
%ADD33R,2.178000X2.178000*%
%ADD34O,2.432000X2.432000*%
%ADD35R,2.051000X2.051000*%
%ADD36C,2.051000*%
%ADD37R,1.670000X1.797000*%
%ADD38C,1.670000*%
%ADD39R,2.686000X1.416000*%
%ADD40R,1.900000X1.650000*%
%ADD41R,1.460000X1.050000*%
%ADD42C,0.254000*%
G04 APERTURE END LIST*
D10*
D11*
X148082000Y-124460000D03*
X145542000Y-124460000D03*
X143002000Y-124460000D03*
X140462000Y-124460000D03*
X137922000Y-124460000D03*
X135382000Y-124460000D03*
X132842000Y-124460000D03*
X130302000Y-124460000D03*
X125222000Y-76200000D03*
X127762000Y-76200000D03*
X130302000Y-76200000D03*
X132842000Y-76200000D03*
X143002000Y-76200000D03*
X148082000Y-76200000D03*
X150622000Y-76200000D03*
X140462000Y-76200000D03*
X137922000Y-76200000D03*
X135382000Y-76200000D03*
X153162000Y-76200000D03*
X155702000Y-76200000D03*
X158242000Y-76200000D03*
X165862000Y-76200000D03*
X163322000Y-76200000D03*
X160782000Y-76200000D03*
X170942000Y-76200000D03*
X173482000Y-76200000D03*
X176022000Y-76200000D03*
X181102000Y-76200000D03*
X183642000Y-76200000D03*
X153162000Y-124460000D03*
X155702000Y-124460000D03*
X158242000Y-124460000D03*
X160782000Y-124460000D03*
X163322000Y-124460000D03*
X165862000Y-124460000D03*
X168402000Y-124460000D03*
X170942000Y-124460000D03*
X175006000Y-124460000D03*
X177546000Y-124460000D03*
X180086000Y-124460000D03*
X182626000Y-124460000D03*
X185166000Y-124460000D03*
X187706000Y-124460000D03*
X190246000Y-124460000D03*
X192786000Y-124460000D03*
X178562000Y-76200000D03*
D12*
X120142000Y-76200000D03*
X126492000Y-124460000D03*
X201422000Y-124460000D03*
X202692000Y-76200000D03*
D13*
X122682000Y-121920000D03*
X120142000Y-121920000D03*
X122682000Y-119380000D03*
X120142000Y-119380000D03*
X122682000Y-116840000D03*
X120142000Y-116840000D03*
X122682000Y-114300000D03*
X120142000Y-114300000D03*
X122682000Y-124460000D03*
X120142000Y-124460000D03*
X120142000Y-111760000D03*
X122682000Y-111760000D03*
X122682000Y-109220000D03*
X120142000Y-109220000D03*
X122682000Y-106680000D03*
X120142000Y-106680000D03*
X122682000Y-104140000D03*
X120142000Y-104140000D03*
X122682000Y-101600000D03*
X120142000Y-101600000D03*
X122682000Y-99060000D03*
X120142000Y-99060000D03*
X122682000Y-96520000D03*
X120142000Y-96520000D03*
X122682000Y-93980000D03*
X120142000Y-93980000D03*
X122682000Y-91440000D03*
X120142000Y-91440000D03*
X122682000Y-88900000D03*
X120142000Y-88900000D03*
X122682000Y-86360000D03*
X120142000Y-86360000D03*
X122682000Y-83820000D03*
X120142000Y-83820000D03*
X122682000Y-81280000D03*
X120142000Y-81280000D03*
D14*
X174671091Y-83705444D03*
X174671091Y-88785444D03*
D15*
X158140400Y-106578400D03*
X158140400Y-102768400D03*
X158140400Y-105308400D03*
X158140400Y-104038400D03*
X161391600Y-105308400D03*
X161391600Y-106578400D03*
X161391600Y-102768400D03*
X161391600Y-104038400D03*
D16*
X202514200Y-134162800D03*
D17*
X198704200Y-134162800D03*
X191084200Y-134162800D03*
X187274200Y-134162800D03*
D18*
X170370500Y-58166000D03*
D13*
X167830500Y-58166000D03*
X165290500Y-58166000D03*
X162750500Y-58166000D03*
X160210500Y-58166000D03*
X157670500Y-58166000D03*
D18*
X155130500Y-58166000D03*
D13*
X152590500Y-58166000D03*
X152590500Y-70866000D03*
X155130500Y-70866000D03*
X157670500Y-70866000D03*
X160210500Y-70866000D03*
X162750500Y-70866000D03*
X165290500Y-70866000D03*
X167830500Y-70866000D03*
X170370500Y-70866000D03*
D18*
X211010500Y-58166000D03*
D13*
X208470500Y-58166000D03*
X205930500Y-58166000D03*
X203390500Y-58166000D03*
X200850500Y-58166000D03*
X198310500Y-58166000D03*
D18*
X195770500Y-58166000D03*
D13*
X193230500Y-58166000D03*
X193230500Y-70866000D03*
X195770500Y-70866000D03*
X198310500Y-70866000D03*
X200850500Y-70866000D03*
X203390500Y-70866000D03*
X205930500Y-70866000D03*
X208470500Y-70866000D03*
X211010500Y-70866000D03*
D14*
X205257400Y-82677000D03*
X210337400Y-82677000D03*
X205232000Y-88392000D03*
X210312000Y-88392000D03*
X205232000Y-94234000D03*
X210312000Y-94234000D03*
D18*
X129730500Y-58166000D03*
D13*
X127190500Y-58166000D03*
X124650500Y-58166000D03*
X122110500Y-58166000D03*
X119570500Y-58166000D03*
X117030500Y-58166000D03*
D18*
X114490500Y-58166000D03*
D13*
X111950500Y-58166000D03*
X111950500Y-70866000D03*
X114490500Y-70866000D03*
X117030500Y-70866000D03*
X119570500Y-70866000D03*
X122110500Y-70866000D03*
X124650500Y-70866000D03*
X127190500Y-70866000D03*
X129730500Y-70866000D03*
D14*
X180513090Y-83705444D03*
X180513090Y-88785444D03*
D18*
X150050500Y-58166000D03*
D13*
X147510500Y-58166000D03*
X144970500Y-58166000D03*
X142430500Y-58166000D03*
X139890500Y-58166000D03*
X137350500Y-58166000D03*
D18*
X134810500Y-58166000D03*
D13*
X132270500Y-58166000D03*
X132270500Y-70866000D03*
X134810500Y-70866000D03*
X137350500Y-70866000D03*
X139890500Y-70866000D03*
X142430500Y-70866000D03*
X144970500Y-70866000D03*
X147510500Y-70866000D03*
X150050500Y-70866000D03*
D18*
X190690500Y-58166000D03*
D13*
X188150500Y-58166000D03*
X185610500Y-58166000D03*
X183070500Y-58166000D03*
X180530500Y-58166000D03*
X177990500Y-58166000D03*
D18*
X175450500Y-58166000D03*
D13*
X172910500Y-58166000D03*
X172910500Y-70866000D03*
X175450500Y-70866000D03*
X177990500Y-70866000D03*
X180530500Y-70866000D03*
X183070500Y-70866000D03*
X185610500Y-70866000D03*
X188150500Y-70866000D03*
X190690500Y-70866000D03*
D14*
X205232000Y-100076000D03*
X210312000Y-100076000D03*
D19*
X135001000Y-136906000D03*
D20*
X135001000Y-134366000D03*
X135001000Y-131826000D03*
X135001000Y-129286000D03*
D21*
X205930500Y-54102000D03*
D22*
X203390500Y-54102000D03*
X200850500Y-54102000D03*
X198310500Y-54102000D03*
D21*
X185610500Y-54102000D03*
D22*
X183070500Y-54102000D03*
X180530500Y-54102000D03*
X177990500Y-54102000D03*
D21*
X165303200Y-51562000D03*
D22*
X162763200Y-51562000D03*
X160223200Y-51562000D03*
X157683200Y-51562000D03*
D21*
X165303200Y-54102000D03*
D22*
X162763200Y-54102000D03*
X160223200Y-54102000D03*
X157683200Y-54102000D03*
D21*
X144970500Y-54102000D03*
D22*
X142430500Y-54102000D03*
X139890500Y-54102000D03*
X137350500Y-54102000D03*
D21*
X124650500Y-54102000D03*
D22*
X122110500Y-54102000D03*
X119570500Y-54102000D03*
X117030500Y-54102000D03*
D14*
X167386000Y-88773000D03*
X167386000Y-83693000D03*
X161544000Y-88773000D03*
X161544000Y-83693000D03*
D23*
X216969600Y-65593600D03*
X216969600Y-61093600D03*
D24*
X214469600Y-66843600D03*
X214469600Y-59843600D03*
D14*
X154432000Y-83693000D03*
X154432000Y-88773000D03*
X148463000Y-88773000D03*
X148463000Y-83693000D03*
D25*
X141351000Y-87071200D03*
D26*
X141351000Y-89611200D03*
X138811000Y-87071200D03*
X138811000Y-89611200D03*
X136271000Y-87071200D03*
X136271000Y-89611200D03*
X133731000Y-87071200D03*
X133731000Y-89611200D03*
D25*
X141605000Y-111760000D03*
D26*
X141605000Y-114300000D03*
X139065000Y-111760000D03*
X139065000Y-114300000D03*
X136525000Y-111760000D03*
X136525000Y-114300000D03*
X133985000Y-111760000D03*
X133985000Y-114300000D03*
X131445000Y-111760000D03*
X131445000Y-114300000D03*
X128905000Y-111760000D03*
X128905000Y-114300000D03*
D21*
X141605000Y-109220000D03*
D22*
X139065000Y-109220000D03*
X136525000Y-109220000D03*
X133985000Y-109220000D03*
X131445000Y-109220000D03*
X128905000Y-109220000D03*
D19*
X163449000Y-136906000D03*
D20*
X163449000Y-134366000D03*
X163449000Y-131826000D03*
D19*
X167259000Y-136906000D03*
D20*
X167259000Y-134366000D03*
X167259000Y-131826000D03*
D19*
X171069000Y-136906000D03*
D20*
X171069000Y-134366000D03*
X171069000Y-131826000D03*
D19*
X154559000Y-136906000D03*
D20*
X154559000Y-134366000D03*
X154559000Y-131826000D03*
X154559000Y-129286000D03*
D19*
X150622000Y-136842500D03*
D20*
X150622000Y-134302500D03*
X150622000Y-131762500D03*
X150622000Y-129222500D03*
D14*
X208965800Y-128092200D03*
X214045800Y-128092200D03*
X208991200Y-133883400D03*
X214071200Y-133883400D03*
D17*
X201168000Y-98552000D03*
X196088000Y-98552000D03*
X198628000Y-96012000D03*
X198628000Y-101092000D03*
X201295000Y-82423000D03*
X196215000Y-82423000D03*
X198755000Y-79883000D03*
X198755000Y-84963000D03*
D27*
X203479400Y-68351400D03*
D28*
X203479400Y-60731400D03*
D27*
X200939400Y-68351400D03*
X200939400Y-60731400D03*
X198399400Y-68351400D03*
X198399400Y-60731400D03*
X183286400Y-68376800D03*
D28*
X183286400Y-60756800D03*
D27*
X180746400Y-68376800D03*
X180746400Y-60756800D03*
X178206400Y-68376800D03*
X178206400Y-60756800D03*
X163195000Y-68326000D03*
D28*
X163195000Y-60706000D03*
D27*
X160655000Y-68326000D03*
X160655000Y-60706000D03*
X158115000Y-68326000D03*
X158115000Y-60706000D03*
X142392400Y-68376800D03*
D28*
X142392400Y-60756800D03*
D27*
X139852400Y-68376800D03*
X139852400Y-60756800D03*
X137312400Y-68376800D03*
X137312400Y-60756800D03*
X122097800Y-68427600D03*
D28*
X122097800Y-60807600D03*
D27*
X119557800Y-68427600D03*
X119557800Y-60807600D03*
X117017800Y-68427600D03*
X117017800Y-60807600D03*
D12*
X107696000Y-50800000D03*
X216281000Y-50800000D03*
X107696000Y-139700000D03*
X216281000Y-139700000D03*
D29*
X176301400Y-120053100D03*
X172491400Y-120053100D03*
X175031400Y-120053100D03*
X173761400Y-120053100D03*
X175031400Y-116801900D03*
X176301400Y-116801900D03*
X172491400Y-116801900D03*
X173761400Y-116801900D03*
D30*
X179006500Y-114046000D03*
D31*
X179006500Y-119046000D03*
D32*
X143126460Y-95185980D03*
D33*
X143126460Y-105345980D03*
D16*
X185356500Y-110490000D03*
D34*
X185356500Y-107950000D03*
D25*
X107721400Y-122834400D03*
D26*
X110261400Y-122834400D03*
X107721400Y-125374400D03*
X110261400Y-125374400D03*
X107721400Y-127914400D03*
X110261400Y-127914400D03*
X107721400Y-130454400D03*
X110261400Y-130454400D03*
X107721400Y-132994400D03*
X110261400Y-132994400D03*
X107721400Y-135534400D03*
X110261400Y-135534400D03*
D35*
X122286600Y-135162800D03*
D36*
X124786600Y-135162800D03*
D37*
X122232600Y-129727200D03*
D38*
X124232600Y-129727200D03*
D25*
X111633000Y-112522000D03*
D26*
X109093000Y-112522000D03*
X111633000Y-109982000D03*
X109093000Y-109982000D03*
X111633000Y-107442000D03*
X109093000Y-107442000D03*
X111633000Y-104902000D03*
X109093000Y-104902000D03*
X111633000Y-102362000D03*
X109093000Y-102362000D03*
D25*
X111760000Y-91313000D03*
D26*
X109220000Y-91313000D03*
X111760000Y-88773000D03*
X109220000Y-88773000D03*
X111760000Y-86233000D03*
X109220000Y-86233000D03*
X111760000Y-83693000D03*
X109220000Y-83693000D03*
X111760000Y-81153000D03*
X109220000Y-81153000D03*
D37*
X164676000Y-113090200D03*
D38*
X166676000Y-113090200D03*
D16*
X164414200Y-108280200D03*
D34*
X166954200Y-108280200D03*
D37*
X153550800Y-113064800D03*
D38*
X155550800Y-113064800D03*
D16*
X153263600Y-108280200D03*
D34*
X155803600Y-108280200D03*
D39*
X145846800Y-132537200D03*
X140030200Y-132562600D03*
X145846800Y-135077200D03*
X140030200Y-135102600D03*
X145846800Y-137617200D03*
X140030200Y-137642600D03*
X145846800Y-140157200D03*
X140030200Y-140182600D03*
D40*
X148889400Y-140157200D03*
X151389400Y-140157200D03*
D41*
X141876600Y-129728000D03*
X141876600Y-128778000D03*
X141876600Y-127828000D03*
X144076600Y-127828000D03*
X144076600Y-129728000D03*
D42*
G36*
X183210200Y-101473000D02*
X172085000Y-101473000D01*
X172085000Y-91795600D01*
X183210200Y-91795600D01*
X183210200Y-101473000D01*
X183210200Y-101473000D01*
G37*
X183210200Y-101473000D02*
X172085000Y-101473000D01*
X172085000Y-91795600D01*
X183210200Y-91795600D01*
X183210200Y-101473000D01*
M02*
