M48
;DRILL file {KiCad 4.0.2-stable} date 5/17/2016 9:00:05 PM
;FORMAT={-:-/ absolute / inch / decimal}
FMAT,2
INCH,TZ
T1C0.016
T2C0.031
T3C0.032
T4C0.039
T5C0.040
T6C0.050
T7C0.059
T8C0.060
T9C0.062
T10C0.125
%
G90
G05
M72
T1
X4.208Y-2.469
X4.235Y-2.65
X5.03Y-2.65
X5.155Y-4.123
X5.346Y-3.164
X5.347Y-4.05
X5.398Y-4.116
X5.405Y-5.264
X5.447Y-4.05
X5.4925Y-5.1275
X5.788Y-3.952
X5.824Y-2.648
X5.845Y-4.783
X5.9Y-4.7125
X6.15Y-3.91
X6.1725Y-4.1475
X6.232Y-3.709
X6.28Y-3.9025
X6.285Y-4.3475
X6.326Y-4.239
X6.34Y-3.87
X6.365Y-4.715
X6.4675Y-4.0975
X6.56Y-4.15
X6.6325Y-2.6675
X6.6625Y-3.91
X6.838Y-4.797
X6.877Y-3.913
X6.881Y-3.697
X6.89Y-4.5475
X6.95Y-4.54
X7.095Y-4.2775
X7.105Y-3.7
X7.1095Y-5.1815
X7.11Y-3.913
X7.179Y-4.13
X7.179Y-4.437
X7.435Y-2.66
X7.4625Y-4.3375
X7.636Y-3.752
X7.71Y-2.99
X7.995Y-4.5875
X8.128Y-2.932
X8.133Y-4.3975
X8.3575Y-4.395
T2
X7.0475Y-4.49
X7.0475Y-4.6869
T3
X4.4075Y-2.29
X4.4075Y-2.79
X4.5075Y-2.29
X4.5075Y-2.79
X4.607Y-2.394
X4.607Y-2.694
X4.6075Y-2.29
X4.6075Y-2.79
X4.707Y-2.394
X4.707Y-2.694
X4.7075Y-2.29
X4.7075Y-2.79
X4.73Y-3.2
X4.73Y-3.3
X4.73Y-3.4
X4.73Y-3.5
X4.73Y-3.6
X4.73Y-3.7
X4.73Y-3.8
X4.73Y-3.9
X4.73Y-4.
X4.73Y-4.1
X4.73Y-4.2
X4.73Y-4.3
X4.73Y-4.4
X4.73Y-4.5
X4.73Y-4.6
X4.73Y-4.7
X4.73Y-4.8
X4.73Y-4.9
X4.807Y-2.394
X4.807Y-2.694
X4.8075Y-2.29
X4.8075Y-2.79
X4.8123Y-5.1074
X4.8144Y-5.3214
X4.83Y-3.2
X4.83Y-3.3
X4.83Y-3.4
X4.83Y-3.5
X4.83Y-3.6
X4.83Y-3.7
X4.83Y-3.8
X4.83Y-3.9
X4.83Y-4.
X4.83Y-4.1
X4.83Y-4.2
X4.83Y-4.3
X4.83Y-4.4
X4.83Y-4.5
X4.83Y-4.6
X4.83Y-4.7
X4.83Y-4.8
X4.83Y-4.9
X4.891Y-5.1074
X4.9075Y-2.29
X4.9075Y-2.79
X4.9129Y-5.3214
X4.93Y-3.
X5.0075Y-2.29
X5.0075Y-2.79
X5.03Y-3.
X5.1075Y-2.29
X5.1075Y-2.79
X5.13Y-3.
X5.13Y-4.9
X5.2075Y-2.29
X5.2075Y-2.79
X5.23Y-3.
X5.23Y-4.9
X5.3075Y-2.29
X5.3075Y-2.79
X5.33Y-3.
X5.33Y-4.9
X5.406Y-2.392
X5.406Y-2.692
X5.4075Y-2.29
X5.4075Y-2.79
X5.43Y-3.
X5.43Y-4.9
X5.506Y-2.392
X5.506Y-2.692
X5.5075Y-2.29
X5.5075Y-2.79
X5.53Y-3.
X5.53Y-4.9
X5.606Y-2.392
X5.606Y-2.692
X5.6075Y-2.29
X5.6075Y-2.79
X5.63Y-3.
X5.63Y-4.9
X5.7075Y-2.29
X5.7075Y-2.79
X5.73Y-4.9
X5.8075Y-2.29
X5.8075Y-2.79
X5.83Y-3.
X5.83Y-4.9
X5.9075Y-2.29
X5.9075Y-2.79
X5.93Y-3.
X6.0075Y-2.29
X6.0075Y-2.79
X6.03Y-3.
X6.03Y-4.9
X6.0453Y-4.4514
X6.1075Y-2.29
X6.1075Y-2.79
X6.124Y-4.4514
X6.13Y-3.
X6.13Y-4.9
X6.2075Y-2.29
X6.2075Y-2.79
X6.225Y-2.39
X6.225Y-2.69
X6.23Y-3.
X6.23Y-4.9
X6.3075Y-2.29
X6.3075Y-2.79
X6.325Y-2.39
X6.325Y-2.69
X6.33Y-3.
X6.33Y-4.9
X6.4075Y-2.29
X6.4075Y-2.79
X6.425Y-2.39
X6.425Y-2.69
X6.43Y-3.
X6.43Y-4.9
X6.4833Y-4.4524
X6.5075Y-2.29
X6.5075Y-2.79
X6.53Y-3.
X6.53Y-4.9
X6.562Y-4.4524
X6.6075Y-2.29
X6.6075Y-2.79
X6.63Y-4.9
X6.7075Y-2.29
X6.7075Y-2.79
X6.73Y-3.
X6.73Y-4.9
X6.8075Y-2.29
X6.8075Y-2.79
X6.83Y-3.
X6.89Y-4.9
X6.9075Y-2.29
X6.9075Y-2.79
X6.93Y-3.
X6.99Y-4.9
X7.0075Y-2.29
X7.0075Y-2.79
X7.016Y-2.392
X7.016Y-2.692
X7.03Y-3.
X7.09Y-4.9
X7.1075Y-2.29
X7.1075Y-2.79
X7.116Y-2.392
X7.116Y-2.692
X7.13Y-3.
X7.19Y-4.9
X7.2075Y-2.29
X7.2075Y-2.79
X7.216Y-2.392
X7.216Y-2.692
X7.23Y-3.
X7.29Y-4.9
X7.3075Y-2.29
X7.3075Y-2.79
X7.39Y-4.9
X7.4075Y-2.29
X7.4075Y-2.79
X7.49Y-4.9
X7.5075Y-2.29
X7.5075Y-2.79
X7.59Y-4.9
X7.6075Y-2.29
X7.6075Y-2.79
X7.7075Y-2.29
X7.7075Y-2.79
X7.8075Y-2.29
X7.8075Y-2.79
X7.811Y-2.391
X7.811Y-2.691
X7.9075Y-2.29
X7.9075Y-2.79
X7.911Y-2.391
X7.911Y-2.691
X8.0075Y-2.29
X8.0075Y-2.79
X8.011Y-2.391
X8.011Y-2.691
X8.1075Y-2.29
X8.1075Y-2.79
X8.2075Y-2.29
X8.2075Y-2.79
X8.3075Y-2.29
X8.3075Y-2.79
T4
X8.5421Y-2.4053
X8.5421Y-2.5824
T5
X4.241Y-4.836
X4.241Y-4.936
X4.241Y-5.036
X4.241Y-5.136
X4.241Y-5.236
X4.241Y-5.336
X4.295Y-4.03
X4.295Y-4.13
X4.295Y-4.23
X4.295Y-4.33
X4.295Y-4.43
X4.3Y-3.195
X4.3Y-3.295
X4.3Y-3.395
X4.3Y-3.495
X4.3Y-3.595
X4.341Y-4.836
X4.341Y-4.936
X4.341Y-5.036
X4.341Y-5.136
X4.341Y-5.236
X4.341Y-5.336
X4.395Y-4.03
X4.395Y-4.13
X4.395Y-4.23
X4.395Y-4.33
X4.395Y-4.43
X4.4Y-3.195
X4.4Y-3.295
X4.4Y-3.395
X4.4Y-3.495
X4.4Y-3.595
X4.6075Y-2.13
X4.7075Y-2.13
X4.8075Y-2.13
X4.9075Y-2.13
X5.075Y-4.3
X5.075Y-4.4
X5.075Y-4.5
X5.175Y-4.3
X5.175Y-4.4
X5.175Y-4.5
X5.265Y-3.428
X5.265Y-3.528
X5.275Y-4.3
X5.275Y-4.4
X5.275Y-4.5
X5.315Y-5.09
X5.315Y-5.19
X5.315Y-5.29
X5.315Y-5.39
X5.365Y-3.428
X5.365Y-3.528
X5.375Y-4.3
X5.375Y-4.4
X5.375Y-4.5
X5.4075Y-2.13
X5.465Y-3.428
X5.465Y-3.528
X5.475Y-4.3
X5.475Y-4.4
X5.475Y-4.5
X5.5075Y-2.13
X5.565Y-3.428
X5.565Y-3.528
X5.575Y-4.3
X5.575Y-4.4
X5.575Y-4.5
X5.6075Y-2.13
X5.7075Y-2.13
X5.93Y-5.0875
X5.93Y-5.1875
X5.93Y-5.2875
X5.93Y-5.3875
X6.034Y-4.263
X6.085Y-5.09
X6.085Y-5.19
X6.085Y-5.29
X6.085Y-5.39
X6.134Y-4.263
X6.208Y-2.03
X6.208Y-2.13
X6.308Y-2.03
X6.308Y-2.13
X6.408Y-2.03
X6.408Y-2.13
X6.435Y-5.19
X6.435Y-5.29
X6.435Y-5.39
X6.473Y-4.263
X6.508Y-2.03
X6.508Y-2.13
X6.573Y-4.263
X6.585Y-5.19
X6.585Y-5.29
X6.585Y-5.39
X6.735Y-5.19
X6.735Y-5.29
X6.735Y-5.39
X7.0075Y-2.13
X7.1075Y-2.13
X7.2075Y-2.13
X7.3075Y-2.13
X7.8075Y-2.13
X7.9075Y-2.13
X8.0075Y-2.13
X8.1075Y-2.13
T6
X5.6349Y-3.7475
X5.6349Y-4.1475
X7.2975Y-4.25
X7.2975Y-4.35
X7.373Y-5.282
X7.523Y-5.282
X7.72Y-3.88
X7.725Y-3.245
X7.82Y-3.78
X7.82Y-3.98
X7.823Y-5.282
X7.825Y-3.145
X7.825Y-3.345
X7.92Y-3.88
X7.925Y-3.245
X7.973Y-5.282
T7
X8.4437Y-2.356
X8.4437Y-2.6316
T8
X8.08Y-3.48
X8.08Y-3.71
X8.08Y-3.94
X8.081Y-3.255
X8.28Y-3.48
X8.28Y-3.71
X8.28Y-3.94
X8.281Y-3.255
T9
X5.845Y-3.295
X5.845Y-3.495
X6.08Y-3.295
X6.08Y-3.495
X6.36Y-3.295
X6.36Y-3.495
X6.59Y-3.295
X6.59Y-3.495
X6.8768Y-3.2955
X6.8768Y-3.4955
X7.1068Y-3.2955
X7.1068Y-3.4955
X8.227Y-5.043
X8.228Y-5.271
X8.427Y-5.043
X8.428Y-5.271
T10
X4.24Y-2.
X4.24Y-5.5
X4.73Y-3.
X4.98Y-4.9
X7.93Y-4.9
X7.98Y-3.
X8.515Y-2.
X8.515Y-5.5
T0
M30
