G04 #@! TF.FileFunction,Legend,Bot*
%FSLAX46Y46*%
G04 Gerber Fmt 4.6, Leading zero omitted, Abs format (unit mm)*
G04 Created by KiCad (PCBNEW 4.0.2-stable) date 4/3/2017 9:44:54 PM*
%MOMM*%
G01*
G04 APERTURE LIST*
%ADD10C,0.100000*%
%ADD11C,0.200000*%
%ADD12C,0.250000*%
%ADD13C,0.254000*%
%ADD14C,0.300000*%
%ADD15C,0.203200*%
%ADD16C,0.150000*%
G04 APERTURE END LIST*
D10*
D11*
X188417200Y-51358800D02*
X188417200Y-48884840D01*
X213547960Y-51358800D02*
X188417200Y-51358800D01*
X213547960Y-48879760D02*
X213547960Y-51358800D01*
X213547960Y-48879760D02*
X188417200Y-48884840D01*
X118765320Y-123190000D02*
X119039640Y-123190000D01*
X118765320Y-123195080D02*
X118765320Y-123190000D01*
X118765320Y-125694440D02*
X118765320Y-123195080D01*
X123875800Y-125694440D02*
X118765320Y-125694440D01*
X123885960Y-123205240D02*
X123875800Y-125694440D01*
X119024400Y-123190000D02*
X123885960Y-123195080D01*
X118963440Y-82504280D02*
X118963440Y-79903320D01*
X123870720Y-82504280D02*
X118963440Y-82504280D01*
X123870720Y-79918560D02*
X123870720Y-82504280D01*
X118958360Y-79903320D02*
X123870720Y-79918560D01*
D12*
X117744097Y-80494440D02*
X117886954Y-80423011D01*
X118101240Y-80423011D01*
X118315525Y-80494440D01*
X118458383Y-80637297D01*
X118529811Y-80780154D01*
X118601240Y-81065869D01*
X118601240Y-81280154D01*
X118529811Y-81565869D01*
X118458383Y-81708726D01*
X118315525Y-81851583D01*
X118101240Y-81923011D01*
X117958383Y-81923011D01*
X117744097Y-81851583D01*
X117672668Y-81780154D01*
X117672668Y-81280154D01*
X117958383Y-81280154D01*
X117029811Y-81923011D02*
X117029811Y-80423011D01*
X116172668Y-81923011D01*
X116172668Y-80423011D01*
X115458382Y-81923011D02*
X115458382Y-80423011D01*
X115101239Y-80423011D01*
X114886954Y-80494440D01*
X114744096Y-80637297D01*
X114672668Y-80780154D01*
X114601239Y-81065869D01*
X114601239Y-81280154D01*
X114672668Y-81565869D01*
X114744096Y-81708726D01*
X114886954Y-81851583D01*
X115101239Y-81923011D01*
X115458382Y-81923011D01*
X127600493Y-84698669D02*
X127600493Y-83048669D01*
X127067159Y-83048669D01*
X126933826Y-83127240D01*
X126867159Y-83205811D01*
X126800493Y-83362954D01*
X126800493Y-83598669D01*
X126867159Y-83755811D01*
X126933826Y-83834383D01*
X127067159Y-83912954D01*
X127600493Y-83912954D01*
X125733826Y-83834383D02*
X125533826Y-83912954D01*
X125467159Y-83991526D01*
X125400493Y-84148669D01*
X125400493Y-84384383D01*
X125467159Y-84541526D01*
X125533826Y-84620097D01*
X125667159Y-84698669D01*
X126200493Y-84698669D01*
X126200493Y-83048669D01*
X125733826Y-83048669D01*
X125600493Y-83127240D01*
X125533826Y-83205811D01*
X125467159Y-83362954D01*
X125467159Y-83520097D01*
X125533826Y-83677240D01*
X125600493Y-83755811D01*
X125733826Y-83834383D01*
X126200493Y-83834383D01*
X124067159Y-84698669D02*
X124867159Y-84698669D01*
X124467159Y-84698669D02*
X124467159Y-83048669D01*
X124600493Y-83284383D01*
X124733826Y-83441526D01*
X124867159Y-83520097D01*
X127600493Y-87258669D02*
X127600493Y-85608669D01*
X127067159Y-85608669D01*
X126933826Y-85687240D01*
X126867159Y-85765811D01*
X126800493Y-85922954D01*
X126800493Y-86158669D01*
X126867159Y-86315811D01*
X126933826Y-86394383D01*
X127067159Y-86472954D01*
X127600493Y-86472954D01*
X125733826Y-86394383D02*
X125533826Y-86472954D01*
X125467159Y-86551526D01*
X125400493Y-86708669D01*
X125400493Y-86944383D01*
X125467159Y-87101526D01*
X125533826Y-87180097D01*
X125667159Y-87258669D01*
X126200493Y-87258669D01*
X126200493Y-85608669D01*
X125733826Y-85608669D01*
X125600493Y-85687240D01*
X125533826Y-85765811D01*
X125467159Y-85922954D01*
X125467159Y-86080097D01*
X125533826Y-86237240D01*
X125600493Y-86315811D01*
X125733826Y-86394383D01*
X126200493Y-86394383D01*
X124933826Y-85608669D02*
X124067159Y-85608669D01*
X124533826Y-86237240D01*
X124333826Y-86237240D01*
X124200493Y-86315811D01*
X124133826Y-86394383D01*
X124067159Y-86551526D01*
X124067159Y-86944383D01*
X124133826Y-87101526D01*
X124200493Y-87180097D01*
X124333826Y-87258669D01*
X124733826Y-87258669D01*
X124867159Y-87180097D01*
X124933826Y-87101526D01*
X118436173Y-84429429D02*
X118436173Y-82779429D01*
X117902839Y-82779429D01*
X117769506Y-82858000D01*
X117702839Y-82936571D01*
X117636173Y-83093714D01*
X117636173Y-83329429D01*
X117702839Y-83486571D01*
X117769506Y-83565143D01*
X117902839Y-83643714D01*
X118436173Y-83643714D01*
X116569506Y-83565143D02*
X116369506Y-83643714D01*
X116302839Y-83722286D01*
X116236173Y-83879429D01*
X116236173Y-84115143D01*
X116302839Y-84272286D01*
X116369506Y-84350857D01*
X116502839Y-84429429D01*
X117036173Y-84429429D01*
X117036173Y-82779429D01*
X116569506Y-82779429D01*
X116436173Y-82858000D01*
X116369506Y-82936571D01*
X116302839Y-83093714D01*
X116302839Y-83250857D01*
X116369506Y-83408000D01*
X116436173Y-83486571D01*
X116569506Y-83565143D01*
X117036173Y-83565143D01*
X115369506Y-82779429D02*
X115236173Y-82779429D01*
X115102839Y-82858000D01*
X115036173Y-82936571D01*
X114969506Y-83093714D01*
X114902839Y-83408000D01*
X114902839Y-83800857D01*
X114969506Y-84115143D01*
X115036173Y-84272286D01*
X115102839Y-84350857D01*
X115236173Y-84429429D01*
X115369506Y-84429429D01*
X115502839Y-84350857D01*
X115569506Y-84272286D01*
X115636173Y-84115143D01*
X115702839Y-83800857D01*
X115702839Y-83408000D01*
X115636173Y-83093714D01*
X115569506Y-82936571D01*
X115502839Y-82858000D01*
X115369506Y-82779429D01*
X118436173Y-86989429D02*
X118436173Y-85339429D01*
X117902839Y-85339429D01*
X117769506Y-85418000D01*
X117702839Y-85496571D01*
X117636173Y-85653714D01*
X117636173Y-85889429D01*
X117702839Y-86046571D01*
X117769506Y-86125143D01*
X117902839Y-86203714D01*
X118436173Y-86203714D01*
X116569506Y-86125143D02*
X116369506Y-86203714D01*
X116302839Y-86282286D01*
X116236173Y-86439429D01*
X116236173Y-86675143D01*
X116302839Y-86832286D01*
X116369506Y-86910857D01*
X116502839Y-86989429D01*
X117036173Y-86989429D01*
X117036173Y-85339429D01*
X116569506Y-85339429D01*
X116436173Y-85418000D01*
X116369506Y-85496571D01*
X116302839Y-85653714D01*
X116302839Y-85810857D01*
X116369506Y-85968000D01*
X116436173Y-86046571D01*
X116569506Y-86125143D01*
X117036173Y-86125143D01*
X115702839Y-85496571D02*
X115636173Y-85418000D01*
X115502839Y-85339429D01*
X115169506Y-85339429D01*
X115036173Y-85418000D01*
X114969506Y-85496571D01*
X114902839Y-85653714D01*
X114902839Y-85810857D01*
X114969506Y-86046571D01*
X115769506Y-86989429D01*
X114902839Y-86989429D01*
X127432853Y-99821829D02*
X127432853Y-98171829D01*
X126899519Y-98171829D01*
X126766186Y-98250400D01*
X126699519Y-98328971D01*
X126632853Y-98486114D01*
X126632853Y-98721829D01*
X126699519Y-98878971D01*
X126766186Y-98957543D01*
X126899519Y-99036114D01*
X127432853Y-99036114D01*
X125299519Y-98250400D02*
X125432853Y-98171829D01*
X125632853Y-98171829D01*
X125832853Y-98250400D01*
X125966186Y-98407543D01*
X126032853Y-98564686D01*
X126099519Y-98878971D01*
X126099519Y-99114686D01*
X126032853Y-99428971D01*
X125966186Y-99586114D01*
X125832853Y-99743257D01*
X125632853Y-99821829D01*
X125499519Y-99821829D01*
X125299519Y-99743257D01*
X125232853Y-99664686D01*
X125232853Y-99114686D01*
X125499519Y-99114686D01*
X123899519Y-99821829D02*
X124699519Y-99821829D01*
X124299519Y-99821829D02*
X124299519Y-98171829D01*
X124432853Y-98407543D01*
X124566186Y-98564686D01*
X124699519Y-98643257D01*
X127432853Y-102381829D02*
X127432853Y-100731829D01*
X126899519Y-100731829D01*
X126766186Y-100810400D01*
X126699519Y-100888971D01*
X126632853Y-101046114D01*
X126632853Y-101281829D01*
X126699519Y-101438971D01*
X126766186Y-101517543D01*
X126899519Y-101596114D01*
X127432853Y-101596114D01*
X126032853Y-102381829D02*
X126032853Y-100731829D01*
X125699519Y-100731829D01*
X125499519Y-100810400D01*
X125366186Y-100967543D01*
X125299519Y-101124686D01*
X125232853Y-101438971D01*
X125232853Y-101674686D01*
X125299519Y-101988971D01*
X125366186Y-102146114D01*
X125499519Y-102303257D01*
X125699519Y-102381829D01*
X126032853Y-102381829D01*
X124766186Y-100731829D02*
X123832853Y-100731829D01*
X124432853Y-102381829D01*
X127330000Y-89728189D02*
X127330000Y-88078189D01*
X126796666Y-88078189D01*
X126663333Y-88156760D01*
X126596666Y-88235331D01*
X126530000Y-88392474D01*
X126530000Y-88628189D01*
X126596666Y-88785331D01*
X126663333Y-88863903D01*
X126796666Y-88942474D01*
X127330000Y-88942474D01*
X125263333Y-89728189D02*
X125930000Y-89728189D01*
X125930000Y-88078189D01*
X124063333Y-89728189D02*
X124863333Y-89728189D01*
X124463333Y-89728189D02*
X124463333Y-88078189D01*
X124596667Y-88313903D01*
X124730000Y-88471046D01*
X124863333Y-88549617D01*
X127330000Y-92288189D02*
X127330000Y-90638189D01*
X126796666Y-90638189D01*
X126663333Y-90716760D01*
X126596666Y-90795331D01*
X126530000Y-90952474D01*
X126530000Y-91188189D01*
X126596666Y-91345331D01*
X126663333Y-91423903D01*
X126796666Y-91502474D01*
X127330000Y-91502474D01*
X125263333Y-92288189D02*
X125930000Y-92288189D01*
X125930000Y-90638189D01*
X124930000Y-90638189D02*
X124063333Y-90638189D01*
X124530000Y-91266760D01*
X124330000Y-91266760D01*
X124196667Y-91345331D01*
X124130000Y-91423903D01*
X124063333Y-91581046D01*
X124063333Y-91973903D01*
X124130000Y-92131046D01*
X124196667Y-92209617D01*
X124330000Y-92288189D01*
X124730000Y-92288189D01*
X124863333Y-92209617D01*
X124930000Y-92131046D01*
X127330000Y-94848189D02*
X127330000Y-93198189D01*
X126796666Y-93198189D01*
X126663333Y-93276760D01*
X126596666Y-93355331D01*
X126530000Y-93512474D01*
X126530000Y-93748189D01*
X126596666Y-93905331D01*
X126663333Y-93983903D01*
X126796666Y-94062474D01*
X127330000Y-94062474D01*
X125263333Y-94848189D02*
X125930000Y-94848189D01*
X125930000Y-93198189D01*
X124130000Y-93198189D02*
X124796667Y-93198189D01*
X124863333Y-93983903D01*
X124796667Y-93905331D01*
X124663333Y-93826760D01*
X124330000Y-93826760D01*
X124196667Y-93905331D01*
X124130000Y-93983903D01*
X124063333Y-94141046D01*
X124063333Y-94533903D01*
X124130000Y-94691046D01*
X124196667Y-94769617D01*
X124330000Y-94848189D01*
X124663333Y-94848189D01*
X124796667Y-94769617D01*
X124863333Y-94691046D01*
X127330000Y-97408189D02*
X127330000Y-95758189D01*
X126796666Y-95758189D01*
X126663333Y-95836760D01*
X126596666Y-95915331D01*
X126530000Y-96072474D01*
X126530000Y-96308189D01*
X126596666Y-96465331D01*
X126663333Y-96543903D01*
X126796666Y-96622474D01*
X127330000Y-96622474D01*
X125263333Y-97408189D02*
X125930000Y-97408189D01*
X125930000Y-95758189D01*
X124930000Y-95758189D02*
X123996667Y-95758189D01*
X124596667Y-97408189D01*
X118486973Y-99654189D02*
X118486973Y-98004189D01*
X117953639Y-98004189D01*
X117820306Y-98082760D01*
X117753639Y-98161331D01*
X117686973Y-98318474D01*
X117686973Y-98554189D01*
X117753639Y-98711331D01*
X117820306Y-98789903D01*
X117953639Y-98868474D01*
X118486973Y-98868474D01*
X116353639Y-98082760D02*
X116486973Y-98004189D01*
X116686973Y-98004189D01*
X116886973Y-98082760D01*
X117020306Y-98239903D01*
X117086973Y-98397046D01*
X117153639Y-98711331D01*
X117153639Y-98947046D01*
X117086973Y-99261331D01*
X117020306Y-99418474D01*
X116886973Y-99575617D01*
X116686973Y-99654189D01*
X116553639Y-99654189D01*
X116353639Y-99575617D01*
X116286973Y-99497046D01*
X116286973Y-98947046D01*
X116553639Y-98947046D01*
X115420306Y-98004189D02*
X115286973Y-98004189D01*
X115153639Y-98082760D01*
X115086973Y-98161331D01*
X115020306Y-98318474D01*
X114953639Y-98632760D01*
X114953639Y-99025617D01*
X115020306Y-99339903D01*
X115086973Y-99497046D01*
X115153639Y-99575617D01*
X115286973Y-99654189D01*
X115420306Y-99654189D01*
X115553639Y-99575617D01*
X115620306Y-99497046D01*
X115686973Y-99339903D01*
X115753639Y-99025617D01*
X115753639Y-98632760D01*
X115686973Y-98318474D01*
X115620306Y-98161331D01*
X115553639Y-98082760D01*
X115420306Y-98004189D01*
X118486973Y-102214189D02*
X118486973Y-100564189D01*
X117953639Y-100564189D01*
X117820306Y-100642760D01*
X117753639Y-100721331D01*
X117686973Y-100878474D01*
X117686973Y-101114189D01*
X117753639Y-101271331D01*
X117820306Y-101349903D01*
X117953639Y-101428474D01*
X118486973Y-101428474D01*
X116353639Y-100642760D02*
X116486973Y-100564189D01*
X116686973Y-100564189D01*
X116886973Y-100642760D01*
X117020306Y-100799903D01*
X117086973Y-100957046D01*
X117153639Y-101271331D01*
X117153639Y-101507046D01*
X117086973Y-101821331D01*
X117020306Y-101978474D01*
X116886973Y-102135617D01*
X116686973Y-102214189D01*
X116553639Y-102214189D01*
X116353639Y-102135617D01*
X116286973Y-102057046D01*
X116286973Y-101507046D01*
X116553639Y-101507046D01*
X115753639Y-100721331D02*
X115686973Y-100642760D01*
X115553639Y-100564189D01*
X115220306Y-100564189D01*
X115086973Y-100642760D01*
X115020306Y-100721331D01*
X114953639Y-100878474D01*
X114953639Y-101035617D01*
X115020306Y-101271331D01*
X115820306Y-102214189D01*
X114953639Y-102214189D01*
X118490800Y-89519909D02*
X118490800Y-87869909D01*
X117957466Y-87869909D01*
X117824133Y-87948480D01*
X117757466Y-88027051D01*
X117690800Y-88184194D01*
X117690800Y-88419909D01*
X117757466Y-88577051D01*
X117824133Y-88655623D01*
X117957466Y-88734194D01*
X118490800Y-88734194D01*
X116424133Y-89519909D02*
X117090800Y-89519909D01*
X117090800Y-87869909D01*
X115690800Y-87869909D02*
X115557467Y-87869909D01*
X115424133Y-87948480D01*
X115357467Y-88027051D01*
X115290800Y-88184194D01*
X115224133Y-88498480D01*
X115224133Y-88891337D01*
X115290800Y-89205623D01*
X115357467Y-89362766D01*
X115424133Y-89441337D01*
X115557467Y-89519909D01*
X115690800Y-89519909D01*
X115824133Y-89441337D01*
X115890800Y-89362766D01*
X115957467Y-89205623D01*
X116024133Y-88891337D01*
X116024133Y-88498480D01*
X115957467Y-88184194D01*
X115890800Y-88027051D01*
X115824133Y-87948480D01*
X115690800Y-87869909D01*
X118490800Y-92079909D02*
X118490800Y-90429909D01*
X117957466Y-90429909D01*
X117824133Y-90508480D01*
X117757466Y-90587051D01*
X117690800Y-90744194D01*
X117690800Y-90979909D01*
X117757466Y-91137051D01*
X117824133Y-91215623D01*
X117957466Y-91294194D01*
X118490800Y-91294194D01*
X116424133Y-92079909D02*
X117090800Y-92079909D01*
X117090800Y-90429909D01*
X116024133Y-90587051D02*
X115957467Y-90508480D01*
X115824133Y-90429909D01*
X115490800Y-90429909D01*
X115357467Y-90508480D01*
X115290800Y-90587051D01*
X115224133Y-90744194D01*
X115224133Y-90901337D01*
X115290800Y-91137051D01*
X116090800Y-92079909D01*
X115224133Y-92079909D01*
X118490800Y-94639909D02*
X118490800Y-92989909D01*
X117957466Y-92989909D01*
X117824133Y-93068480D01*
X117757466Y-93147051D01*
X117690800Y-93304194D01*
X117690800Y-93539909D01*
X117757466Y-93697051D01*
X117824133Y-93775623D01*
X117957466Y-93854194D01*
X118490800Y-93854194D01*
X116424133Y-94639909D02*
X117090800Y-94639909D01*
X117090800Y-92989909D01*
X115357467Y-93539909D02*
X115357467Y-94639909D01*
X115690800Y-92911337D02*
X116024133Y-94089909D01*
X115157467Y-94089909D01*
X118490800Y-97199909D02*
X118490800Y-95549909D01*
X117957466Y-95549909D01*
X117824133Y-95628480D01*
X117757466Y-95707051D01*
X117690800Y-95864194D01*
X117690800Y-96099909D01*
X117757466Y-96257051D01*
X117824133Y-96335623D01*
X117957466Y-96414194D01*
X118490800Y-96414194D01*
X116424133Y-97199909D02*
X117090800Y-97199909D01*
X117090800Y-95549909D01*
X115357467Y-95549909D02*
X115624133Y-95549909D01*
X115757467Y-95628480D01*
X115824133Y-95707051D01*
X115957467Y-95942766D01*
X116024133Y-96257051D01*
X116024133Y-96885623D01*
X115957467Y-97042766D01*
X115890800Y-97121337D01*
X115757467Y-97199909D01*
X115490800Y-97199909D01*
X115357467Y-97121337D01*
X115290800Y-97042766D01*
X115224133Y-96885623D01*
X115224133Y-96492766D01*
X115290800Y-96335623D01*
X115357467Y-96257051D01*
X115490800Y-96178480D01*
X115757467Y-96178480D01*
X115890800Y-96257051D01*
X115957467Y-96335623D01*
X116024133Y-96492766D01*
X127275373Y-104866589D02*
X127275373Y-103216589D01*
X126742039Y-103216589D01*
X126608706Y-103295160D01*
X126542039Y-103373731D01*
X126475373Y-103530874D01*
X126475373Y-103766589D01*
X126542039Y-103923731D01*
X126608706Y-104002303D01*
X126742039Y-104080874D01*
X127275373Y-104080874D01*
X125075373Y-104709446D02*
X125142039Y-104788017D01*
X125342039Y-104866589D01*
X125475373Y-104866589D01*
X125675373Y-104788017D01*
X125808706Y-104630874D01*
X125875373Y-104473731D01*
X125942039Y-104159446D01*
X125942039Y-103923731D01*
X125875373Y-103609446D01*
X125808706Y-103452303D01*
X125675373Y-103295160D01*
X125475373Y-103216589D01*
X125342039Y-103216589D01*
X125142039Y-103295160D01*
X125075373Y-103373731D01*
X123742039Y-104866589D02*
X124542039Y-104866589D01*
X124142039Y-104866589D02*
X124142039Y-103216589D01*
X124275373Y-103452303D01*
X124408706Y-103609446D01*
X124542039Y-103688017D01*
X127275373Y-107426589D02*
X127275373Y-105776589D01*
X126742039Y-105776589D01*
X126608706Y-105855160D01*
X126542039Y-105933731D01*
X126475373Y-106090874D01*
X126475373Y-106326589D01*
X126542039Y-106483731D01*
X126608706Y-106562303D01*
X126742039Y-106640874D01*
X127275373Y-106640874D01*
X125075373Y-107269446D02*
X125142039Y-107348017D01*
X125342039Y-107426589D01*
X125475373Y-107426589D01*
X125675373Y-107348017D01*
X125808706Y-107190874D01*
X125875373Y-107033731D01*
X125942039Y-106719446D01*
X125942039Y-106483731D01*
X125875373Y-106169446D01*
X125808706Y-106012303D01*
X125675373Y-105855160D01*
X125475373Y-105776589D01*
X125342039Y-105776589D01*
X125142039Y-105855160D01*
X125075373Y-105933731D01*
X124608706Y-105776589D02*
X123742039Y-105776589D01*
X124208706Y-106405160D01*
X124008706Y-106405160D01*
X123875373Y-106483731D01*
X123808706Y-106562303D01*
X123742039Y-106719446D01*
X123742039Y-107112303D01*
X123808706Y-107269446D01*
X123875373Y-107348017D01*
X124008706Y-107426589D01*
X124408706Y-107426589D01*
X124542039Y-107348017D01*
X124608706Y-107269446D01*
X127275373Y-109986589D02*
X127275373Y-108336589D01*
X126742039Y-108336589D01*
X126608706Y-108415160D01*
X126542039Y-108493731D01*
X126475373Y-108650874D01*
X126475373Y-108886589D01*
X126542039Y-109043731D01*
X126608706Y-109122303D01*
X126742039Y-109200874D01*
X127275373Y-109200874D01*
X125075373Y-109829446D02*
X125142039Y-109908017D01*
X125342039Y-109986589D01*
X125475373Y-109986589D01*
X125675373Y-109908017D01*
X125808706Y-109750874D01*
X125875373Y-109593731D01*
X125942039Y-109279446D01*
X125942039Y-109043731D01*
X125875373Y-108729446D01*
X125808706Y-108572303D01*
X125675373Y-108415160D01*
X125475373Y-108336589D01*
X125342039Y-108336589D01*
X125142039Y-108415160D01*
X125075373Y-108493731D01*
X123808706Y-108336589D02*
X124475373Y-108336589D01*
X124542039Y-109122303D01*
X124475373Y-109043731D01*
X124342039Y-108965160D01*
X124008706Y-108965160D01*
X123875373Y-109043731D01*
X123808706Y-109122303D01*
X123742039Y-109279446D01*
X123742039Y-109672303D01*
X123808706Y-109829446D01*
X123875373Y-109908017D01*
X124008706Y-109986589D01*
X124342039Y-109986589D01*
X124475373Y-109908017D01*
X124542039Y-109829446D01*
X127275373Y-112546589D02*
X127275373Y-110896589D01*
X126742039Y-110896589D01*
X126608706Y-110975160D01*
X126542039Y-111053731D01*
X126475373Y-111210874D01*
X126475373Y-111446589D01*
X126542039Y-111603731D01*
X126608706Y-111682303D01*
X126742039Y-111760874D01*
X127275373Y-111760874D01*
X125075373Y-112389446D02*
X125142039Y-112468017D01*
X125342039Y-112546589D01*
X125475373Y-112546589D01*
X125675373Y-112468017D01*
X125808706Y-112310874D01*
X125875373Y-112153731D01*
X125942039Y-111839446D01*
X125942039Y-111603731D01*
X125875373Y-111289446D01*
X125808706Y-111132303D01*
X125675373Y-110975160D01*
X125475373Y-110896589D01*
X125342039Y-110896589D01*
X125142039Y-110975160D01*
X125075373Y-111053731D01*
X124608706Y-110896589D02*
X123675373Y-110896589D01*
X124275373Y-112546589D01*
X118502213Y-104942789D02*
X118502213Y-103292789D01*
X117968879Y-103292789D01*
X117835546Y-103371360D01*
X117768879Y-103449931D01*
X117702213Y-103607074D01*
X117702213Y-103842789D01*
X117768879Y-103999931D01*
X117835546Y-104078503D01*
X117968879Y-104157074D01*
X118502213Y-104157074D01*
X116302213Y-104785646D02*
X116368879Y-104864217D01*
X116568879Y-104942789D01*
X116702213Y-104942789D01*
X116902213Y-104864217D01*
X117035546Y-104707074D01*
X117102213Y-104549931D01*
X117168879Y-104235646D01*
X117168879Y-103999931D01*
X117102213Y-103685646D01*
X117035546Y-103528503D01*
X116902213Y-103371360D01*
X116702213Y-103292789D01*
X116568879Y-103292789D01*
X116368879Y-103371360D01*
X116302213Y-103449931D01*
X115435546Y-103292789D02*
X115302213Y-103292789D01*
X115168879Y-103371360D01*
X115102213Y-103449931D01*
X115035546Y-103607074D01*
X114968879Y-103921360D01*
X114968879Y-104314217D01*
X115035546Y-104628503D01*
X115102213Y-104785646D01*
X115168879Y-104864217D01*
X115302213Y-104942789D01*
X115435546Y-104942789D01*
X115568879Y-104864217D01*
X115635546Y-104785646D01*
X115702213Y-104628503D01*
X115768879Y-104314217D01*
X115768879Y-103921360D01*
X115702213Y-103607074D01*
X115635546Y-103449931D01*
X115568879Y-103371360D01*
X115435546Y-103292789D01*
X118502213Y-107502789D02*
X118502213Y-105852789D01*
X117968879Y-105852789D01*
X117835546Y-105931360D01*
X117768879Y-106009931D01*
X117702213Y-106167074D01*
X117702213Y-106402789D01*
X117768879Y-106559931D01*
X117835546Y-106638503D01*
X117968879Y-106717074D01*
X118502213Y-106717074D01*
X116302213Y-107345646D02*
X116368879Y-107424217D01*
X116568879Y-107502789D01*
X116702213Y-107502789D01*
X116902213Y-107424217D01*
X117035546Y-107267074D01*
X117102213Y-107109931D01*
X117168879Y-106795646D01*
X117168879Y-106559931D01*
X117102213Y-106245646D01*
X117035546Y-106088503D01*
X116902213Y-105931360D01*
X116702213Y-105852789D01*
X116568879Y-105852789D01*
X116368879Y-105931360D01*
X116302213Y-106009931D01*
X115768879Y-106009931D02*
X115702213Y-105931360D01*
X115568879Y-105852789D01*
X115235546Y-105852789D01*
X115102213Y-105931360D01*
X115035546Y-106009931D01*
X114968879Y-106167074D01*
X114968879Y-106324217D01*
X115035546Y-106559931D01*
X115835546Y-107502789D01*
X114968879Y-107502789D01*
X118502213Y-110062789D02*
X118502213Y-108412789D01*
X117968879Y-108412789D01*
X117835546Y-108491360D01*
X117768879Y-108569931D01*
X117702213Y-108727074D01*
X117702213Y-108962789D01*
X117768879Y-109119931D01*
X117835546Y-109198503D01*
X117968879Y-109277074D01*
X118502213Y-109277074D01*
X116302213Y-109905646D02*
X116368879Y-109984217D01*
X116568879Y-110062789D01*
X116702213Y-110062789D01*
X116902213Y-109984217D01*
X117035546Y-109827074D01*
X117102213Y-109669931D01*
X117168879Y-109355646D01*
X117168879Y-109119931D01*
X117102213Y-108805646D01*
X117035546Y-108648503D01*
X116902213Y-108491360D01*
X116702213Y-108412789D01*
X116568879Y-108412789D01*
X116368879Y-108491360D01*
X116302213Y-108569931D01*
X115102213Y-108962789D02*
X115102213Y-110062789D01*
X115435546Y-108334217D02*
X115768879Y-109512789D01*
X114902213Y-109512789D01*
X118502213Y-112622789D02*
X118502213Y-110972789D01*
X117968879Y-110972789D01*
X117835546Y-111051360D01*
X117768879Y-111129931D01*
X117702213Y-111287074D01*
X117702213Y-111522789D01*
X117768879Y-111679931D01*
X117835546Y-111758503D01*
X117968879Y-111837074D01*
X118502213Y-111837074D01*
X116302213Y-112465646D02*
X116368879Y-112544217D01*
X116568879Y-112622789D01*
X116702213Y-112622789D01*
X116902213Y-112544217D01*
X117035546Y-112387074D01*
X117102213Y-112229931D01*
X117168879Y-111915646D01*
X117168879Y-111679931D01*
X117102213Y-111365646D01*
X117035546Y-111208503D01*
X116902213Y-111051360D01*
X116702213Y-110972789D01*
X116568879Y-110972789D01*
X116368879Y-111051360D01*
X116302213Y-111129931D01*
X115102213Y-110972789D02*
X115368879Y-110972789D01*
X115502213Y-111051360D01*
X115568879Y-111129931D01*
X115702213Y-111365646D01*
X115768879Y-111679931D01*
X115768879Y-112308503D01*
X115702213Y-112465646D01*
X115635546Y-112544217D01*
X115502213Y-112622789D01*
X115235546Y-112622789D01*
X115102213Y-112544217D01*
X115035546Y-112465646D01*
X114968879Y-112308503D01*
X114968879Y-111915646D01*
X115035546Y-111758503D01*
X115102213Y-111679931D01*
X115235546Y-111601360D01*
X115502213Y-111601360D01*
X115635546Y-111679931D01*
X115702213Y-111758503D01*
X115768879Y-111915646D01*
X127413959Y-122187091D02*
X127413959Y-120687091D01*
X126842531Y-120687091D01*
X126699673Y-120758520D01*
X126628245Y-120829949D01*
X126556816Y-120972806D01*
X126556816Y-121187091D01*
X126628245Y-121329949D01*
X126699673Y-121401377D01*
X126842531Y-121472806D01*
X127413959Y-121472806D01*
X125985388Y-121758520D02*
X125271102Y-121758520D01*
X126128245Y-122187091D02*
X125628245Y-120687091D01*
X125128245Y-122187091D01*
X124342531Y-120687091D02*
X124199674Y-120687091D01*
X124056817Y-120758520D01*
X123985388Y-120829949D01*
X123913959Y-120972806D01*
X123842531Y-121258520D01*
X123842531Y-121615663D01*
X123913959Y-121901377D01*
X123985388Y-122044234D01*
X124056817Y-122115663D01*
X124199674Y-122187091D01*
X124342531Y-122187091D01*
X124485388Y-122115663D01*
X124556817Y-122044234D01*
X124628245Y-121901377D01*
X124699674Y-121615663D01*
X124699674Y-121258520D01*
X124628245Y-120972806D01*
X124556817Y-120829949D01*
X124485388Y-120758520D01*
X124342531Y-120687091D01*
X127287133Y-115046749D02*
X127287133Y-113396749D01*
X126753799Y-113396749D01*
X126620466Y-113475320D01*
X126553799Y-113553891D01*
X126487133Y-113711034D01*
X126487133Y-113946749D01*
X126553799Y-114103891D01*
X126620466Y-114182463D01*
X126753799Y-114261034D01*
X127287133Y-114261034D01*
X125953799Y-114575320D02*
X125287133Y-114575320D01*
X126087133Y-115046749D02*
X125620466Y-113396749D01*
X125153799Y-115046749D01*
X124087133Y-113396749D02*
X124353799Y-113396749D01*
X124487133Y-113475320D01*
X124553799Y-113553891D01*
X124687133Y-113789606D01*
X124753799Y-114103891D01*
X124753799Y-114732463D01*
X124687133Y-114889606D01*
X124620466Y-114968177D01*
X124487133Y-115046749D01*
X124220466Y-115046749D01*
X124087133Y-114968177D01*
X124020466Y-114889606D01*
X123953799Y-114732463D01*
X123953799Y-114339606D01*
X124020466Y-114182463D01*
X124087133Y-114103891D01*
X124220466Y-114025320D01*
X124487133Y-114025320D01*
X124620466Y-114103891D01*
X124687133Y-114182463D01*
X124753799Y-114339606D01*
X127287133Y-117606749D02*
X127287133Y-115956749D01*
X126753799Y-115956749D01*
X126620466Y-116035320D01*
X126553799Y-116113891D01*
X126487133Y-116271034D01*
X126487133Y-116506749D01*
X126553799Y-116663891D01*
X126620466Y-116742463D01*
X126753799Y-116821034D01*
X127287133Y-116821034D01*
X125953799Y-117135320D02*
X125287133Y-117135320D01*
X126087133Y-117606749D02*
X125620466Y-115956749D01*
X125153799Y-117606749D01*
X124087133Y-116506749D02*
X124087133Y-117606749D01*
X124420466Y-115878177D02*
X124753799Y-117056749D01*
X123887133Y-117056749D01*
X127287133Y-120166749D02*
X127287133Y-118516749D01*
X126753799Y-118516749D01*
X126620466Y-118595320D01*
X126553799Y-118673891D01*
X126487133Y-118831034D01*
X126487133Y-119066749D01*
X126553799Y-119223891D01*
X126620466Y-119302463D01*
X126753799Y-119381034D01*
X127287133Y-119381034D01*
X125953799Y-119695320D02*
X125287133Y-119695320D01*
X126087133Y-120166749D02*
X125620466Y-118516749D01*
X125153799Y-120166749D01*
X124753799Y-118673891D02*
X124687133Y-118595320D01*
X124553799Y-118516749D01*
X124220466Y-118516749D01*
X124087133Y-118595320D01*
X124020466Y-118673891D01*
X123953799Y-118831034D01*
X123953799Y-118988177D01*
X124020466Y-119223891D01*
X124820466Y-120166749D01*
X123953799Y-120166749D01*
X118513973Y-114945309D02*
X118513973Y-113295309D01*
X117980639Y-113295309D01*
X117847306Y-113373880D01*
X117780639Y-113452451D01*
X117713973Y-113609594D01*
X117713973Y-113845309D01*
X117780639Y-114002451D01*
X117847306Y-114081023D01*
X117980639Y-114159594D01*
X118513973Y-114159594D01*
X117180639Y-114473880D02*
X116513973Y-114473880D01*
X117313973Y-114945309D02*
X116847306Y-113295309D01*
X116380639Y-114945309D01*
X116047306Y-113295309D02*
X115113973Y-113295309D01*
X115713973Y-114945309D01*
X118513973Y-117505309D02*
X118513973Y-115855309D01*
X117980639Y-115855309D01*
X117847306Y-115933880D01*
X117780639Y-116012451D01*
X117713973Y-116169594D01*
X117713973Y-116405309D01*
X117780639Y-116562451D01*
X117847306Y-116641023D01*
X117980639Y-116719594D01*
X118513973Y-116719594D01*
X117180639Y-117033880D02*
X116513973Y-117033880D01*
X117313973Y-117505309D02*
X116847306Y-115855309D01*
X116380639Y-117505309D01*
X115247306Y-115855309D02*
X115913973Y-115855309D01*
X115980639Y-116641023D01*
X115913973Y-116562451D01*
X115780639Y-116483880D01*
X115447306Y-116483880D01*
X115313973Y-116562451D01*
X115247306Y-116641023D01*
X115180639Y-116798166D01*
X115180639Y-117191023D01*
X115247306Y-117348166D01*
X115313973Y-117426737D01*
X115447306Y-117505309D01*
X115780639Y-117505309D01*
X115913973Y-117426737D01*
X115980639Y-117348166D01*
X118513973Y-120065309D02*
X118513973Y-118415309D01*
X117980639Y-118415309D01*
X117847306Y-118493880D01*
X117780639Y-118572451D01*
X117713973Y-118729594D01*
X117713973Y-118965309D01*
X117780639Y-119122451D01*
X117847306Y-119201023D01*
X117980639Y-119279594D01*
X118513973Y-119279594D01*
X117180639Y-119593880D02*
X116513973Y-119593880D01*
X117313973Y-120065309D02*
X116847306Y-118415309D01*
X116380639Y-120065309D01*
X116047306Y-118415309D02*
X115180639Y-118415309D01*
X115647306Y-119043880D01*
X115447306Y-119043880D01*
X115313973Y-119122451D01*
X115247306Y-119201023D01*
X115180639Y-119358166D01*
X115180639Y-119751023D01*
X115247306Y-119908166D01*
X115313973Y-119986737D01*
X115447306Y-120065309D01*
X115847306Y-120065309D01*
X115980639Y-119986737D01*
X116047306Y-119908166D01*
X118513973Y-122625309D02*
X118513973Y-120975309D01*
X117980639Y-120975309D01*
X117847306Y-121053880D01*
X117780639Y-121132451D01*
X117713973Y-121289594D01*
X117713973Y-121525309D01*
X117780639Y-121682451D01*
X117847306Y-121761023D01*
X117980639Y-121839594D01*
X118513973Y-121839594D01*
X117180639Y-122153880D02*
X116513973Y-122153880D01*
X117313973Y-122625309D02*
X116847306Y-120975309D01*
X116380639Y-122625309D01*
X115180639Y-122625309D02*
X115980639Y-122625309D01*
X115580639Y-122625309D02*
X115580639Y-120975309D01*
X115713973Y-121211023D01*
X115847306Y-121368166D01*
X115980639Y-121446737D01*
X117567673Y-123674131D02*
X118281959Y-123674131D01*
X118353388Y-124388417D01*
X118281959Y-124316989D01*
X118139102Y-124245560D01*
X117781959Y-124245560D01*
X117639102Y-124316989D01*
X117567673Y-124388417D01*
X117496245Y-124531274D01*
X117496245Y-124888417D01*
X117567673Y-125031274D01*
X117639102Y-125102703D01*
X117781959Y-125174131D01*
X118139102Y-125174131D01*
X118281959Y-125102703D01*
X118353388Y-125031274D01*
X117067674Y-123674131D02*
X116567674Y-125174131D01*
X116067674Y-123674131D01*
D13*
X131002697Y-118960806D02*
X131081269Y-119175092D01*
X131081269Y-119532235D01*
X131002697Y-119675092D01*
X130924126Y-119746521D01*
X130766983Y-119817949D01*
X130609840Y-119817949D01*
X130452697Y-119746521D01*
X130374126Y-119675092D01*
X130295554Y-119532235D01*
X130216983Y-119246521D01*
X130138411Y-119103663D01*
X130059840Y-119032235D01*
X129902697Y-118960806D01*
X129745554Y-118960806D01*
X129588411Y-119032235D01*
X129509840Y-119103663D01*
X129431269Y-119246521D01*
X129431269Y-119603663D01*
X129509840Y-119817949D01*
X130924126Y-121317949D02*
X131002697Y-121246520D01*
X131081269Y-121032234D01*
X131081269Y-120889377D01*
X131002697Y-120675092D01*
X130845554Y-120532234D01*
X130688411Y-120460806D01*
X130374126Y-120389377D01*
X130138411Y-120389377D01*
X129824126Y-120460806D01*
X129666983Y-120532234D01*
X129509840Y-120675092D01*
X129431269Y-120889377D01*
X129431269Y-121032234D01*
X129509840Y-121246520D01*
X129588411Y-121317949D01*
X131081269Y-122675092D02*
X131081269Y-121960806D01*
X129431269Y-121960806D01*
X133566697Y-118925092D02*
X133645269Y-119139378D01*
X133645269Y-119496521D01*
X133566697Y-119639378D01*
X133488126Y-119710807D01*
X133330983Y-119782235D01*
X133173840Y-119782235D01*
X133016697Y-119710807D01*
X132938126Y-119639378D01*
X132859554Y-119496521D01*
X132780983Y-119210807D01*
X132702411Y-119067949D01*
X132623840Y-118996521D01*
X132466697Y-118925092D01*
X132309554Y-118925092D01*
X132152411Y-118996521D01*
X132073840Y-119067949D01*
X131995269Y-119210807D01*
X131995269Y-119567949D01*
X132073840Y-119782235D01*
X133645269Y-120425092D02*
X131995269Y-120425092D01*
X131995269Y-120782235D01*
X132073840Y-120996520D01*
X132230983Y-121139378D01*
X132388126Y-121210806D01*
X132702411Y-121282235D01*
X132938126Y-121282235D01*
X133252411Y-121210806D01*
X133409554Y-121139378D01*
X133566697Y-120996520D01*
X133645269Y-120782235D01*
X133645269Y-120425092D01*
X133173840Y-121853663D02*
X133173840Y-122567949D01*
X133645269Y-121710806D02*
X131995269Y-122210806D01*
X133645269Y-122710806D01*
X136209269Y-119782235D02*
X135423554Y-119282235D01*
X136209269Y-118925092D02*
X134559269Y-118925092D01*
X134559269Y-119496520D01*
X134637840Y-119639378D01*
X134716411Y-119710806D01*
X134873554Y-119782235D01*
X135109269Y-119782235D01*
X135266411Y-119710806D01*
X135344983Y-119639378D01*
X135423554Y-119496520D01*
X135423554Y-118925092D01*
X134559269Y-120282235D02*
X136209269Y-121282235D01*
X134559269Y-121282235D02*
X136209269Y-120282235D01*
X136209269Y-122639377D02*
X136209269Y-121782234D01*
X136209269Y-122210806D02*
X134559269Y-122210806D01*
X134794983Y-122067949D01*
X134952126Y-121925091D01*
X135030697Y-121782234D01*
X137123269Y-118889378D02*
X137123269Y-119746521D01*
X138773269Y-119317950D02*
X137123269Y-119317950D01*
X137123269Y-120103664D02*
X138773269Y-121103664D01*
X137123269Y-121103664D02*
X138773269Y-120103664D01*
X138773269Y-122460806D02*
X138773269Y-121603663D01*
X138773269Y-122032235D02*
X137123269Y-122032235D01*
X137358983Y-121889378D01*
X137516126Y-121746520D01*
X137594697Y-121603663D01*
X141337269Y-119782235D02*
X140551554Y-119282235D01*
X141337269Y-118925092D02*
X139687269Y-118925092D01*
X139687269Y-119496520D01*
X139765840Y-119639378D01*
X139844411Y-119710806D01*
X140001554Y-119782235D01*
X140237269Y-119782235D01*
X140394411Y-119710806D01*
X140472983Y-119639378D01*
X140551554Y-119496520D01*
X140551554Y-118925092D01*
X139687269Y-120282235D02*
X141337269Y-121282235D01*
X139687269Y-121282235D02*
X141337269Y-120282235D01*
X139844411Y-121782234D02*
X139765840Y-121853663D01*
X139687269Y-121996520D01*
X139687269Y-122353663D01*
X139765840Y-122496520D01*
X139844411Y-122567949D01*
X140001554Y-122639377D01*
X140158697Y-122639377D01*
X140394411Y-122567949D01*
X141337269Y-121710806D01*
X141337269Y-122639377D01*
X142251269Y-118889378D02*
X142251269Y-119746521D01*
X143901269Y-119317950D02*
X142251269Y-119317950D01*
X142251269Y-120103664D02*
X143901269Y-121103664D01*
X142251269Y-121103664D02*
X143901269Y-120103664D01*
X142408411Y-121603663D02*
X142329840Y-121675092D01*
X142251269Y-121817949D01*
X142251269Y-122175092D01*
X142329840Y-122317949D01*
X142408411Y-122389378D01*
X142565554Y-122460806D01*
X142722697Y-122460806D01*
X142958411Y-122389378D01*
X143901269Y-121532235D01*
X143901269Y-122460806D01*
X146465269Y-119782235D02*
X145679554Y-119282235D01*
X146465269Y-118925092D02*
X144815269Y-118925092D01*
X144815269Y-119496520D01*
X144893840Y-119639378D01*
X144972411Y-119710806D01*
X145129554Y-119782235D01*
X145365269Y-119782235D01*
X145522411Y-119710806D01*
X145600983Y-119639378D01*
X145679554Y-119496520D01*
X145679554Y-118925092D01*
X144815269Y-120282235D02*
X146465269Y-121282235D01*
X144815269Y-121282235D02*
X146465269Y-120282235D01*
X144815269Y-121710806D02*
X144815269Y-122639377D01*
X145443840Y-122139377D01*
X145443840Y-122353663D01*
X145522411Y-122496520D01*
X145600983Y-122567949D01*
X145758126Y-122639377D01*
X146150983Y-122639377D01*
X146308126Y-122567949D01*
X146386697Y-122496520D01*
X146465269Y-122353663D01*
X146465269Y-121925091D01*
X146386697Y-121782234D01*
X146308126Y-121710806D01*
X147379269Y-118889378D02*
X147379269Y-119746521D01*
X149029269Y-119317950D02*
X147379269Y-119317950D01*
X147379269Y-120103664D02*
X149029269Y-121103664D01*
X147379269Y-121103664D02*
X149029269Y-120103664D01*
X147379269Y-121532235D02*
X147379269Y-122460806D01*
X148007840Y-121960806D01*
X148007840Y-122175092D01*
X148086411Y-122317949D01*
X148164983Y-122389378D01*
X148322126Y-122460806D01*
X148714983Y-122460806D01*
X148872126Y-122389378D01*
X148950697Y-122317949D01*
X149029269Y-122175092D01*
X149029269Y-121746520D01*
X148950697Y-121603663D01*
X148872126Y-121532235D01*
X153926029Y-119468024D02*
X153140314Y-118968024D01*
X153926029Y-118610881D02*
X152276029Y-118610881D01*
X152276029Y-119182309D01*
X152354600Y-119325167D01*
X152433171Y-119396595D01*
X152590314Y-119468024D01*
X152826029Y-119468024D01*
X152983171Y-119396595D01*
X153061743Y-119325167D01*
X153140314Y-119182309D01*
X153140314Y-118610881D01*
X152276029Y-119968024D02*
X153926029Y-120968024D01*
X152276029Y-120968024D02*
X153926029Y-119968024D01*
X152276029Y-121825166D02*
X152276029Y-121968023D01*
X152354600Y-122110880D01*
X152433171Y-122182309D01*
X152590314Y-122253738D01*
X152904600Y-122325166D01*
X153297457Y-122325166D01*
X153611743Y-122253738D01*
X153768886Y-122182309D01*
X153847457Y-122110880D01*
X153926029Y-121968023D01*
X153926029Y-121825166D01*
X153847457Y-121682309D01*
X153768886Y-121610880D01*
X153611743Y-121539452D01*
X153297457Y-121468023D01*
X152904600Y-121468023D01*
X152590314Y-121539452D01*
X152433171Y-121610880D01*
X152354600Y-121682309D01*
X152276029Y-121825166D01*
X154840029Y-118753738D02*
X154840029Y-119610881D01*
X156490029Y-119182310D02*
X154840029Y-119182310D01*
X154840029Y-119968024D02*
X156490029Y-120968024D01*
X154840029Y-120968024D02*
X156490029Y-119968024D01*
X154840029Y-121825166D02*
X154840029Y-121968023D01*
X154918600Y-122110880D01*
X154997171Y-122182309D01*
X155154314Y-122253738D01*
X155468600Y-122325166D01*
X155861457Y-122325166D01*
X156175743Y-122253738D01*
X156332886Y-122182309D01*
X156411457Y-122110880D01*
X156490029Y-121968023D01*
X156490029Y-121825166D01*
X156411457Y-121682309D01*
X156332886Y-121610880D01*
X156175743Y-121539452D01*
X155861457Y-121468023D01*
X155468600Y-121468023D01*
X155154314Y-121539452D01*
X154997171Y-121610880D01*
X154918600Y-121682309D01*
X154840029Y-121825166D01*
X157561171Y-121468023D02*
X157482600Y-121539452D01*
X157404029Y-121682309D01*
X157404029Y-122039452D01*
X157482600Y-122182309D01*
X157561171Y-122253738D01*
X157718314Y-122325166D01*
X157875457Y-122325166D01*
X158111171Y-122253738D01*
X159054029Y-121396595D01*
X159054029Y-122325166D01*
X159968029Y-121396595D02*
X159968029Y-122325166D01*
X160596600Y-121825166D01*
X160596600Y-122039452D01*
X160675171Y-122182309D01*
X160753743Y-122253738D01*
X160910886Y-122325166D01*
X161303743Y-122325166D01*
X161460886Y-122253738D01*
X161539457Y-122182309D01*
X161618029Y-122039452D01*
X161618029Y-121610880D01*
X161539457Y-121468023D01*
X161460886Y-121396595D01*
X163082029Y-122182309D02*
X164182029Y-122182309D01*
X162453457Y-121825166D02*
X163632029Y-121468023D01*
X163632029Y-122396595D01*
X165096029Y-122253738D02*
X165096029Y-121539452D01*
X165881743Y-121468023D01*
X165803171Y-121539452D01*
X165724600Y-121682309D01*
X165724600Y-122039452D01*
X165803171Y-122182309D01*
X165881743Y-122253738D01*
X166038886Y-122325166D01*
X166431743Y-122325166D01*
X166588886Y-122253738D01*
X166667457Y-122182309D01*
X166746029Y-122039452D01*
X166746029Y-121682309D01*
X166667457Y-121539452D01*
X166588886Y-121468023D01*
X167660029Y-122182309D02*
X167660029Y-121896595D01*
X167738600Y-121753738D01*
X167817171Y-121682309D01*
X168052886Y-121539452D01*
X168367171Y-121468023D01*
X168995743Y-121468023D01*
X169152886Y-121539452D01*
X169231457Y-121610880D01*
X169310029Y-121753738D01*
X169310029Y-122039452D01*
X169231457Y-122182309D01*
X169152886Y-122253738D01*
X168995743Y-122325166D01*
X168602886Y-122325166D01*
X168445743Y-122253738D01*
X168367171Y-122182309D01*
X168288600Y-122039452D01*
X168288600Y-121753738D01*
X168367171Y-121610880D01*
X168445743Y-121539452D01*
X168602886Y-121468023D01*
X170224029Y-121396595D02*
X170224029Y-122396595D01*
X171874029Y-121753738D01*
X175050691Y-121895978D02*
X174972120Y-121753120D01*
X174893549Y-121681692D01*
X174736406Y-121610263D01*
X174657834Y-121610263D01*
X174500691Y-121681692D01*
X174422120Y-121753120D01*
X174343549Y-121895978D01*
X174343549Y-122181692D01*
X174422120Y-122324549D01*
X174500691Y-122395978D01*
X174657834Y-122467406D01*
X174736406Y-122467406D01*
X174893549Y-122395978D01*
X174972120Y-122324549D01*
X175050691Y-122181692D01*
X175050691Y-121895978D01*
X175129263Y-121753120D01*
X175207834Y-121681692D01*
X175364977Y-121610263D01*
X175679263Y-121610263D01*
X175836406Y-121681692D01*
X175914977Y-121753120D01*
X175993549Y-121895978D01*
X175993549Y-122181692D01*
X175914977Y-122324549D01*
X175836406Y-122395978D01*
X175679263Y-122467406D01*
X175364977Y-122467406D01*
X175207834Y-122395978D01*
X175129263Y-122324549D01*
X175050691Y-122181692D01*
X178557549Y-121753120D02*
X178557549Y-122038835D01*
X178478977Y-122181692D01*
X178400406Y-122253120D01*
X178164691Y-122395978D01*
X177850406Y-122467406D01*
X177221834Y-122467406D01*
X177064691Y-122395978D01*
X176986120Y-122324549D01*
X176907549Y-122181692D01*
X176907549Y-121895978D01*
X176986120Y-121753120D01*
X177064691Y-121681692D01*
X177221834Y-121610263D01*
X177614691Y-121610263D01*
X177771834Y-121681692D01*
X177850406Y-121753120D01*
X177928977Y-121895978D01*
X177928977Y-122181692D01*
X177850406Y-122324549D01*
X177771834Y-122395978D01*
X177614691Y-122467406D01*
X181121549Y-121038835D02*
X181121549Y-120181692D01*
X181121549Y-120610264D02*
X179471549Y-120610264D01*
X179707263Y-120467407D01*
X179864406Y-120324549D01*
X179942977Y-120181692D01*
X179471549Y-121967406D02*
X179471549Y-122110263D01*
X179550120Y-122253120D01*
X179628691Y-122324549D01*
X179785834Y-122395978D01*
X180100120Y-122467406D01*
X180492977Y-122467406D01*
X180807263Y-122395978D01*
X180964406Y-122324549D01*
X181042977Y-122253120D01*
X181121549Y-122110263D01*
X181121549Y-121967406D01*
X181042977Y-121824549D01*
X180964406Y-121753120D01*
X180807263Y-121681692D01*
X180492977Y-121610263D01*
X180100120Y-121610263D01*
X179785834Y-121681692D01*
X179628691Y-121753120D01*
X179550120Y-121824549D01*
X179471549Y-121967406D01*
X183685549Y-121038835D02*
X183685549Y-120181692D01*
X183685549Y-120610264D02*
X182035549Y-120610264D01*
X182271263Y-120467407D01*
X182428406Y-120324549D01*
X182506977Y-120181692D01*
X183685549Y-122467406D02*
X183685549Y-121610263D01*
X183685549Y-122038835D02*
X182035549Y-122038835D01*
X182271263Y-121895978D01*
X182428406Y-121753120D01*
X182506977Y-121610263D01*
X186249549Y-121038835D02*
X186249549Y-120181692D01*
X186249549Y-120610264D02*
X184599549Y-120610264D01*
X184835263Y-120467407D01*
X184992406Y-120324549D01*
X185070977Y-120181692D01*
X184756691Y-121610263D02*
X184678120Y-121681692D01*
X184599549Y-121824549D01*
X184599549Y-122181692D01*
X184678120Y-122324549D01*
X184756691Y-122395978D01*
X184913834Y-122467406D01*
X185070977Y-122467406D01*
X185306691Y-122395978D01*
X186249549Y-121538835D01*
X186249549Y-122467406D01*
X188813549Y-121038835D02*
X188813549Y-120181692D01*
X188813549Y-120610264D02*
X187163549Y-120610264D01*
X187399263Y-120467407D01*
X187556406Y-120324549D01*
X187634977Y-120181692D01*
X187163549Y-121538835D02*
X187163549Y-122467406D01*
X187792120Y-121967406D01*
X187792120Y-122181692D01*
X187870691Y-122324549D01*
X187949263Y-122395978D01*
X188106406Y-122467406D01*
X188499263Y-122467406D01*
X188656406Y-122395978D01*
X188734977Y-122324549D01*
X188813549Y-122181692D01*
X188813549Y-121753120D01*
X188734977Y-121610263D01*
X188656406Y-121538835D01*
X189806120Y-119324548D02*
X189727549Y-119181691D01*
X189727549Y-118967405D01*
X189806120Y-118753120D01*
X189963263Y-118610262D01*
X190120406Y-118538834D01*
X190434691Y-118467405D01*
X190670406Y-118467405D01*
X190984691Y-118538834D01*
X191141834Y-118610262D01*
X191298977Y-118753120D01*
X191377549Y-118967405D01*
X191377549Y-119110262D01*
X191298977Y-119324548D01*
X191220406Y-119395977D01*
X190670406Y-119395977D01*
X190670406Y-119110262D01*
X191377549Y-120038834D02*
X189727549Y-120038834D01*
X191377549Y-120895977D01*
X189727549Y-120895977D01*
X191377549Y-121610263D02*
X189727549Y-121610263D01*
X189727549Y-121967406D01*
X189806120Y-122181691D01*
X189963263Y-122324549D01*
X190120406Y-122395977D01*
X190434691Y-122467406D01*
X190670406Y-122467406D01*
X190984691Y-122395977D01*
X191141834Y-122324549D01*
X191298977Y-122181691D01*
X191377549Y-121967406D01*
X191377549Y-121610263D01*
X193470120Y-117610263D02*
X193470120Y-118324549D01*
X193941549Y-117467406D02*
X192291549Y-117967406D01*
X193941549Y-118467406D01*
X193941549Y-119824549D02*
X193155834Y-119324549D01*
X193941549Y-118967406D02*
X192291549Y-118967406D01*
X192291549Y-119538834D01*
X192370120Y-119681692D01*
X192448691Y-119753120D01*
X192605834Y-119824549D01*
X192841549Y-119824549D01*
X192998691Y-119753120D01*
X193077263Y-119681692D01*
X193155834Y-119538834D01*
X193155834Y-118967406D01*
X193077263Y-120467406D02*
X193077263Y-120967406D01*
X193941549Y-121181692D02*
X193941549Y-120467406D01*
X192291549Y-120467406D01*
X192291549Y-121181692D01*
X193077263Y-122324549D02*
X193077263Y-121824549D01*
X193941549Y-121824549D02*
X192291549Y-121824549D01*
X192291549Y-122538835D01*
X125606040Y-78090374D02*
X125606040Y-78757040D01*
X126077469Y-77957040D02*
X124427469Y-78423707D01*
X126077469Y-78890374D01*
X126077469Y-79357040D02*
X124427469Y-79357040D01*
X124427469Y-79690374D01*
X124506040Y-79890374D01*
X124663183Y-80023707D01*
X124820326Y-80090374D01*
X125134611Y-80157040D01*
X125370326Y-80157040D01*
X125684611Y-80090374D01*
X125841754Y-80023707D01*
X125998897Y-79890374D01*
X126077469Y-79690374D01*
X126077469Y-79357040D01*
X126077469Y-81490374D02*
X126077469Y-80690374D01*
X126077469Y-81090374D02*
X124427469Y-81090374D01*
X124663183Y-80957040D01*
X124820326Y-80823707D01*
X124898897Y-80690374D01*
X124427469Y-82757040D02*
X124427469Y-82090373D01*
X125213183Y-82023707D01*
X125134611Y-82090373D01*
X125056040Y-82223707D01*
X125056040Y-82557040D01*
X125134611Y-82690373D01*
X125213183Y-82757040D01*
X125370326Y-82823707D01*
X125763183Y-82823707D01*
X125920326Y-82757040D01*
X125998897Y-82690373D01*
X126077469Y-82557040D01*
X126077469Y-82223707D01*
X125998897Y-82090373D01*
X125920326Y-82023707D01*
X128170040Y-78090374D02*
X128170040Y-78757040D01*
X128641469Y-77957040D02*
X126991469Y-78423707D01*
X128641469Y-78890374D01*
X128641469Y-79357040D02*
X126991469Y-79357040D01*
X126991469Y-79690374D01*
X127070040Y-79890374D01*
X127227183Y-80023707D01*
X127384326Y-80090374D01*
X127698611Y-80157040D01*
X127934326Y-80157040D01*
X128248611Y-80090374D01*
X128405754Y-80023707D01*
X128562897Y-79890374D01*
X128641469Y-79690374D01*
X128641469Y-79357040D01*
X128641469Y-81490374D02*
X128641469Y-80690374D01*
X128641469Y-81090374D02*
X126991469Y-81090374D01*
X127227183Y-80957040D01*
X127384326Y-80823707D01*
X127462897Y-80690374D01*
X127541469Y-82690373D02*
X128641469Y-82690373D01*
X126912897Y-82357040D02*
X128091469Y-82023707D01*
X128091469Y-82890373D01*
X130734040Y-78090374D02*
X130734040Y-78757040D01*
X131205469Y-77957040D02*
X129555469Y-78423707D01*
X131205469Y-78890374D01*
X131205469Y-79357040D02*
X129555469Y-79357040D01*
X129555469Y-79690374D01*
X129634040Y-79890374D01*
X129791183Y-80023707D01*
X129948326Y-80090374D01*
X130262611Y-80157040D01*
X130498326Y-80157040D01*
X130812611Y-80090374D01*
X130969754Y-80023707D01*
X131126897Y-79890374D01*
X131205469Y-79690374D01*
X131205469Y-79357040D01*
X131205469Y-81490374D02*
X131205469Y-80690374D01*
X131205469Y-81090374D02*
X129555469Y-81090374D01*
X129791183Y-80957040D01*
X129948326Y-80823707D01*
X130026897Y-80690374D01*
X129555469Y-81957040D02*
X129555469Y-82823707D01*
X130184040Y-82357040D01*
X130184040Y-82557040D01*
X130262611Y-82690373D01*
X130341183Y-82757040D01*
X130498326Y-82823707D01*
X130891183Y-82823707D01*
X131048326Y-82757040D01*
X131126897Y-82690373D01*
X131205469Y-82557040D01*
X131205469Y-82157040D01*
X131126897Y-82023707D01*
X131048326Y-81957040D01*
X133298040Y-78090374D02*
X133298040Y-78757040D01*
X133769469Y-77957040D02*
X132119469Y-78423707D01*
X133769469Y-78890374D01*
X133769469Y-79357040D02*
X132119469Y-79357040D01*
X132119469Y-79690374D01*
X132198040Y-79890374D01*
X132355183Y-80023707D01*
X132512326Y-80090374D01*
X132826611Y-80157040D01*
X133062326Y-80157040D01*
X133376611Y-80090374D01*
X133533754Y-80023707D01*
X133690897Y-79890374D01*
X133769469Y-79690374D01*
X133769469Y-79357040D01*
X133769469Y-81490374D02*
X133769469Y-80690374D01*
X133769469Y-81090374D02*
X132119469Y-81090374D01*
X132355183Y-80957040D01*
X132512326Y-80823707D01*
X132590897Y-80690374D01*
X132276611Y-82023707D02*
X132198040Y-82090373D01*
X132119469Y-82223707D01*
X132119469Y-82557040D01*
X132198040Y-82690373D01*
X132276611Y-82757040D01*
X132433754Y-82823707D01*
X132590897Y-82823707D01*
X132826611Y-82757040D01*
X133769469Y-81957040D01*
X133769469Y-82823707D01*
X135862040Y-78090374D02*
X135862040Y-78757040D01*
X136333469Y-77957040D02*
X134683469Y-78423707D01*
X136333469Y-78890374D01*
X136333469Y-79357040D02*
X134683469Y-79357040D01*
X134683469Y-79690374D01*
X134762040Y-79890374D01*
X134919183Y-80023707D01*
X135076326Y-80090374D01*
X135390611Y-80157040D01*
X135626326Y-80157040D01*
X135940611Y-80090374D01*
X136097754Y-80023707D01*
X136254897Y-79890374D01*
X136333469Y-79690374D01*
X136333469Y-79357040D01*
X136333469Y-81490374D02*
X136333469Y-80690374D01*
X136333469Y-81090374D02*
X134683469Y-81090374D01*
X134919183Y-80957040D01*
X135076326Y-80823707D01*
X135154897Y-80690374D01*
X136333469Y-82823707D02*
X136333469Y-82023707D01*
X136333469Y-82423707D02*
X134683469Y-82423707D01*
X134919183Y-82290373D01*
X135076326Y-82157040D01*
X135154897Y-82023707D01*
X138426040Y-78090374D02*
X138426040Y-78757040D01*
X138897469Y-77957040D02*
X137247469Y-78423707D01*
X138897469Y-78890374D01*
X138897469Y-79357040D02*
X137247469Y-79357040D01*
X137247469Y-79690374D01*
X137326040Y-79890374D01*
X137483183Y-80023707D01*
X137640326Y-80090374D01*
X137954611Y-80157040D01*
X138190326Y-80157040D01*
X138504611Y-80090374D01*
X138661754Y-80023707D01*
X138818897Y-79890374D01*
X138897469Y-79690374D01*
X138897469Y-79357040D01*
X138897469Y-81490374D02*
X138897469Y-80690374D01*
X138897469Y-81090374D02*
X137247469Y-81090374D01*
X137483183Y-80957040D01*
X137640326Y-80823707D01*
X137718897Y-80690374D01*
X137247469Y-82357040D02*
X137247469Y-82490373D01*
X137326040Y-82623707D01*
X137404611Y-82690373D01*
X137561754Y-82757040D01*
X137876040Y-82823707D01*
X138268897Y-82823707D01*
X138583183Y-82757040D01*
X138740326Y-82690373D01*
X138818897Y-82623707D01*
X138897469Y-82490373D01*
X138897469Y-82357040D01*
X138818897Y-82223707D01*
X138740326Y-82157040D01*
X138583183Y-82090373D01*
X138268897Y-82023707D01*
X137876040Y-82023707D01*
X137561754Y-82090373D01*
X137404611Y-82157040D01*
X137326040Y-82223707D01*
X137247469Y-82357040D01*
X140990040Y-78757041D02*
X140990040Y-79423707D01*
X141461469Y-78623707D02*
X139811469Y-79090374D01*
X141461469Y-79557041D01*
X141461469Y-80023707D02*
X139811469Y-80023707D01*
X139811469Y-80357041D01*
X139890040Y-80557041D01*
X140047183Y-80690374D01*
X140204326Y-80757041D01*
X140518611Y-80823707D01*
X140754326Y-80823707D01*
X141068611Y-80757041D01*
X141225754Y-80690374D01*
X141382897Y-80557041D01*
X141461469Y-80357041D01*
X141461469Y-80023707D01*
X141461469Y-81490374D02*
X141461469Y-81757041D01*
X141382897Y-81890374D01*
X141304326Y-81957041D01*
X141068611Y-82090374D01*
X140754326Y-82157041D01*
X140125754Y-82157041D01*
X139968611Y-82090374D01*
X139890040Y-82023707D01*
X139811469Y-81890374D01*
X139811469Y-81623707D01*
X139890040Y-81490374D01*
X139968611Y-81423707D01*
X140125754Y-81357041D01*
X140518611Y-81357041D01*
X140675754Y-81423707D01*
X140754326Y-81490374D01*
X140832897Y-81623707D01*
X140832897Y-81890374D01*
X140754326Y-82023707D01*
X140675754Y-82090374D01*
X140518611Y-82157041D01*
X143554040Y-78757041D02*
X143554040Y-79423707D01*
X144025469Y-78623707D02*
X142375469Y-79090374D01*
X144025469Y-79557041D01*
X144025469Y-80023707D02*
X142375469Y-80023707D01*
X142375469Y-80357041D01*
X142454040Y-80557041D01*
X142611183Y-80690374D01*
X142768326Y-80757041D01*
X143082611Y-80823707D01*
X143318326Y-80823707D01*
X143632611Y-80757041D01*
X143789754Y-80690374D01*
X143946897Y-80557041D01*
X144025469Y-80357041D01*
X144025469Y-80023707D01*
X143082611Y-81623707D02*
X143004040Y-81490374D01*
X142925469Y-81423707D01*
X142768326Y-81357041D01*
X142689754Y-81357041D01*
X142532611Y-81423707D01*
X142454040Y-81490374D01*
X142375469Y-81623707D01*
X142375469Y-81890374D01*
X142454040Y-82023707D01*
X142532611Y-82090374D01*
X142689754Y-82157041D01*
X142768326Y-82157041D01*
X142925469Y-82090374D01*
X143004040Y-82023707D01*
X143082611Y-81890374D01*
X143082611Y-81623707D01*
X143161183Y-81490374D01*
X143239754Y-81423707D01*
X143396897Y-81357041D01*
X143711183Y-81357041D01*
X143868326Y-81423707D01*
X143946897Y-81490374D01*
X144025469Y-81623707D01*
X144025469Y-81890374D01*
X143946897Y-82023707D01*
X143868326Y-82090374D01*
X143711183Y-82157041D01*
X143396897Y-82157041D01*
X143239754Y-82090374D01*
X143161183Y-82023707D01*
X143082611Y-81890374D01*
X148318720Y-78234292D02*
X148318720Y-78948578D01*
X148790149Y-78091435D02*
X147140149Y-78591435D01*
X148790149Y-79091435D01*
X148790149Y-79591435D02*
X147140149Y-79591435D01*
X147140149Y-79948578D01*
X147218720Y-80162863D01*
X147375863Y-80305721D01*
X147533006Y-80377149D01*
X147847291Y-80448578D01*
X148083006Y-80448578D01*
X148397291Y-80377149D01*
X148554434Y-80305721D01*
X148711577Y-80162863D01*
X148790149Y-79948578D01*
X148790149Y-79591435D01*
X147140149Y-80948578D02*
X147140149Y-81948578D01*
X148790149Y-81305721D01*
X150882720Y-78234292D02*
X150882720Y-78948578D01*
X151354149Y-78091435D02*
X149704149Y-78591435D01*
X151354149Y-79091435D01*
X151354149Y-79591435D02*
X149704149Y-79591435D01*
X149704149Y-79948578D01*
X149782720Y-80162863D01*
X149939863Y-80305721D01*
X150097006Y-80377149D01*
X150411291Y-80448578D01*
X150647006Y-80448578D01*
X150961291Y-80377149D01*
X151118434Y-80305721D01*
X151275577Y-80162863D01*
X151354149Y-79948578D01*
X151354149Y-79591435D01*
X149704149Y-81734292D02*
X149704149Y-81448578D01*
X149782720Y-81305721D01*
X149861291Y-81234292D01*
X150097006Y-81091435D01*
X150411291Y-81020006D01*
X151039863Y-81020006D01*
X151197006Y-81091435D01*
X151275577Y-81162863D01*
X151354149Y-81305721D01*
X151354149Y-81591435D01*
X151275577Y-81734292D01*
X151197006Y-81805721D01*
X151039863Y-81877149D01*
X150647006Y-81877149D01*
X150489863Y-81805721D01*
X150411291Y-81734292D01*
X150332720Y-81591435D01*
X150332720Y-81305721D01*
X150411291Y-81162863D01*
X150489863Y-81091435D01*
X150647006Y-81020006D01*
X153446720Y-78234292D02*
X153446720Y-78948578D01*
X153918149Y-78091435D02*
X152268149Y-78591435D01*
X153918149Y-79091435D01*
X153918149Y-79591435D02*
X152268149Y-79591435D01*
X152268149Y-79948578D01*
X152346720Y-80162863D01*
X152503863Y-80305721D01*
X152661006Y-80377149D01*
X152975291Y-80448578D01*
X153211006Y-80448578D01*
X153525291Y-80377149D01*
X153682434Y-80305721D01*
X153839577Y-80162863D01*
X153918149Y-79948578D01*
X153918149Y-79591435D01*
X152268149Y-81805721D02*
X152268149Y-81091435D01*
X153053863Y-81020006D01*
X152975291Y-81091435D01*
X152896720Y-81234292D01*
X152896720Y-81591435D01*
X152975291Y-81734292D01*
X153053863Y-81805721D01*
X153211006Y-81877149D01*
X153603863Y-81877149D01*
X153761006Y-81805721D01*
X153839577Y-81734292D01*
X153918149Y-81591435D01*
X153918149Y-81234292D01*
X153839577Y-81091435D01*
X153761006Y-81020006D01*
X156010720Y-78234292D02*
X156010720Y-78948578D01*
X156482149Y-78091435D02*
X154832149Y-78591435D01*
X156482149Y-79091435D01*
X156482149Y-79591435D02*
X154832149Y-79591435D01*
X154832149Y-79948578D01*
X154910720Y-80162863D01*
X155067863Y-80305721D01*
X155225006Y-80377149D01*
X155539291Y-80448578D01*
X155775006Y-80448578D01*
X156089291Y-80377149D01*
X156246434Y-80305721D01*
X156403577Y-80162863D01*
X156482149Y-79948578D01*
X156482149Y-79591435D01*
X155382149Y-81734292D02*
X156482149Y-81734292D01*
X154753577Y-81377149D02*
X155932149Y-81020006D01*
X155932149Y-81948578D01*
X158574720Y-78234292D02*
X158574720Y-78948578D01*
X159046149Y-78091435D02*
X157396149Y-78591435D01*
X159046149Y-79091435D01*
X159046149Y-79591435D02*
X157396149Y-79591435D01*
X157396149Y-79948578D01*
X157474720Y-80162863D01*
X157631863Y-80305721D01*
X157789006Y-80377149D01*
X158103291Y-80448578D01*
X158339006Y-80448578D01*
X158653291Y-80377149D01*
X158810434Y-80305721D01*
X158967577Y-80162863D01*
X159046149Y-79948578D01*
X159046149Y-79591435D01*
X157396149Y-80948578D02*
X157396149Y-81877149D01*
X158024720Y-81377149D01*
X158024720Y-81591435D01*
X158103291Y-81734292D01*
X158181863Y-81805721D01*
X158339006Y-81877149D01*
X158731863Y-81877149D01*
X158889006Y-81805721D01*
X158967577Y-81734292D01*
X159046149Y-81591435D01*
X159046149Y-81162863D01*
X158967577Y-81020006D01*
X158889006Y-80948578D01*
X161138720Y-78234292D02*
X161138720Y-78948578D01*
X161610149Y-78091435D02*
X159960149Y-78591435D01*
X161610149Y-79091435D01*
X161610149Y-79591435D02*
X159960149Y-79591435D01*
X159960149Y-79948578D01*
X160038720Y-80162863D01*
X160195863Y-80305721D01*
X160353006Y-80377149D01*
X160667291Y-80448578D01*
X160903006Y-80448578D01*
X161217291Y-80377149D01*
X161374434Y-80305721D01*
X161531577Y-80162863D01*
X161610149Y-79948578D01*
X161610149Y-79591435D01*
X160117291Y-81020006D02*
X160038720Y-81091435D01*
X159960149Y-81234292D01*
X159960149Y-81591435D01*
X160038720Y-81734292D01*
X160117291Y-81805721D01*
X160274434Y-81877149D01*
X160431577Y-81877149D01*
X160667291Y-81805721D01*
X161610149Y-80948578D01*
X161610149Y-81877149D01*
X163702720Y-78234292D02*
X163702720Y-78948578D01*
X164174149Y-78091435D02*
X162524149Y-78591435D01*
X164174149Y-79091435D01*
X164174149Y-79591435D02*
X162524149Y-79591435D01*
X162524149Y-79948578D01*
X162602720Y-80162863D01*
X162759863Y-80305721D01*
X162917006Y-80377149D01*
X163231291Y-80448578D01*
X163467006Y-80448578D01*
X163781291Y-80377149D01*
X163938434Y-80305721D01*
X164095577Y-80162863D01*
X164174149Y-79948578D01*
X164174149Y-79591435D01*
X164174149Y-81877149D02*
X164174149Y-81020006D01*
X164174149Y-81448578D02*
X162524149Y-81448578D01*
X162759863Y-81305721D01*
X162917006Y-81162863D01*
X162995577Y-81020006D01*
X166266720Y-78234292D02*
X166266720Y-78948578D01*
X166738149Y-78091435D02*
X165088149Y-78591435D01*
X166738149Y-79091435D01*
X166738149Y-79591435D02*
X165088149Y-79591435D01*
X165088149Y-79948578D01*
X165166720Y-80162863D01*
X165323863Y-80305721D01*
X165481006Y-80377149D01*
X165795291Y-80448578D01*
X166031006Y-80448578D01*
X166345291Y-80377149D01*
X166502434Y-80305721D01*
X166659577Y-80162863D01*
X166738149Y-79948578D01*
X166738149Y-79591435D01*
X165088149Y-81377149D02*
X165088149Y-81520006D01*
X165166720Y-81662863D01*
X165245291Y-81734292D01*
X165402434Y-81805721D01*
X165716720Y-81877149D01*
X166109577Y-81877149D01*
X166423863Y-81805721D01*
X166581006Y-81734292D01*
X166659577Y-81662863D01*
X166738149Y-81520006D01*
X166738149Y-81377149D01*
X166659577Y-81234292D01*
X166581006Y-81162863D01*
X166423863Y-81091435D01*
X166109577Y-81020006D01*
X165716720Y-81020006D01*
X165402434Y-81091435D01*
X165245291Y-81162863D01*
X165166720Y-81234292D01*
X165088149Y-81377149D01*
D11*
X185877200Y-80548480D02*
X186944000Y-81696560D01*
X185877200Y-80548480D02*
X186944000Y-79405480D01*
X189859920Y-80558640D02*
X185877200Y-80548480D01*
D14*
X191750760Y-78472839D02*
X191750760Y-79187125D01*
X192179331Y-78329982D02*
X190679331Y-78829982D01*
X192179331Y-79329982D01*
X192179331Y-80687125D02*
X191465046Y-80187125D01*
X192179331Y-79829982D02*
X190679331Y-79829982D01*
X190679331Y-80401410D01*
X190750760Y-80544268D01*
X190822189Y-80615696D01*
X190965046Y-80687125D01*
X191179331Y-80687125D01*
X191322189Y-80615696D01*
X191393617Y-80544268D01*
X191465046Y-80401410D01*
X191465046Y-79829982D01*
X192179331Y-81329982D02*
X190679331Y-81329982D01*
X190679331Y-81687125D01*
X190750760Y-81901410D01*
X190893617Y-82044268D01*
X191036474Y-82115696D01*
X191322189Y-82187125D01*
X191536474Y-82187125D01*
X191822189Y-82115696D01*
X191965046Y-82044268D01*
X192107903Y-81901410D01*
X192179331Y-81687125D01*
X192179331Y-81329982D01*
X190679331Y-82829982D02*
X191893617Y-82829982D01*
X192036474Y-82901410D01*
X192107903Y-82972839D01*
X192179331Y-83115696D01*
X192179331Y-83401410D01*
X192107903Y-83544268D01*
X192036474Y-83615696D01*
X191893617Y-83687125D01*
X190679331Y-83687125D01*
X192179331Y-84401411D02*
X190679331Y-84401411D01*
X192179331Y-85115697D02*
X190679331Y-85115697D01*
X192179331Y-85972840D01*
X190679331Y-85972840D01*
X190679331Y-86972840D02*
X190679331Y-87258554D01*
X190750760Y-87401412D01*
X190893617Y-87544269D01*
X191179331Y-87615697D01*
X191679331Y-87615697D01*
X191965046Y-87544269D01*
X192107903Y-87401412D01*
X192179331Y-87258554D01*
X192179331Y-86972840D01*
X192107903Y-86829983D01*
X191965046Y-86687126D01*
X191679331Y-86615697D01*
X191179331Y-86615697D01*
X190893617Y-86687126D01*
X190750760Y-86829983D01*
X190679331Y-86972840D01*
X192179331Y-89401412D02*
X190679331Y-89401412D01*
X190679331Y-89972840D01*
X190750760Y-90115698D01*
X190822189Y-90187126D01*
X190965046Y-90258555D01*
X191179331Y-90258555D01*
X191322189Y-90187126D01*
X191393617Y-90115698D01*
X191465046Y-89972840D01*
X191465046Y-89401412D01*
X192179331Y-90901412D02*
X190679331Y-90901412D01*
X192179331Y-91615698D02*
X190679331Y-91615698D01*
X192179331Y-92472841D01*
X190679331Y-92472841D01*
X192107903Y-93115698D02*
X192179331Y-93329984D01*
X192179331Y-93687127D01*
X192107903Y-93829984D01*
X192036474Y-93901413D01*
X191893617Y-93972841D01*
X191750760Y-93972841D01*
X191607903Y-93901413D01*
X191536474Y-93829984D01*
X191465046Y-93687127D01*
X191393617Y-93401413D01*
X191322189Y-93258555D01*
X191250760Y-93187127D01*
X191107903Y-93115698D01*
X190965046Y-93115698D01*
X190822189Y-93187127D01*
X190750760Y-93258555D01*
X190679331Y-93401413D01*
X190679331Y-93758555D01*
X190750760Y-93972841D01*
D11*
X205750160Y-102316280D02*
X205750160Y-75067160D01*
X217058240Y-102311200D02*
X205750160Y-102316280D01*
X217058240Y-75067160D02*
X217058240Y-102311200D01*
X205750160Y-75067160D02*
X217058240Y-75067160D01*
D14*
X214893886Y-77385451D02*
X214893886Y-75885451D01*
X214322458Y-75885451D01*
X214179600Y-75956880D01*
X214108172Y-76028309D01*
X214036743Y-76171166D01*
X214036743Y-76385451D01*
X214108172Y-76528309D01*
X214179600Y-76599737D01*
X214322458Y-76671166D01*
X214893886Y-76671166D01*
X213108172Y-75885451D02*
X212822458Y-75885451D01*
X212679600Y-75956880D01*
X212536743Y-76099737D01*
X212465315Y-76385451D01*
X212465315Y-76885451D01*
X212536743Y-77171166D01*
X212679600Y-77314023D01*
X212822458Y-77385451D01*
X213108172Y-77385451D01*
X213251029Y-77314023D01*
X213393886Y-77171166D01*
X213465315Y-76885451D01*
X213465315Y-76385451D01*
X213393886Y-76099737D01*
X213251029Y-75956880D01*
X213108172Y-75885451D01*
X211965314Y-75885451D02*
X211608171Y-77385451D01*
X211322457Y-76314023D01*
X211036743Y-77385451D01*
X210679600Y-75885451D01*
X210108171Y-76599737D02*
X209608171Y-76599737D01*
X209393885Y-77385451D02*
X210108171Y-77385451D01*
X210108171Y-75885451D01*
X209393885Y-75885451D01*
X207893885Y-77385451D02*
X208393885Y-76671166D01*
X208751028Y-77385451D02*
X208751028Y-75885451D01*
X208179600Y-75885451D01*
X208036742Y-75956880D01*
X207965314Y-76028309D01*
X207893885Y-76171166D01*
X207893885Y-76385451D01*
X207965314Y-76528309D01*
X208036742Y-76599737D01*
X208179600Y-76671166D01*
X208751028Y-76671166D01*
X215036743Y-79785451D02*
X215036743Y-78285451D01*
X214322457Y-79785451D02*
X214322457Y-78285451D01*
X213465314Y-79785451D01*
X213465314Y-78285451D01*
X212751028Y-79785451D02*
X212751028Y-78285451D01*
X212179600Y-78285451D01*
X212036742Y-78356880D01*
X211965314Y-78428309D01*
X211893885Y-78571166D01*
X211893885Y-78785451D01*
X211965314Y-78928309D01*
X212036742Y-78999737D01*
X212179600Y-79071166D01*
X212751028Y-79071166D01*
X211251028Y-78285451D02*
X211251028Y-79499737D01*
X211179600Y-79642594D01*
X211108171Y-79714023D01*
X210965314Y-79785451D01*
X210679600Y-79785451D01*
X210536742Y-79714023D01*
X210465314Y-79642594D01*
X210393885Y-79499737D01*
X210393885Y-78285451D01*
X209893885Y-78285451D02*
X209036742Y-78285451D01*
X209465313Y-79785451D02*
X209465313Y-78285451D01*
X208608171Y-79714023D02*
X208393885Y-79785451D01*
X208036742Y-79785451D01*
X207893885Y-79714023D01*
X207822456Y-79642594D01*
X207751028Y-79499737D01*
X207751028Y-79356880D01*
X207822456Y-79214023D01*
X207893885Y-79142594D01*
X208036742Y-79071166D01*
X208322456Y-78999737D01*
X208465314Y-78928309D01*
X208536742Y-78856880D01*
X208608171Y-78714023D01*
X208608171Y-78571166D01*
X208536742Y-78428309D01*
X208465314Y-78356880D01*
X208322456Y-78285451D01*
X207965314Y-78285451D01*
X207751028Y-78356880D01*
D15*
X170142505Y-93487724D02*
X170565838Y-92882962D01*
X170868219Y-93487724D02*
X170868219Y-92217724D01*
X170384410Y-92217724D01*
X170263457Y-92278200D01*
X170202981Y-92338676D01*
X170142505Y-92459629D01*
X170142505Y-92641057D01*
X170202981Y-92762010D01*
X170263457Y-92822486D01*
X170384410Y-92882962D01*
X170868219Y-92882962D01*
X169598219Y-92822486D02*
X169174886Y-92822486D01*
X168993457Y-93487724D02*
X169598219Y-93487724D01*
X169598219Y-92217724D01*
X168993457Y-92217724D01*
X167723457Y-93366771D02*
X167783933Y-93427248D01*
X167965362Y-93487724D01*
X168086314Y-93487724D01*
X168267742Y-93427248D01*
X168388695Y-93306295D01*
X168449171Y-93185343D01*
X168509647Y-92943438D01*
X168509647Y-92762010D01*
X168449171Y-92520105D01*
X168388695Y-92399152D01*
X168267742Y-92278200D01*
X168086314Y-92217724D01*
X167965362Y-92217724D01*
X167783933Y-92278200D01*
X167723457Y-92338676D01*
X166937266Y-92217724D02*
X166695362Y-92217724D01*
X166574409Y-92278200D01*
X166453457Y-92399152D01*
X166392981Y-92641057D01*
X166392981Y-93064390D01*
X166453457Y-93306295D01*
X166574409Y-93427248D01*
X166695362Y-93487724D01*
X166937266Y-93487724D01*
X167058219Y-93427248D01*
X167179171Y-93306295D01*
X167239647Y-93064390D01*
X167239647Y-92641057D01*
X167179171Y-92399152D01*
X167058219Y-92278200D01*
X166937266Y-92217724D01*
X165848695Y-93487724D02*
X165848695Y-92217724D01*
X165425362Y-93124867D01*
X165002028Y-92217724D01*
X165002028Y-93487724D01*
X164397266Y-93487724D02*
X164397266Y-92217724D01*
X163973933Y-93124867D01*
X163550599Y-92217724D01*
X163550599Y-93487724D01*
X162945837Y-92822486D02*
X162522504Y-92822486D01*
X162341075Y-93487724D02*
X162945837Y-93487724D01*
X162945837Y-92217724D01*
X162341075Y-92217724D01*
X161796789Y-93487724D02*
X161796789Y-92217724D01*
X161071075Y-93487724D01*
X161071075Y-92217724D01*
X160466313Y-93487724D02*
X160466313Y-92217724D01*
X160163932Y-92217724D01*
X159982504Y-92278200D01*
X159861551Y-92399152D01*
X159801075Y-92520105D01*
X159740599Y-92762010D01*
X159740599Y-92943438D01*
X159801075Y-93185343D01*
X159861551Y-93306295D01*
X159982504Y-93427248D01*
X160163932Y-93487724D01*
X160466313Y-93487724D01*
X159196313Y-92822486D02*
X158772980Y-92822486D01*
X158591551Y-93487724D02*
X159196313Y-93487724D01*
X159196313Y-92217724D01*
X158591551Y-92217724D01*
X158047265Y-93487724D02*
X158047265Y-92217724D01*
X157744884Y-92217724D01*
X157563456Y-92278200D01*
X157442503Y-92399152D01*
X157382027Y-92520105D01*
X157321551Y-92762010D01*
X157321551Y-92943438D01*
X157382027Y-93185343D01*
X157442503Y-93306295D01*
X157563456Y-93427248D01*
X157744884Y-93487724D01*
X158047265Y-93487724D01*
X155083932Y-93366771D02*
X155144408Y-93427248D01*
X155325837Y-93487724D01*
X155446789Y-93487724D01*
X155628217Y-93427248D01*
X155749170Y-93306295D01*
X155809646Y-93185343D01*
X155870122Y-92943438D01*
X155870122Y-92762010D01*
X155809646Y-92520105D01*
X155749170Y-92399152D01*
X155628217Y-92278200D01*
X155446789Y-92217724D01*
X155325837Y-92217724D01*
X155144408Y-92278200D01*
X155083932Y-92338676D01*
X154297741Y-92217724D02*
X154055837Y-92217724D01*
X153934884Y-92278200D01*
X153813932Y-92399152D01*
X153753456Y-92641057D01*
X153753456Y-93064390D01*
X153813932Y-93306295D01*
X153934884Y-93427248D01*
X154055837Y-93487724D01*
X154297741Y-93487724D01*
X154418694Y-93427248D01*
X154539646Y-93306295D01*
X154600122Y-93064390D01*
X154600122Y-92641057D01*
X154539646Y-92399152D01*
X154418694Y-92278200D01*
X154297741Y-92217724D01*
X153209170Y-93487724D02*
X153209170Y-92217724D01*
X152483456Y-93487724D01*
X152483456Y-92217724D01*
X151878694Y-93487724D02*
X151878694Y-92217724D01*
X151152980Y-93487724D01*
X151152980Y-92217724D01*
X150548218Y-92822486D02*
X150124885Y-92822486D01*
X149943456Y-93487724D02*
X150548218Y-93487724D01*
X150548218Y-92217724D01*
X149943456Y-92217724D01*
X148673456Y-93366771D02*
X148733932Y-93427248D01*
X148915361Y-93487724D01*
X149036313Y-93487724D01*
X149217741Y-93427248D01*
X149338694Y-93306295D01*
X149399170Y-93185343D01*
X149459646Y-92943438D01*
X149459646Y-92762010D01*
X149399170Y-92520105D01*
X149338694Y-92399152D01*
X149217741Y-92278200D01*
X149036313Y-92217724D01*
X148915361Y-92217724D01*
X148733932Y-92278200D01*
X148673456Y-92338676D01*
X148310599Y-92217724D02*
X147584884Y-92217724D01*
X147947741Y-93487724D02*
X147947741Y-92217724D01*
X147161551Y-93487724D02*
X147161551Y-92217724D01*
X146314884Y-92217724D02*
X146072980Y-92217724D01*
X145952027Y-92278200D01*
X145831075Y-92399152D01*
X145770599Y-92641057D01*
X145770599Y-93064390D01*
X145831075Y-93306295D01*
X145952027Y-93427248D01*
X146072980Y-93487724D01*
X146314884Y-93487724D01*
X146435837Y-93427248D01*
X146556789Y-93306295D01*
X146617265Y-93064390D01*
X146617265Y-92641057D01*
X146556789Y-92399152D01*
X146435837Y-92278200D01*
X146314884Y-92217724D01*
X145226313Y-93487724D02*
X145226313Y-92217724D01*
X144500599Y-93487724D01*
X144500599Y-92217724D01*
X143956313Y-93427248D02*
X143774885Y-93487724D01*
X143472504Y-93487724D01*
X143351551Y-93427248D01*
X143291075Y-93366771D01*
X143230599Y-93245819D01*
X143230599Y-93124867D01*
X143291075Y-93003914D01*
X143351551Y-92943438D01*
X143472504Y-92882962D01*
X143714408Y-92822486D01*
X143835361Y-92762010D01*
X143895837Y-92701533D01*
X143956313Y-92580581D01*
X143956313Y-92459629D01*
X143895837Y-92338676D01*
X143835361Y-92278200D01*
X143714408Y-92217724D01*
X143412028Y-92217724D01*
X143230599Y-92278200D01*
X170868219Y-95468924D02*
X170868219Y-94198924D01*
X170868219Y-94803686D02*
X170142505Y-94803686D01*
X170142505Y-95468924D02*
X170142505Y-94198924D01*
X169537743Y-94803686D02*
X169114410Y-94803686D01*
X168932981Y-95468924D02*
X169537743Y-95468924D01*
X169537743Y-94198924D01*
X168932981Y-94198924D01*
X168449171Y-95106067D02*
X167844409Y-95106067D01*
X168570124Y-95468924D02*
X168146790Y-94198924D01*
X167723457Y-95468924D01*
X167481553Y-94198924D02*
X166755838Y-94198924D01*
X167118695Y-95468924D02*
X167118695Y-94198924D01*
X165909172Y-94803686D02*
X165727743Y-94864162D01*
X165667267Y-94924638D01*
X165606791Y-95045590D01*
X165606791Y-95227019D01*
X165667267Y-95347971D01*
X165727743Y-95408448D01*
X165848696Y-95468924D01*
X166332505Y-95468924D01*
X166332505Y-94198924D01*
X165909172Y-94198924D01*
X165788219Y-94259400D01*
X165727743Y-94319876D01*
X165667267Y-94440829D01*
X165667267Y-94561781D01*
X165727743Y-94682733D01*
X165788219Y-94743210D01*
X165909172Y-94803686D01*
X166332505Y-94803686D01*
X165062505Y-94803686D02*
X164639172Y-94803686D01*
X164457743Y-95468924D02*
X165062505Y-95468924D01*
X165062505Y-94198924D01*
X164457743Y-94198924D01*
X163913457Y-95468924D02*
X163913457Y-94198924D01*
X163611076Y-94198924D01*
X163429648Y-94259400D01*
X163308695Y-94380352D01*
X163248219Y-94501305D01*
X163187743Y-94743210D01*
X163187743Y-94924638D01*
X163248219Y-95166543D01*
X163308695Y-95287495D01*
X163429648Y-95408448D01*
X163611076Y-95468924D01*
X163913457Y-95468924D01*
X161675838Y-94985114D02*
X160708219Y-94985114D01*
X158712505Y-94803686D02*
X159135838Y-94803686D01*
X159135838Y-95468924D02*
X159135838Y-94198924D01*
X158531076Y-94198924D01*
X158047267Y-94803686D02*
X157623934Y-94803686D01*
X157442505Y-95468924D02*
X158047267Y-95468924D01*
X158047267Y-94198924D01*
X157442505Y-94198924D01*
X157079648Y-94198924D02*
X156353933Y-94198924D01*
X156716790Y-95468924D02*
X156716790Y-94198924D01*
X155265362Y-95468924D02*
X155991076Y-95468924D01*
X155628219Y-95468924D02*
X155628219Y-94198924D01*
X155749171Y-94380352D01*
X155870124Y-94501305D01*
X155991076Y-94561781D01*
X170868219Y-97450124D02*
X170868219Y-96180124D01*
X170868219Y-96784886D02*
X170142505Y-96784886D01*
X170142505Y-97450124D02*
X170142505Y-96180124D01*
X169295838Y-96180124D02*
X169053934Y-96180124D01*
X168932981Y-96240600D01*
X168812029Y-96361552D01*
X168751553Y-96603457D01*
X168751553Y-97026790D01*
X168812029Y-97268695D01*
X168932981Y-97389648D01*
X169053934Y-97450124D01*
X169295838Y-97450124D01*
X169416791Y-97389648D01*
X169537743Y-97268695D01*
X169598219Y-97026790D01*
X169598219Y-96603457D01*
X169537743Y-96361552D01*
X169416791Y-96240600D01*
X169295838Y-96180124D01*
X168388696Y-96180124D02*
X167662981Y-96180124D01*
X168025838Y-97450124D02*
X168025838Y-96180124D01*
X167239648Y-96784886D02*
X166816315Y-96784886D01*
X166634886Y-97450124D02*
X167239648Y-97450124D01*
X167239648Y-96180124D01*
X166634886Y-96180124D01*
X166090600Y-97450124D02*
X166090600Y-96180124D01*
X165364886Y-97450124D01*
X165364886Y-96180124D01*
X164760124Y-97450124D02*
X164760124Y-96180124D01*
X164457743Y-96180124D01*
X164276315Y-96240600D01*
X164155362Y-96361552D01*
X164094886Y-96482505D01*
X164034410Y-96724410D01*
X164034410Y-96905838D01*
X164094886Y-97147743D01*
X164155362Y-97268695D01*
X164276315Y-97389648D01*
X164457743Y-97450124D01*
X164760124Y-97450124D01*
X162522505Y-96966314D02*
X161554886Y-96966314D01*
X159559172Y-96784886D02*
X159982505Y-96784886D01*
X159982505Y-97450124D02*
X159982505Y-96180124D01*
X159377743Y-96180124D01*
X158893934Y-96784886D02*
X158470601Y-96784886D01*
X158289172Y-97450124D02*
X158893934Y-97450124D01*
X158893934Y-96180124D01*
X158289172Y-96180124D01*
X157926315Y-96180124D02*
X157200600Y-96180124D01*
X157563457Y-97450124D02*
X157563457Y-96180124D01*
X156837743Y-96301076D02*
X156777267Y-96240600D01*
X156656315Y-96180124D01*
X156353934Y-96180124D01*
X156232981Y-96240600D01*
X156172505Y-96301076D01*
X156112029Y-96422029D01*
X156112029Y-96542981D01*
X156172505Y-96724410D01*
X156898219Y-97450124D01*
X156112029Y-97450124D01*
X170868219Y-99431324D02*
X170868219Y-98161324D01*
X170384410Y-98161324D01*
X170263457Y-98221800D01*
X170202981Y-98282276D01*
X170142505Y-98403229D01*
X170142505Y-98584657D01*
X170202981Y-98705610D01*
X170263457Y-98766086D01*
X170384410Y-98826562D01*
X170868219Y-98826562D01*
X168872505Y-99431324D02*
X169295838Y-98826562D01*
X169598219Y-99431324D02*
X169598219Y-98161324D01*
X169114410Y-98161324D01*
X168993457Y-98221800D01*
X168932981Y-98282276D01*
X168872505Y-98403229D01*
X168872505Y-98584657D01*
X168932981Y-98705610D01*
X168993457Y-98766086D01*
X169114410Y-98826562D01*
X169598219Y-98826562D01*
X168328219Y-99431324D02*
X168328219Y-98161324D01*
X167723457Y-99431324D02*
X167723457Y-98161324D01*
X166997743Y-99431324D01*
X166997743Y-98161324D01*
X166574410Y-98161324D02*
X165848695Y-98161324D01*
X166211552Y-99431324D02*
X166211552Y-98161324D01*
X164034410Y-98766086D02*
X164457743Y-98766086D01*
X164457743Y-99431324D02*
X164457743Y-98161324D01*
X163852981Y-98161324D01*
X163429648Y-99068467D02*
X162824886Y-99068467D01*
X163550601Y-99431324D02*
X163127267Y-98161324D01*
X162703934Y-99431324D01*
X162280601Y-99431324D02*
X162280601Y-98161324D01*
X161554887Y-99431324D01*
X161554887Y-98161324D01*
X159982506Y-98947514D02*
X159014887Y-98947514D01*
X157019173Y-98766086D02*
X157442506Y-98766086D01*
X157442506Y-99431324D02*
X157442506Y-98161324D01*
X156837744Y-98161324D01*
X156353935Y-98766086D02*
X155930602Y-98766086D01*
X155749173Y-99431324D02*
X156353935Y-99431324D01*
X156353935Y-98161324D01*
X155749173Y-98161324D01*
X155386316Y-98161324D02*
X154660601Y-98161324D01*
X155023458Y-99431324D02*
X155023458Y-98161324D01*
X153692982Y-98584657D02*
X153692982Y-99431324D01*
X153995363Y-98100848D02*
X154297744Y-99007990D01*
X153511554Y-99007990D01*
D11*
X208645500Y-137353040D02*
G75*
G03X208645500Y-137353040I-3281420J0D01*
G01*
D13*
X200202634Y-138057954D02*
X200274063Y-138129383D01*
X200488349Y-138200811D01*
X200631206Y-138200811D01*
X200845491Y-138129383D01*
X200988349Y-137986526D01*
X201059777Y-137843669D01*
X201131206Y-137557954D01*
X201131206Y-137343669D01*
X201059777Y-137057954D01*
X200988349Y-136915097D01*
X200845491Y-136772240D01*
X200631206Y-136700811D01*
X200488349Y-136700811D01*
X200274063Y-136772240D01*
X200202634Y-136843669D01*
X199559777Y-138200811D02*
X199559777Y-137200811D01*
X199559777Y-137486526D02*
X199488349Y-137343669D01*
X199416920Y-137272240D01*
X199274063Y-137200811D01*
X199131206Y-137200811D01*
X198059778Y-138129383D02*
X198202635Y-138200811D01*
X198488349Y-138200811D01*
X198631206Y-138129383D01*
X198702635Y-137986526D01*
X198702635Y-137415097D01*
X198631206Y-137272240D01*
X198488349Y-137200811D01*
X198202635Y-137200811D01*
X198059778Y-137272240D01*
X197988349Y-137415097D01*
X197988349Y-137557954D01*
X198702635Y-137700811D01*
X196702635Y-138200811D02*
X196702635Y-137415097D01*
X196774064Y-137272240D01*
X196916921Y-137200811D01*
X197202635Y-137200811D01*
X197345492Y-137272240D01*
X196702635Y-138129383D02*
X196845492Y-138200811D01*
X197202635Y-138200811D01*
X197345492Y-138129383D01*
X197416921Y-137986526D01*
X197416921Y-137843669D01*
X197345492Y-137700811D01*
X197202635Y-137629383D01*
X196845492Y-137629383D01*
X196702635Y-137557954D01*
X196202635Y-137200811D02*
X195631206Y-137200811D01*
X195988349Y-136700811D02*
X195988349Y-137986526D01*
X195916921Y-138129383D01*
X195774063Y-138200811D01*
X195631206Y-138200811D01*
X195131206Y-138200811D02*
X195131206Y-137200811D01*
X195131206Y-136700811D02*
X195202635Y-136772240D01*
X195131206Y-136843669D01*
X195059778Y-136772240D01*
X195131206Y-136700811D01*
X195131206Y-136843669D01*
X194559777Y-137200811D02*
X194202634Y-138200811D01*
X193845492Y-137200811D01*
X192702635Y-138129383D02*
X192845492Y-138200811D01*
X193131206Y-138200811D01*
X193274063Y-138129383D01*
X193345492Y-137986526D01*
X193345492Y-137415097D01*
X193274063Y-137272240D01*
X193131206Y-137200811D01*
X192845492Y-137200811D01*
X192702635Y-137272240D01*
X192631206Y-137415097D01*
X192631206Y-137557954D01*
X193345492Y-137700811D01*
X189988349Y-138057954D02*
X190059778Y-138129383D01*
X190274064Y-138200811D01*
X190416921Y-138200811D01*
X190631206Y-138129383D01*
X190774064Y-137986526D01*
X190845492Y-137843669D01*
X190916921Y-137557954D01*
X190916921Y-137343669D01*
X190845492Y-137057954D01*
X190774064Y-136915097D01*
X190631206Y-136772240D01*
X190416921Y-136700811D01*
X190274064Y-136700811D01*
X190059778Y-136772240D01*
X189988349Y-136843669D01*
X189131206Y-138200811D02*
X189274064Y-138129383D01*
X189345492Y-138057954D01*
X189416921Y-137915097D01*
X189416921Y-137486526D01*
X189345492Y-137343669D01*
X189274064Y-137272240D01*
X189131206Y-137200811D01*
X188916921Y-137200811D01*
X188774064Y-137272240D01*
X188702635Y-137343669D01*
X188631206Y-137486526D01*
X188631206Y-137915097D01*
X188702635Y-138057954D01*
X188774064Y-138129383D01*
X188916921Y-138200811D01*
X189131206Y-138200811D01*
X187988349Y-138200811D02*
X187988349Y-137200811D01*
X187988349Y-137343669D02*
X187916921Y-137272240D01*
X187774063Y-137200811D01*
X187559778Y-137200811D01*
X187416921Y-137272240D01*
X187345492Y-137415097D01*
X187345492Y-138200811D01*
X187345492Y-137415097D02*
X187274063Y-137272240D01*
X187131206Y-137200811D01*
X186916921Y-137200811D01*
X186774063Y-137272240D01*
X186702635Y-137415097D01*
X186702635Y-138200811D01*
X185988349Y-138200811D02*
X185988349Y-137200811D01*
X185988349Y-137343669D02*
X185916921Y-137272240D01*
X185774063Y-137200811D01*
X185559778Y-137200811D01*
X185416921Y-137272240D01*
X185345492Y-137415097D01*
X185345492Y-138200811D01*
X185345492Y-137415097D02*
X185274063Y-137272240D01*
X185131206Y-137200811D01*
X184916921Y-137200811D01*
X184774063Y-137272240D01*
X184702635Y-137415097D01*
X184702635Y-138200811D01*
X183774063Y-138200811D02*
X183916921Y-138129383D01*
X183988349Y-138057954D01*
X184059778Y-137915097D01*
X184059778Y-137486526D01*
X183988349Y-137343669D01*
X183916921Y-137272240D01*
X183774063Y-137200811D01*
X183559778Y-137200811D01*
X183416921Y-137272240D01*
X183345492Y-137343669D01*
X183274063Y-137486526D01*
X183274063Y-137915097D01*
X183345492Y-138057954D01*
X183416921Y-138129383D01*
X183559778Y-138200811D01*
X183774063Y-138200811D01*
X182631206Y-137200811D02*
X182631206Y-138200811D01*
X182631206Y-137343669D02*
X182559778Y-137272240D01*
X182416920Y-137200811D01*
X182202635Y-137200811D01*
X182059778Y-137272240D01*
X181988349Y-137415097D01*
X181988349Y-138200811D01*
X181345492Y-138129383D02*
X181202635Y-138200811D01*
X180916920Y-138200811D01*
X180774063Y-138129383D01*
X180702635Y-137986526D01*
X180702635Y-137915097D01*
X180774063Y-137772240D01*
X180916920Y-137700811D01*
X181131206Y-137700811D01*
X181274063Y-137629383D01*
X181345492Y-137486526D01*
X181345492Y-137415097D01*
X181274063Y-137272240D01*
X181131206Y-137200811D01*
X180916920Y-137200811D01*
X180774063Y-137272240D01*
X201131206Y-140126240D02*
X200416920Y-140126240D01*
X201274063Y-140554811D02*
X200774063Y-139054811D01*
X200274063Y-140554811D01*
X199988349Y-139554811D02*
X199416920Y-139554811D01*
X199774063Y-139054811D02*
X199774063Y-140340526D01*
X199702635Y-140483383D01*
X199559777Y-140554811D01*
X199416920Y-140554811D01*
X198916920Y-140554811D02*
X198916920Y-139554811D01*
X198916920Y-139840526D02*
X198845492Y-139697669D01*
X198774063Y-139626240D01*
X198631206Y-139554811D01*
X198488349Y-139554811D01*
X197988349Y-140554811D02*
X197988349Y-139554811D01*
X197988349Y-139054811D02*
X198059778Y-139126240D01*
X197988349Y-139197669D01*
X197916921Y-139126240D01*
X197988349Y-139054811D01*
X197988349Y-139197669D01*
X197274063Y-140554811D02*
X197274063Y-139054811D01*
X197274063Y-139626240D02*
X197131206Y-139554811D01*
X196845492Y-139554811D01*
X196702635Y-139626240D01*
X196631206Y-139697669D01*
X196559777Y-139840526D01*
X196559777Y-140269097D01*
X196631206Y-140411954D01*
X196702635Y-140483383D01*
X196845492Y-140554811D01*
X197131206Y-140554811D01*
X197274063Y-140483383D01*
X195274063Y-139554811D02*
X195274063Y-140554811D01*
X195916920Y-139554811D02*
X195916920Y-140340526D01*
X195845492Y-140483383D01*
X195702634Y-140554811D01*
X195488349Y-140554811D01*
X195345492Y-140483383D01*
X195274063Y-140411954D01*
X194774063Y-139554811D02*
X194202634Y-139554811D01*
X194559777Y-139054811D02*
X194559777Y-140340526D01*
X194488349Y-140483383D01*
X194345491Y-140554811D01*
X194202634Y-140554811D01*
X193702634Y-140554811D02*
X193702634Y-139554811D01*
X193702634Y-139054811D02*
X193774063Y-139126240D01*
X193702634Y-139197669D01*
X193631206Y-139126240D01*
X193702634Y-139054811D01*
X193702634Y-139197669D01*
X192774062Y-140554811D02*
X192916920Y-140483383D01*
X192988348Y-140411954D01*
X193059777Y-140269097D01*
X193059777Y-139840526D01*
X192988348Y-139697669D01*
X192916920Y-139626240D01*
X192774062Y-139554811D01*
X192559777Y-139554811D01*
X192416920Y-139626240D01*
X192345491Y-139697669D01*
X192274062Y-139840526D01*
X192274062Y-140269097D01*
X192345491Y-140411954D01*
X192416920Y-140483383D01*
X192559777Y-140554811D01*
X192774062Y-140554811D01*
X191631205Y-139554811D02*
X191631205Y-140554811D01*
X191631205Y-139697669D02*
X191559777Y-139626240D01*
X191416919Y-139554811D01*
X191202634Y-139554811D01*
X191059777Y-139626240D01*
X190988348Y-139769097D01*
X190988348Y-140554811D01*
X190274062Y-139983383D02*
X189131205Y-139983383D01*
X188488348Y-140483383D02*
X188274062Y-140554811D01*
X187916919Y-140554811D01*
X187774062Y-140483383D01*
X187702633Y-140411954D01*
X187631205Y-140269097D01*
X187631205Y-140126240D01*
X187702633Y-139983383D01*
X187774062Y-139911954D01*
X187916919Y-139840526D01*
X188202633Y-139769097D01*
X188345491Y-139697669D01*
X188416919Y-139626240D01*
X188488348Y-139483383D01*
X188488348Y-139340526D01*
X188416919Y-139197669D01*
X188345491Y-139126240D01*
X188202633Y-139054811D01*
X187845491Y-139054811D01*
X187631205Y-139126240D01*
X186988348Y-140554811D02*
X186988348Y-139054811D01*
X186345491Y-140554811D02*
X186345491Y-139769097D01*
X186416920Y-139626240D01*
X186559777Y-139554811D01*
X186774062Y-139554811D01*
X186916920Y-139626240D01*
X186988348Y-139697669D01*
X184988348Y-140554811D02*
X184988348Y-139769097D01*
X185059777Y-139626240D01*
X185202634Y-139554811D01*
X185488348Y-139554811D01*
X185631205Y-139626240D01*
X184988348Y-140483383D02*
X185131205Y-140554811D01*
X185488348Y-140554811D01*
X185631205Y-140483383D01*
X185702634Y-140340526D01*
X185702634Y-140197669D01*
X185631205Y-140054811D01*
X185488348Y-139983383D01*
X185131205Y-139983383D01*
X184988348Y-139911954D01*
X184274062Y-140554811D02*
X184274062Y-139554811D01*
X184274062Y-139840526D02*
X184202634Y-139697669D01*
X184131205Y-139626240D01*
X183988348Y-139554811D01*
X183845491Y-139554811D01*
X182774063Y-140483383D02*
X182916920Y-140554811D01*
X183202634Y-140554811D01*
X183345491Y-140483383D01*
X183416920Y-140340526D01*
X183416920Y-139769097D01*
X183345491Y-139626240D01*
X183202634Y-139554811D01*
X182916920Y-139554811D01*
X182774063Y-139626240D01*
X182702634Y-139769097D01*
X182702634Y-139911954D01*
X183416920Y-140054811D01*
X182131206Y-140126240D02*
X181416920Y-140126240D01*
X182274063Y-140554811D02*
X181774063Y-139054811D01*
X181274063Y-140554811D01*
X180559777Y-140554811D02*
X180702635Y-140483383D01*
X180774063Y-140340526D01*
X180774063Y-139054811D01*
X179988349Y-140554811D02*
X179988349Y-139554811D01*
X179988349Y-139054811D02*
X180059778Y-139126240D01*
X179988349Y-139197669D01*
X179916921Y-139126240D01*
X179988349Y-139054811D01*
X179988349Y-139197669D01*
X179274063Y-140554811D02*
X179274063Y-139054811D01*
X179131206Y-139983383D02*
X178702635Y-140554811D01*
X178702635Y-139554811D02*
X179274063Y-140126240D01*
X177488349Y-140483383D02*
X177631206Y-140554811D01*
X177916920Y-140554811D01*
X178059777Y-140483383D01*
X178131206Y-140340526D01*
X178131206Y-139769097D01*
X178059777Y-139626240D01*
X177916920Y-139554811D01*
X177631206Y-139554811D01*
X177488349Y-139626240D01*
X177416920Y-139769097D01*
X177416920Y-139911954D01*
X178131206Y-140054811D01*
D14*
X205837730Y-138412583D02*
X205958682Y-138533535D01*
X206321539Y-138654488D01*
X206563444Y-138654488D01*
X206926301Y-138533535D01*
X207168206Y-138291630D01*
X207289158Y-138049726D01*
X207410110Y-137565916D01*
X207410110Y-137203059D01*
X207289158Y-136719250D01*
X207168206Y-136477345D01*
X206926301Y-136235440D01*
X206563444Y-136114488D01*
X206321539Y-136114488D01*
X205958682Y-136235440D01*
X205837730Y-136356392D01*
X203297730Y-138412583D02*
X203418682Y-138533535D01*
X203781539Y-138654488D01*
X204023444Y-138654488D01*
X204386301Y-138533535D01*
X204628206Y-138291630D01*
X204749158Y-138049726D01*
X204870110Y-137565916D01*
X204870110Y-137203059D01*
X204749158Y-136719250D01*
X204628206Y-136477345D01*
X204386301Y-136235440D01*
X204023444Y-136114488D01*
X203781539Y-136114488D01*
X203418682Y-136235440D01*
X203297730Y-136356392D01*
D15*
X201157005Y-135796411D02*
X201157005Y-134296411D01*
X200799862Y-134296411D01*
X200585577Y-134367840D01*
X200442719Y-134510697D01*
X200371291Y-134653554D01*
X200299862Y-134939269D01*
X200299862Y-135153554D01*
X200371291Y-135439269D01*
X200442719Y-135582126D01*
X200585577Y-135724983D01*
X200799862Y-135796411D01*
X201157005Y-135796411D01*
X199085577Y-135724983D02*
X199228434Y-135796411D01*
X199514148Y-135796411D01*
X199657005Y-135724983D01*
X199728434Y-135582126D01*
X199728434Y-135010697D01*
X199657005Y-134867840D01*
X199514148Y-134796411D01*
X199228434Y-134796411D01*
X199085577Y-134867840D01*
X199014148Y-135010697D01*
X199014148Y-135153554D01*
X199728434Y-135296411D01*
X198442720Y-135724983D02*
X198299863Y-135796411D01*
X198014148Y-135796411D01*
X197871291Y-135724983D01*
X197799863Y-135582126D01*
X197799863Y-135510697D01*
X197871291Y-135367840D01*
X198014148Y-135296411D01*
X198228434Y-135296411D01*
X198371291Y-135224983D01*
X198442720Y-135082126D01*
X198442720Y-135010697D01*
X198371291Y-134867840D01*
X198228434Y-134796411D01*
X198014148Y-134796411D01*
X197871291Y-134867840D01*
X197157005Y-135796411D02*
X197157005Y-134796411D01*
X197157005Y-134296411D02*
X197228434Y-134367840D01*
X197157005Y-134439269D01*
X197085577Y-134367840D01*
X197157005Y-134296411D01*
X197157005Y-134439269D01*
X195799862Y-134796411D02*
X195799862Y-136010697D01*
X195871291Y-136153554D01*
X195942719Y-136224983D01*
X196085576Y-136296411D01*
X196299862Y-136296411D01*
X196442719Y-136224983D01*
X195799862Y-135724983D02*
X195942719Y-135796411D01*
X196228433Y-135796411D01*
X196371291Y-135724983D01*
X196442719Y-135653554D01*
X196514148Y-135510697D01*
X196514148Y-135082126D01*
X196442719Y-134939269D01*
X196371291Y-134867840D01*
X196228433Y-134796411D01*
X195942719Y-134796411D01*
X195799862Y-134867840D01*
X195085576Y-134796411D02*
X195085576Y-135796411D01*
X195085576Y-134939269D02*
X195014148Y-134867840D01*
X194871290Y-134796411D01*
X194657005Y-134796411D01*
X194514148Y-134867840D01*
X194442719Y-135010697D01*
X194442719Y-135796411D01*
X192585576Y-135796411D02*
X192585576Y-134296411D01*
X192585576Y-134867840D02*
X192442719Y-134796411D01*
X192157005Y-134796411D01*
X192014148Y-134867840D01*
X191942719Y-134939269D01*
X191871290Y-135082126D01*
X191871290Y-135510697D01*
X191942719Y-135653554D01*
X192014148Y-135724983D01*
X192157005Y-135796411D01*
X192442719Y-135796411D01*
X192585576Y-135724983D01*
X191371290Y-134796411D02*
X191014147Y-135796411D01*
X190657005Y-134796411D02*
X191014147Y-135796411D01*
X191157005Y-136153554D01*
X191228433Y-136224983D01*
X191371290Y-136296411D01*
X188942719Y-135796411D02*
X188942719Y-134796411D01*
X188942719Y-134939269D02*
X188871291Y-134867840D01*
X188728433Y-134796411D01*
X188514148Y-134796411D01*
X188371291Y-134867840D01*
X188299862Y-135010697D01*
X188299862Y-135796411D01*
X188299862Y-135010697D02*
X188228433Y-134867840D01*
X188085576Y-134796411D01*
X187871291Y-134796411D01*
X187728433Y-134867840D01*
X187657005Y-135010697D01*
X187657005Y-135796411D01*
X186942719Y-134796411D02*
X186942719Y-136082126D01*
X187014148Y-136224983D01*
X187157005Y-136296411D01*
X187228433Y-136296411D01*
X186942719Y-134296411D02*
X187014148Y-134367840D01*
X186942719Y-134439269D01*
X186871291Y-134367840D01*
X186942719Y-134296411D01*
X186942719Y-134439269D01*
X186228433Y-135796411D02*
X186228433Y-134796411D01*
X186228433Y-135082126D02*
X186157005Y-134939269D01*
X186085576Y-134867840D01*
X185942719Y-134796411D01*
X185799862Y-134796411D01*
X185299862Y-135796411D02*
X185299862Y-134796411D01*
X185299862Y-134296411D02*
X185371291Y-134367840D01*
X185299862Y-134439269D01*
X185228434Y-134367840D01*
X185299862Y-134296411D01*
X185299862Y-134439269D01*
X183942719Y-135724983D02*
X184085576Y-135796411D01*
X184371290Y-135796411D01*
X184514148Y-135724983D01*
X184585576Y-135653554D01*
X184657005Y-135510697D01*
X184657005Y-135082126D01*
X184585576Y-134939269D01*
X184514148Y-134867840D01*
X184371290Y-134796411D01*
X184085576Y-134796411D01*
X183942719Y-134867840D01*
X182728434Y-135724983D02*
X182871291Y-135796411D01*
X183157005Y-135796411D01*
X183299862Y-135724983D01*
X183371291Y-135582126D01*
X183371291Y-135010697D01*
X183299862Y-134867840D01*
X183157005Y-134796411D01*
X182871291Y-134796411D01*
X182728434Y-134867840D01*
X182657005Y-135010697D01*
X182657005Y-135153554D01*
X183371291Y-135296411D01*
X207894122Y-128138891D02*
X207894122Y-126638891D01*
X207341741Y-126638891D01*
X207203646Y-126710320D01*
X207134598Y-126781749D01*
X207065550Y-126924606D01*
X207065550Y-127138891D01*
X207134598Y-127281749D01*
X207203646Y-127353177D01*
X207341741Y-127424606D01*
X207894122Y-127424606D01*
X206236979Y-128138891D02*
X206375074Y-128067463D01*
X206444122Y-127996034D01*
X206513170Y-127853177D01*
X206513170Y-127424606D01*
X206444122Y-127281749D01*
X206375074Y-127210320D01*
X206236979Y-127138891D01*
X206029836Y-127138891D01*
X205891741Y-127210320D01*
X205822693Y-127281749D01*
X205753646Y-127424606D01*
X205753646Y-127853177D01*
X205822693Y-127996034D01*
X205891741Y-128067463D01*
X206029836Y-128138891D01*
X206236979Y-128138891D01*
X205270312Y-127138891D02*
X204994122Y-128138891D01*
X204717931Y-127424606D01*
X204441741Y-128138891D01*
X204165550Y-127138891D01*
X203060788Y-128067463D02*
X203198883Y-128138891D01*
X203475074Y-128138891D01*
X203613169Y-128067463D01*
X203682217Y-127924606D01*
X203682217Y-127353177D01*
X203613169Y-127210320D01*
X203475074Y-127138891D01*
X203198883Y-127138891D01*
X203060788Y-127210320D01*
X202991740Y-127353177D01*
X202991740Y-127496034D01*
X203682217Y-127638891D01*
X202370312Y-128138891D02*
X202370312Y-127138891D01*
X202370312Y-127424606D02*
X202301264Y-127281749D01*
X202232217Y-127210320D01*
X202094121Y-127138891D01*
X201956026Y-127138891D01*
X201403645Y-128067463D02*
X201403645Y-128138891D01*
X201472693Y-128281749D01*
X201541741Y-128353177D01*
X199677455Y-128138891D02*
X199677455Y-126638891D01*
X198986979Y-127138891D02*
X198986979Y-128138891D01*
X198986979Y-127281749D02*
X198917931Y-127210320D01*
X198779836Y-127138891D01*
X198572693Y-127138891D01*
X198434598Y-127210320D01*
X198365550Y-127353177D01*
X198365550Y-128138891D01*
X197882217Y-127138891D02*
X197329836Y-127138891D01*
X197675074Y-126638891D02*
X197675074Y-127924606D01*
X197606026Y-128067463D01*
X197467931Y-128138891D01*
X197329836Y-128138891D01*
X196294122Y-128067463D02*
X196432217Y-128138891D01*
X196708408Y-128138891D01*
X196846503Y-128067463D01*
X196915551Y-127924606D01*
X196915551Y-127353177D01*
X196846503Y-127210320D01*
X196708408Y-127138891D01*
X196432217Y-127138891D01*
X196294122Y-127210320D01*
X196225074Y-127353177D01*
X196225074Y-127496034D01*
X196915551Y-127638891D01*
X195603646Y-128138891D02*
X195603646Y-127138891D01*
X195603646Y-127424606D02*
X195534598Y-127281749D01*
X195465551Y-127210320D01*
X195327455Y-127138891D01*
X195189360Y-127138891D01*
X194913170Y-127138891D02*
X194360789Y-127138891D01*
X194706027Y-128138891D02*
X194706027Y-126853177D01*
X194636979Y-126710320D01*
X194498884Y-126638891D01*
X194360789Y-126638891D01*
X193256027Y-128138891D02*
X193256027Y-127353177D01*
X193325075Y-127210320D01*
X193463170Y-127138891D01*
X193739361Y-127138891D01*
X193877456Y-127210320D01*
X193256027Y-128067463D02*
X193394123Y-128138891D01*
X193739361Y-128138891D01*
X193877456Y-128067463D01*
X193946504Y-127924606D01*
X193946504Y-127781749D01*
X193877456Y-127638891D01*
X193739361Y-127567463D01*
X193394123Y-127567463D01*
X193256027Y-127496034D01*
X191944122Y-128067463D02*
X192082218Y-128138891D01*
X192358408Y-128138891D01*
X192496503Y-128067463D01*
X192565551Y-127996034D01*
X192634599Y-127853177D01*
X192634599Y-127424606D01*
X192565551Y-127281749D01*
X192496503Y-127210320D01*
X192358408Y-127138891D01*
X192082218Y-127138891D01*
X191944122Y-127210320D01*
X190770313Y-128067463D02*
X190908408Y-128138891D01*
X191184599Y-128138891D01*
X191322694Y-128067463D01*
X191391742Y-127924606D01*
X191391742Y-127353177D01*
X191322694Y-127210320D01*
X191184599Y-127138891D01*
X190908408Y-127138891D01*
X190770313Y-127210320D01*
X190701265Y-127353177D01*
X190701265Y-127496034D01*
X191391742Y-127638891D01*
X190010789Y-128067463D02*
X190010789Y-128138891D01*
X190079837Y-128281749D01*
X190148885Y-128353177D01*
X187663170Y-128138891D02*
X187663170Y-127353177D01*
X187732218Y-127210320D01*
X187870313Y-127138891D01*
X188146504Y-127138891D01*
X188284599Y-127210320D01*
X187663170Y-128067463D02*
X187801266Y-128138891D01*
X188146504Y-128138891D01*
X188284599Y-128067463D01*
X188353647Y-127924606D01*
X188353647Y-127781749D01*
X188284599Y-127638891D01*
X188146504Y-127567463D01*
X187801266Y-127567463D01*
X187663170Y-127496034D01*
X186972694Y-127138891D02*
X186972694Y-128138891D01*
X186972694Y-127281749D02*
X186903646Y-127210320D01*
X186765551Y-127138891D01*
X186558408Y-127138891D01*
X186420313Y-127210320D01*
X186351265Y-127353177D01*
X186351265Y-128138891D01*
X185039360Y-128138891D02*
X185039360Y-126638891D01*
X185039360Y-128067463D02*
X185177456Y-128138891D01*
X185453646Y-128138891D01*
X185591741Y-128067463D01*
X185660789Y-127996034D01*
X185729837Y-127853177D01*
X185729837Y-127424606D01*
X185660789Y-127281749D01*
X185591741Y-127210320D01*
X185453646Y-127138891D01*
X185177456Y-127138891D01*
X185039360Y-127210320D01*
X182415550Y-127996034D02*
X182484598Y-128067463D01*
X182691741Y-128138891D01*
X182829836Y-128138891D01*
X183036979Y-128067463D01*
X183175074Y-127924606D01*
X183244122Y-127781749D01*
X183313170Y-127496034D01*
X183313170Y-127281749D01*
X183244122Y-126996034D01*
X183175074Y-126853177D01*
X183036979Y-126710320D01*
X182829836Y-126638891D01*
X182691741Y-126638891D01*
X182484598Y-126710320D01*
X182415550Y-126781749D01*
X181586979Y-128138891D02*
X181725074Y-128067463D01*
X181794122Y-127996034D01*
X181863170Y-127853177D01*
X181863170Y-127424606D01*
X181794122Y-127281749D01*
X181725074Y-127210320D01*
X181586979Y-127138891D01*
X181379836Y-127138891D01*
X181241741Y-127210320D01*
X181172693Y-127281749D01*
X181103646Y-127424606D01*
X181103646Y-127853177D01*
X181172693Y-127996034D01*
X181241741Y-128067463D01*
X181379836Y-128138891D01*
X181586979Y-128138891D01*
X180482217Y-127138891D02*
X180482217Y-128138891D01*
X180482217Y-127281749D02*
X180413169Y-127210320D01*
X180275074Y-127138891D01*
X180067931Y-127138891D01*
X179929836Y-127210320D01*
X179860788Y-127353177D01*
X179860788Y-128138891D01*
X179377455Y-127138891D02*
X178825074Y-127138891D01*
X179170312Y-126638891D02*
X179170312Y-127924606D01*
X179101264Y-128067463D01*
X178963169Y-128138891D01*
X178825074Y-128138891D01*
X178341741Y-128138891D02*
X178341741Y-127138891D01*
X178341741Y-127424606D02*
X178272693Y-127281749D01*
X178203646Y-127210320D01*
X178065550Y-127138891D01*
X177927455Y-127138891D01*
X177236979Y-128138891D02*
X177375074Y-128067463D01*
X177444122Y-127996034D01*
X177513170Y-127853177D01*
X177513170Y-127424606D01*
X177444122Y-127281749D01*
X177375074Y-127210320D01*
X177236979Y-127138891D01*
X177029836Y-127138891D01*
X176891741Y-127210320D01*
X176822693Y-127281749D01*
X176753646Y-127424606D01*
X176753646Y-127853177D01*
X176822693Y-127996034D01*
X176891741Y-128067463D01*
X177029836Y-128138891D01*
X177236979Y-128138891D01*
X175925074Y-128138891D02*
X176063169Y-128067463D01*
X176132217Y-127924606D01*
X176132217Y-126638891D01*
X174336979Y-127710320D02*
X173646502Y-127710320D01*
X174475074Y-128138891D02*
X173991740Y-126638891D01*
X173508407Y-128138891D01*
X172403645Y-128138891D02*
X172403645Y-126638891D01*
X172403645Y-128067463D02*
X172541741Y-128138891D01*
X172817931Y-128138891D01*
X172956026Y-128067463D01*
X173025074Y-127996034D01*
X173094122Y-127853177D01*
X173094122Y-127424606D01*
X173025074Y-127281749D01*
X172956026Y-127210320D01*
X172817931Y-127138891D01*
X172541741Y-127138891D01*
X172403645Y-127210320D01*
X171091740Y-128138891D02*
X171091740Y-127353177D01*
X171160788Y-127210320D01*
X171298883Y-127138891D01*
X171575074Y-127138891D01*
X171713169Y-127210320D01*
X171091740Y-128067463D02*
X171229836Y-128138891D01*
X171575074Y-128138891D01*
X171713169Y-128067463D01*
X171782217Y-127924606D01*
X171782217Y-127781749D01*
X171713169Y-127638891D01*
X171575074Y-127567463D01*
X171229836Y-127567463D01*
X171091740Y-127496034D01*
X170401264Y-127138891D02*
X170401264Y-128638891D01*
X170401264Y-127210320D02*
X170263169Y-127138891D01*
X169986978Y-127138891D01*
X169848883Y-127210320D01*
X169779835Y-127281749D01*
X169710788Y-127424606D01*
X169710788Y-127853177D01*
X169779835Y-127996034D01*
X169848883Y-128067463D01*
X169986978Y-128138891D01*
X170263169Y-128138891D01*
X170401264Y-128067463D01*
X169296502Y-127138891D02*
X168744121Y-127138891D01*
X169089359Y-126638891D02*
X169089359Y-127924606D01*
X169020311Y-128067463D01*
X168882216Y-128138891D01*
X168744121Y-128138891D01*
X167708407Y-128067463D02*
X167846502Y-128138891D01*
X168122693Y-128138891D01*
X168260788Y-128067463D01*
X168329836Y-127924606D01*
X168329836Y-127353177D01*
X168260788Y-127210320D01*
X168122693Y-127138891D01*
X167846502Y-127138891D01*
X167708407Y-127210320D01*
X167639359Y-127353177D01*
X167639359Y-127496034D01*
X168329836Y-127638891D01*
X167017931Y-128138891D02*
X167017931Y-127138891D01*
X167017931Y-127424606D02*
X166948883Y-127281749D01*
X166879836Y-127210320D01*
X166741740Y-127138891D01*
X166603645Y-127138891D01*
X207963170Y-130013520D02*
X207272693Y-130013520D01*
X208101265Y-130442091D02*
X207617931Y-128942091D01*
X207134598Y-130442091D01*
X204717931Y-130442091D02*
X205201265Y-129727806D01*
X205546503Y-130442091D02*
X205546503Y-128942091D01*
X204994122Y-128942091D01*
X204856027Y-129013520D01*
X204786979Y-129084949D01*
X204717931Y-129227806D01*
X204717931Y-129442091D01*
X204786979Y-129584949D01*
X204856027Y-129656377D01*
X204994122Y-129727806D01*
X205546503Y-129727806D01*
X203544122Y-130370663D02*
X203682217Y-130442091D01*
X203958408Y-130442091D01*
X204096503Y-130370663D01*
X204165551Y-130227806D01*
X204165551Y-129656377D01*
X204096503Y-129513520D01*
X203958408Y-129442091D01*
X203682217Y-129442091D01*
X203544122Y-129513520D01*
X203475074Y-129656377D01*
X203475074Y-129799234D01*
X204165551Y-129942091D01*
X202853646Y-129442091D02*
X202853646Y-130942091D01*
X202853646Y-129513520D02*
X202715551Y-129442091D01*
X202439360Y-129442091D01*
X202301265Y-129513520D01*
X202232217Y-129584949D01*
X202163170Y-129727806D01*
X202163170Y-130156377D01*
X202232217Y-130299234D01*
X202301265Y-130370663D01*
X202439360Y-130442091D01*
X202715551Y-130442091D01*
X202853646Y-130370663D01*
X201541741Y-130442091D02*
X201541741Y-129442091D01*
X201541741Y-129727806D02*
X201472693Y-129584949D01*
X201403646Y-129513520D01*
X201265550Y-129442091D01*
X201127455Y-129442091D01*
X200022693Y-130442091D02*
X200022693Y-129656377D01*
X200091741Y-129513520D01*
X200229836Y-129442091D01*
X200506027Y-129442091D01*
X200644122Y-129513520D01*
X200022693Y-130370663D02*
X200160789Y-130442091D01*
X200506027Y-130442091D01*
X200644122Y-130370663D01*
X200713170Y-130227806D01*
X200713170Y-130084949D01*
X200644122Y-129942091D01*
X200506027Y-129870663D01*
X200160789Y-129870663D01*
X200022693Y-129799234D01*
X199332217Y-129442091D02*
X199332217Y-130942091D01*
X199332217Y-129513520D02*
X199194122Y-129442091D01*
X198917931Y-129442091D01*
X198779836Y-129513520D01*
X198710788Y-129584949D01*
X198641741Y-129727806D01*
X198641741Y-130156377D01*
X198710788Y-130299234D01*
X198779836Y-130370663D01*
X198917931Y-130442091D01*
X199194122Y-130442091D01*
X199332217Y-130370663D01*
X196984598Y-130013520D02*
X196294121Y-130013520D01*
X197122693Y-130442091D02*
X196639359Y-128942091D01*
X196156026Y-130442091D01*
X195672693Y-130442091D02*
X195672693Y-129442091D01*
X195672693Y-129727806D02*
X195603645Y-129584949D01*
X195534598Y-129513520D01*
X195396502Y-129442091D01*
X195258407Y-129442091D01*
X194153645Y-130442091D02*
X194153645Y-128942091D01*
X194153645Y-130370663D02*
X194291741Y-130442091D01*
X194567931Y-130442091D01*
X194706026Y-130370663D01*
X194775074Y-130299234D01*
X194844122Y-130156377D01*
X194844122Y-129727806D01*
X194775074Y-129584949D01*
X194706026Y-129513520D01*
X194567931Y-129442091D01*
X194291741Y-129442091D01*
X194153645Y-129513520D01*
X192841740Y-129442091D02*
X192841740Y-130442091D01*
X193463169Y-129442091D02*
X193463169Y-130227806D01*
X193394121Y-130370663D01*
X193256026Y-130442091D01*
X193048883Y-130442091D01*
X192910788Y-130370663D01*
X192841740Y-130299234D01*
X192151264Y-130442091D02*
X192151264Y-129442091D01*
X192151264Y-128942091D02*
X192220312Y-129013520D01*
X192151264Y-129084949D01*
X192082216Y-129013520D01*
X192151264Y-128942091D01*
X192151264Y-129084949D01*
X191460788Y-129442091D02*
X191460788Y-130442091D01*
X191460788Y-129584949D02*
X191391740Y-129513520D01*
X191253645Y-129442091D01*
X191046502Y-129442091D01*
X190908407Y-129513520D01*
X190839359Y-129656377D01*
X190839359Y-130442091D01*
X189941740Y-130442091D02*
X190079835Y-130370663D01*
X190148883Y-130299234D01*
X190217931Y-130156377D01*
X190217931Y-129727806D01*
X190148883Y-129584949D01*
X190079835Y-129513520D01*
X189941740Y-129442091D01*
X189734597Y-129442091D01*
X189596502Y-129513520D01*
X189527454Y-129584949D01*
X189458407Y-129727806D01*
X189458407Y-130156377D01*
X189527454Y-130299234D01*
X189596502Y-130370663D01*
X189734597Y-130442091D01*
X189941740Y-130442091D01*
X187732216Y-130442091D02*
X187732216Y-128942091D01*
X187248883Y-130013520D01*
X186765549Y-128942091D01*
X186765549Y-130442091D01*
X185522692Y-130370663D02*
X185660787Y-130442091D01*
X185936978Y-130442091D01*
X186075073Y-130370663D01*
X186144121Y-130227806D01*
X186144121Y-129656377D01*
X186075073Y-129513520D01*
X185936978Y-129442091D01*
X185660787Y-129442091D01*
X185522692Y-129513520D01*
X185453644Y-129656377D01*
X185453644Y-129799234D01*
X186144121Y-129942091D01*
X184210787Y-129442091D02*
X184210787Y-130656377D01*
X184279835Y-130799234D01*
X184348883Y-130870663D01*
X184486978Y-130942091D01*
X184694121Y-130942091D01*
X184832216Y-130870663D01*
X184210787Y-130370663D02*
X184348883Y-130442091D01*
X184625073Y-130442091D01*
X184763168Y-130370663D01*
X184832216Y-130299234D01*
X184901264Y-130156377D01*
X184901264Y-129727806D01*
X184832216Y-129584949D01*
X184763168Y-129513520D01*
X184625073Y-129442091D01*
X184348883Y-129442091D01*
X184210787Y-129513520D01*
X182898882Y-130442091D02*
X182898882Y-129656377D01*
X182967930Y-129513520D01*
X183106025Y-129442091D01*
X183382216Y-129442091D01*
X183520311Y-129513520D01*
X182898882Y-130370663D02*
X183036978Y-130442091D01*
X183382216Y-130442091D01*
X183520311Y-130370663D01*
X183589359Y-130227806D01*
X183589359Y-130084949D01*
X183520311Y-129942091D01*
X183382216Y-129870663D01*
X183036978Y-129870663D01*
X182898882Y-129799234D01*
X181103644Y-130442091D02*
X181103644Y-128942091D01*
X180551263Y-128942091D01*
X180413168Y-129013520D01*
X180344120Y-129084949D01*
X180275072Y-129227806D01*
X180275072Y-129442091D01*
X180344120Y-129584949D01*
X180413168Y-129656377D01*
X180551263Y-129727806D01*
X181103644Y-129727806D01*
X179446501Y-130442091D02*
X179584596Y-130370663D01*
X179653644Y-130299234D01*
X179722692Y-130156377D01*
X179722692Y-129727806D01*
X179653644Y-129584949D01*
X179584596Y-129513520D01*
X179446501Y-129442091D01*
X179239358Y-129442091D01*
X179101263Y-129513520D01*
X179032215Y-129584949D01*
X178963168Y-129727806D01*
X178963168Y-130156377D01*
X179032215Y-130299234D01*
X179101263Y-130370663D01*
X179239358Y-130442091D01*
X179446501Y-130442091D01*
X178134596Y-130442091D02*
X178272691Y-130370663D01*
X178341739Y-130227806D01*
X178341739Y-128942091D01*
X177375072Y-130442091D02*
X177513167Y-130370663D01*
X177582215Y-130299234D01*
X177651263Y-130156377D01*
X177651263Y-129727806D01*
X177582215Y-129584949D01*
X177513167Y-129513520D01*
X177375072Y-129442091D01*
X177167929Y-129442091D01*
X177029834Y-129513520D01*
X176960786Y-129584949D01*
X176891739Y-129727806D01*
X176891739Y-130156377D01*
X176960786Y-130299234D01*
X177029834Y-130370663D01*
X177167929Y-130442091D01*
X177375072Y-130442091D01*
X176063167Y-130442091D02*
X176201262Y-130370663D01*
X176270310Y-130227806D01*
X176270310Y-128942091D01*
X174889357Y-129442091D02*
X174889357Y-130442091D01*
X175510786Y-129442091D02*
X175510786Y-130227806D01*
X175441738Y-130370663D01*
X175303643Y-130442091D01*
X175096500Y-130442091D01*
X174958405Y-130370663D01*
X174889357Y-130299234D01*
X173163167Y-130370663D02*
X172956024Y-130442091D01*
X172610786Y-130442091D01*
X172472690Y-130370663D01*
X172403643Y-130299234D01*
X172334595Y-130156377D01*
X172334595Y-130013520D01*
X172403643Y-129870663D01*
X172472690Y-129799234D01*
X172610786Y-129727806D01*
X172886976Y-129656377D01*
X173025071Y-129584949D01*
X173094119Y-129513520D01*
X173163167Y-129370663D01*
X173163167Y-129227806D01*
X173094119Y-129084949D01*
X173025071Y-129013520D01*
X172886976Y-128942091D01*
X172541738Y-128942091D01*
X172334595Y-129013520D01*
X171713167Y-130442091D02*
X171713167Y-128942091D01*
X171091738Y-130442091D02*
X171091738Y-129656377D01*
X171160786Y-129513520D01*
X171298881Y-129442091D01*
X171506024Y-129442091D01*
X171644119Y-129513520D01*
X171713167Y-129584949D01*
X170401262Y-130442091D02*
X170401262Y-129442091D01*
X170401262Y-128942091D02*
X170470310Y-129013520D01*
X170401262Y-129084949D01*
X170332214Y-129013520D01*
X170401262Y-128942091D01*
X170401262Y-129084949D01*
X169158405Y-130370663D02*
X169296500Y-130442091D01*
X169572691Y-130442091D01*
X169710786Y-130370663D01*
X169779834Y-130227806D01*
X169779834Y-129656377D01*
X169710786Y-129513520D01*
X169572691Y-129442091D01*
X169296500Y-129442091D01*
X169158405Y-129513520D01*
X169089357Y-129656377D01*
X169089357Y-129799234D01*
X169779834Y-129942091D01*
X168260786Y-130442091D02*
X168398881Y-130370663D01*
X168467929Y-130227806D01*
X168467929Y-128942091D01*
X167086976Y-130442091D02*
X167086976Y-128942091D01*
X167086976Y-130370663D02*
X167225072Y-130442091D01*
X167501262Y-130442091D01*
X167639357Y-130370663D01*
X167708405Y-130299234D01*
X167777453Y-130156377D01*
X167777453Y-129727806D01*
X167708405Y-129584949D01*
X167639357Y-129513520D01*
X167501262Y-129442091D01*
X167225072Y-129442091D01*
X167086976Y-129513520D01*
X207894122Y-132745291D02*
X207894122Y-131245291D01*
X207272693Y-132745291D02*
X207272693Y-131959577D01*
X207341741Y-131816720D01*
X207479836Y-131745291D01*
X207686979Y-131745291D01*
X207825074Y-131816720D01*
X207894122Y-131888149D01*
X206789360Y-131745291D02*
X206236979Y-131745291D01*
X206582217Y-131245291D02*
X206582217Y-132531006D01*
X206513169Y-132673863D01*
X206375074Y-132745291D01*
X206236979Y-132745291D01*
X205960789Y-131745291D02*
X205408408Y-131745291D01*
X205753646Y-131245291D02*
X205753646Y-132531006D01*
X205684598Y-132673863D01*
X205546503Y-132745291D01*
X205408408Y-132745291D01*
X204925075Y-131745291D02*
X204925075Y-133245291D01*
X204925075Y-131816720D02*
X204786980Y-131745291D01*
X204510789Y-131745291D01*
X204372694Y-131816720D01*
X204303646Y-131888149D01*
X204234599Y-132031006D01*
X204234599Y-132459577D01*
X204303646Y-132602434D01*
X204372694Y-132673863D01*
X204510789Y-132745291D01*
X204786980Y-132745291D01*
X204925075Y-132673863D01*
X203682218Y-132673863D02*
X203544122Y-132745291D01*
X203267932Y-132745291D01*
X203129837Y-132673863D01*
X203060789Y-132531006D01*
X203060789Y-132459577D01*
X203129837Y-132316720D01*
X203267932Y-132245291D01*
X203475075Y-132245291D01*
X203613170Y-132173863D01*
X203682218Y-132031006D01*
X203682218Y-131959577D01*
X203613170Y-131816720D01*
X203475075Y-131745291D01*
X203267932Y-131745291D01*
X203129837Y-131816720D01*
X202439360Y-132602434D02*
X202370312Y-132673863D01*
X202439360Y-132745291D01*
X202508408Y-132673863D01*
X202439360Y-132602434D01*
X202439360Y-132745291D01*
X202439360Y-131816720D02*
X202370312Y-131888149D01*
X202439360Y-131959577D01*
X202508408Y-131888149D01*
X202439360Y-131816720D01*
X202439360Y-131959577D01*
X200713170Y-131173863D02*
X201956027Y-133102434D01*
X199194122Y-131173863D02*
X200436979Y-133102434D01*
X198089359Y-131745291D02*
X198089359Y-132959577D01*
X198158407Y-133102434D01*
X198227455Y-133173863D01*
X198365550Y-133245291D01*
X198572693Y-133245291D01*
X198710788Y-133173863D01*
X198089359Y-132673863D02*
X198227455Y-132745291D01*
X198503645Y-132745291D01*
X198641740Y-132673863D01*
X198710788Y-132602434D01*
X198779836Y-132459577D01*
X198779836Y-132031006D01*
X198710788Y-131888149D01*
X198641740Y-131816720D01*
X198503645Y-131745291D01*
X198227455Y-131745291D01*
X198089359Y-131816720D01*
X197398883Y-132745291D02*
X197398883Y-131745291D01*
X197398883Y-131245291D02*
X197467931Y-131316720D01*
X197398883Y-131388149D01*
X197329835Y-131316720D01*
X197398883Y-131245291D01*
X197398883Y-131388149D01*
X196915550Y-131745291D02*
X196363169Y-131745291D01*
X196708407Y-131245291D02*
X196708407Y-132531006D01*
X196639359Y-132673863D01*
X196501264Y-132745291D01*
X196363169Y-132745291D01*
X195879836Y-132745291D02*
X195879836Y-131245291D01*
X195258407Y-132745291D02*
X195258407Y-131959577D01*
X195327455Y-131816720D01*
X195465550Y-131745291D01*
X195672693Y-131745291D01*
X195810788Y-131816720D01*
X195879836Y-131888149D01*
X193946502Y-131745291D02*
X193946502Y-132745291D01*
X194567931Y-131745291D02*
X194567931Y-132531006D01*
X194498883Y-132673863D01*
X194360788Y-132745291D01*
X194153645Y-132745291D01*
X194015550Y-132673863D01*
X193946502Y-132602434D01*
X193256026Y-132745291D02*
X193256026Y-131245291D01*
X193256026Y-131816720D02*
X193117931Y-131745291D01*
X192841740Y-131745291D01*
X192703645Y-131816720D01*
X192634597Y-131888149D01*
X192565550Y-132031006D01*
X192565550Y-132459577D01*
X192634597Y-132602434D01*
X192703645Y-132673863D01*
X192841740Y-132745291D01*
X193117931Y-132745291D01*
X193256026Y-132673863D01*
X191944121Y-132602434D02*
X191875073Y-132673863D01*
X191944121Y-132745291D01*
X192013169Y-132673863D01*
X191944121Y-132602434D01*
X191944121Y-132745291D01*
X190632216Y-132673863D02*
X190770312Y-132745291D01*
X191046502Y-132745291D01*
X191184597Y-132673863D01*
X191253645Y-132602434D01*
X191322693Y-132459577D01*
X191322693Y-132031006D01*
X191253645Y-131888149D01*
X191184597Y-131816720D01*
X191046502Y-131745291D01*
X190770312Y-131745291D01*
X190632216Y-131816720D01*
X189803645Y-132745291D02*
X189941740Y-132673863D01*
X190010788Y-132602434D01*
X190079836Y-132459577D01*
X190079836Y-132031006D01*
X190010788Y-131888149D01*
X189941740Y-131816720D01*
X189803645Y-131745291D01*
X189596502Y-131745291D01*
X189458407Y-131816720D01*
X189389359Y-131888149D01*
X189320312Y-132031006D01*
X189320312Y-132459577D01*
X189389359Y-132602434D01*
X189458407Y-132673863D01*
X189596502Y-132745291D01*
X189803645Y-132745291D01*
X188698883Y-132745291D02*
X188698883Y-131745291D01*
X188698883Y-131888149D02*
X188629835Y-131816720D01*
X188491740Y-131745291D01*
X188284597Y-131745291D01*
X188146502Y-131816720D01*
X188077454Y-131959577D01*
X188077454Y-132745291D01*
X188077454Y-131959577D02*
X188008407Y-131816720D01*
X187870311Y-131745291D01*
X187663169Y-131745291D01*
X187525073Y-131816720D01*
X187456026Y-131959577D01*
X187456026Y-132745291D01*
X185729836Y-131173863D02*
X186972693Y-133102434D01*
X185246502Y-132745291D02*
X185246502Y-131745291D01*
X185246502Y-131888149D02*
X185177454Y-131816720D01*
X185039359Y-131745291D01*
X184832216Y-131745291D01*
X184694121Y-131816720D01*
X184625073Y-131959577D01*
X184625073Y-132745291D01*
X184625073Y-131959577D02*
X184556026Y-131816720D01*
X184417930Y-131745291D01*
X184210788Y-131745291D01*
X184072692Y-131816720D01*
X184003645Y-131959577D01*
X184003645Y-132745291D01*
X183313169Y-131745291D02*
X183313169Y-133031006D01*
X183382217Y-133173863D01*
X183520312Y-133245291D01*
X183589359Y-133245291D01*
X183313169Y-131245291D02*
X183382217Y-131316720D01*
X183313169Y-131388149D01*
X183244121Y-131316720D01*
X183313169Y-131245291D01*
X183313169Y-131388149D01*
X182622693Y-132745291D02*
X182622693Y-131745291D01*
X182622693Y-132031006D02*
X182553645Y-131888149D01*
X182484598Y-131816720D01*
X182346502Y-131745291D01*
X182208407Y-131745291D01*
X181725074Y-132745291D02*
X181725074Y-131745291D01*
X181725074Y-131245291D02*
X181794122Y-131316720D01*
X181725074Y-131388149D01*
X181656026Y-131316720D01*
X181725074Y-131245291D01*
X181725074Y-131388149D01*
X180413169Y-132673863D02*
X180551265Y-132745291D01*
X180827455Y-132745291D01*
X180965550Y-132673863D01*
X181034598Y-132602434D01*
X181103646Y-132459577D01*
X181103646Y-132031006D01*
X181034598Y-131888149D01*
X180965550Y-131816720D01*
X180827455Y-131745291D01*
X180551265Y-131745291D01*
X180413169Y-131816720D01*
X179239360Y-132673863D02*
X179377455Y-132745291D01*
X179653646Y-132745291D01*
X179791741Y-132673863D01*
X179860789Y-132531006D01*
X179860789Y-131959577D01*
X179791741Y-131816720D01*
X179653646Y-131745291D01*
X179377455Y-131745291D01*
X179239360Y-131816720D01*
X179170312Y-131959577D01*
X179170312Y-132102434D01*
X179860789Y-132245291D01*
X177513170Y-131173863D02*
X178756027Y-133102434D01*
X177029836Y-132745291D02*
X177029836Y-131245291D01*
X176477455Y-131245291D01*
X176339360Y-131316720D01*
X176270312Y-131388149D01*
X176201264Y-131531006D01*
X176201264Y-131745291D01*
X176270312Y-131888149D01*
X176339360Y-131959577D01*
X176477455Y-132031006D01*
X177029836Y-132031006D01*
X175579836Y-132745291D02*
X175579836Y-131245291D01*
X174060788Y-132602434D02*
X174129836Y-132673863D01*
X174336979Y-132745291D01*
X174475074Y-132745291D01*
X174682217Y-132673863D01*
X174820312Y-132531006D01*
X174889360Y-132388149D01*
X174958408Y-132102434D01*
X174958408Y-131888149D01*
X174889360Y-131602434D01*
X174820312Y-131459577D01*
X174682217Y-131316720D01*
X174475074Y-131245291D01*
X174336979Y-131245291D01*
X174129836Y-131316720D01*
X174060788Y-131388149D01*
X173508408Y-132316720D02*
X172817931Y-132316720D01*
X173646503Y-132745291D02*
X173163169Y-131245291D01*
X172679836Y-132745291D01*
D14*
X215861828Y-100208543D02*
X214718971Y-100208543D01*
X215861828Y-94442743D02*
X214718971Y-94442743D01*
X215836428Y-88549943D02*
X214693571Y-88549943D01*
X215265000Y-89121371D02*
X215265000Y-87978514D01*
X215785628Y-82911143D02*
X214642771Y-82911143D01*
X215214200Y-83482571D02*
X215214200Y-82339714D01*
D13*
X170075981Y-78697343D02*
X171726981Y-79197343D01*
X170075981Y-79697343D01*
X171726981Y-80197343D02*
X170075981Y-80197343D01*
X171726981Y-80911629D02*
X170075981Y-80911629D01*
X171726981Y-81768772D01*
X170075981Y-81768772D01*
X172720000Y-79197343D02*
X172641381Y-79054486D01*
X172641381Y-78840200D01*
X172720000Y-78625915D01*
X172877238Y-78483057D01*
X173034476Y-78411629D01*
X173348952Y-78340200D01*
X173584810Y-78340200D01*
X173899286Y-78411629D01*
X174056524Y-78483057D01*
X174213762Y-78625915D01*
X174292381Y-78840200D01*
X174292381Y-78983057D01*
X174213762Y-79197343D01*
X174135143Y-79268772D01*
X173584810Y-79268772D01*
X173584810Y-78983057D01*
X174292381Y-79911629D02*
X172641381Y-79911629D01*
X174292381Y-80768772D01*
X172641381Y-80768772D01*
X174292381Y-81483058D02*
X172641381Y-81483058D01*
X172641381Y-81840201D01*
X172720000Y-82054486D01*
X172877238Y-82197344D01*
X173034476Y-82268772D01*
X173348952Y-82340201D01*
X173584810Y-82340201D01*
X173899286Y-82268772D01*
X174056524Y-82197344D01*
X174213762Y-82054486D01*
X174292381Y-81840201D01*
X174292381Y-81483058D01*
X175285400Y-79197343D02*
X175206781Y-79054486D01*
X175206781Y-78840200D01*
X175285400Y-78625915D01*
X175442638Y-78483057D01*
X175599876Y-78411629D01*
X175914352Y-78340200D01*
X176150210Y-78340200D01*
X176464686Y-78411629D01*
X176621924Y-78483057D01*
X176779162Y-78625915D01*
X176857781Y-78840200D01*
X176857781Y-78983057D01*
X176779162Y-79197343D01*
X176700543Y-79268772D01*
X176150210Y-79268772D01*
X176150210Y-78983057D01*
X176857781Y-79911629D02*
X175206781Y-79911629D01*
X176857781Y-80768772D01*
X175206781Y-80768772D01*
X176857781Y-81483058D02*
X175206781Y-81483058D01*
X175206781Y-81840201D01*
X175285400Y-82054486D01*
X175442638Y-82197344D01*
X175599876Y-82268772D01*
X175914352Y-82340201D01*
X176150210Y-82340201D01*
X176464686Y-82268772D01*
X176621924Y-82197344D01*
X176779162Y-82054486D01*
X176857781Y-81840201D01*
X176857781Y-81483058D01*
X177772181Y-80054487D02*
X177772181Y-79340201D01*
X178558371Y-79268772D01*
X178479752Y-79340201D01*
X178401133Y-79483058D01*
X178401133Y-79840201D01*
X178479752Y-79983058D01*
X178558371Y-80054487D01*
X178715610Y-80125915D01*
X179108705Y-80125915D01*
X179265943Y-80054487D01*
X179344562Y-79983058D01*
X179423181Y-79840201D01*
X179423181Y-79483058D01*
X179344562Y-79340201D01*
X179265943Y-79268772D01*
X177772181Y-80554486D02*
X179423181Y-81054486D01*
X177772181Y-81554486D01*
X180337581Y-78125915D02*
X180337581Y-79054486D01*
X180966533Y-78554486D01*
X180966533Y-78768772D01*
X181045152Y-78911629D01*
X181123771Y-78983058D01*
X181281010Y-79054486D01*
X181674105Y-79054486D01*
X181831343Y-78983058D01*
X181909962Y-78911629D01*
X181988581Y-78768772D01*
X181988581Y-78340200D01*
X181909962Y-78197343D01*
X181831343Y-78125915D01*
X181831343Y-79697343D02*
X181909962Y-79768771D01*
X181988581Y-79697343D01*
X181909962Y-79625914D01*
X181831343Y-79697343D01*
X181988581Y-79697343D01*
X180337581Y-80268772D02*
X180337581Y-81197343D01*
X180966533Y-80697343D01*
X180966533Y-80911629D01*
X181045152Y-81054486D01*
X181123771Y-81125915D01*
X181281010Y-81197343D01*
X181674105Y-81197343D01*
X181831343Y-81125915D01*
X181909962Y-81054486D01*
X181988581Y-80911629D01*
X181988581Y-80483057D01*
X181909962Y-80340200D01*
X181831343Y-80268772D01*
X180337581Y-81625914D02*
X181988581Y-82125914D01*
X180337581Y-82625914D01*
X184553981Y-79518772D02*
X183767790Y-79018772D01*
X184553981Y-78661629D02*
X182902981Y-78661629D01*
X182902981Y-79233057D01*
X182981600Y-79375915D01*
X183060219Y-79447343D01*
X183217457Y-79518772D01*
X183453314Y-79518772D01*
X183610552Y-79447343D01*
X183689171Y-79375915D01*
X183767790Y-79233057D01*
X183767790Y-78661629D01*
X184475362Y-80090200D02*
X184553981Y-80304486D01*
X184553981Y-80661629D01*
X184475362Y-80804486D01*
X184396743Y-80875915D01*
X184239505Y-80947343D01*
X184082267Y-80947343D01*
X183925029Y-80875915D01*
X183846410Y-80804486D01*
X183767790Y-80661629D01*
X183689171Y-80375915D01*
X183610552Y-80233057D01*
X183531933Y-80161629D01*
X183374695Y-80090200D01*
X183217457Y-80090200D01*
X183060219Y-80161629D01*
X182981600Y-80233057D01*
X182902981Y-80375915D01*
X182902981Y-80733057D01*
X182981600Y-80947343D01*
X182902981Y-81375914D02*
X182902981Y-82233057D01*
X184553981Y-81804486D02*
X182902981Y-81804486D01*
X213015600Y-50869669D02*
X213015600Y-49345669D01*
X212253695Y-49345669D01*
X212063219Y-49418240D01*
X211967980Y-49490811D01*
X211872742Y-49635954D01*
X211872742Y-49853669D01*
X211967980Y-49998811D01*
X212063219Y-50071383D01*
X212253695Y-50143954D01*
X213015600Y-50143954D01*
X211015600Y-50869669D02*
X211015600Y-49345669D01*
X208920361Y-50724526D02*
X209015599Y-50797097D01*
X209301314Y-50869669D01*
X209491790Y-50869669D01*
X209777504Y-50797097D01*
X209967980Y-50651954D01*
X210063219Y-50506811D01*
X210158457Y-50216526D01*
X210158457Y-49998811D01*
X210063219Y-49708526D01*
X209967980Y-49563383D01*
X209777504Y-49418240D01*
X209491790Y-49345669D01*
X209301314Y-49345669D01*
X209015599Y-49418240D01*
X208920361Y-49490811D01*
X208158457Y-50434240D02*
X207206076Y-50434240D01*
X208348933Y-50869669D02*
X207682266Y-49345669D01*
X207015599Y-50869669D01*
X206348933Y-50289097D02*
X204825123Y-50289097D01*
X203872743Y-50869669D02*
X203872743Y-49345669D01*
X203110838Y-49345669D01*
X202920362Y-49418240D01*
X202825123Y-49490811D01*
X202729885Y-49635954D01*
X202729885Y-49853669D01*
X202825123Y-49998811D01*
X202920362Y-50071383D01*
X203110838Y-50143954D01*
X203872743Y-50143954D01*
X200729885Y-50724526D02*
X200825123Y-50797097D01*
X201110838Y-50869669D01*
X201301314Y-50869669D01*
X201587028Y-50797097D01*
X201777504Y-50651954D01*
X201872743Y-50506811D01*
X201967981Y-50216526D01*
X201967981Y-49998811D01*
X201872743Y-49708526D01*
X201777504Y-49563383D01*
X201587028Y-49418240D01*
X201301314Y-49345669D01*
X201110838Y-49345669D01*
X200825123Y-49418240D01*
X200729885Y-49490811D01*
X199206076Y-50071383D02*
X198920362Y-50143954D01*
X198825123Y-50216526D01*
X198729885Y-50361669D01*
X198729885Y-50579383D01*
X198825123Y-50724526D01*
X198920362Y-50797097D01*
X199110838Y-50869669D01*
X199872743Y-50869669D01*
X199872743Y-49345669D01*
X199206076Y-49345669D01*
X199015600Y-49418240D01*
X198920362Y-49490811D01*
X198825123Y-49635954D01*
X198825123Y-49781097D01*
X198920362Y-49926240D01*
X199015600Y-49998811D01*
X199206076Y-50071383D01*
X199872743Y-50071383D01*
X197872743Y-50289097D02*
X196348933Y-50289097D01*
X194253695Y-50869669D02*
X194920362Y-50143954D01*
X195396553Y-50869669D02*
X195396553Y-49345669D01*
X194634648Y-49345669D01*
X194444172Y-49418240D01*
X194348933Y-49490811D01*
X194253695Y-49635954D01*
X194253695Y-49853669D01*
X194348933Y-49998811D01*
X194444172Y-50071383D01*
X194634648Y-50143954D01*
X195396553Y-50143954D01*
X193396553Y-50071383D02*
X192729886Y-50071383D01*
X192444172Y-50869669D02*
X193396553Y-50869669D01*
X193396553Y-49345669D01*
X192444172Y-49345669D01*
X191872743Y-49345669D02*
X191206076Y-50869669D01*
X190539409Y-49345669D01*
X189872743Y-50071383D02*
X189206076Y-50071383D01*
X188920362Y-50869669D02*
X189872743Y-50869669D01*
X189872743Y-49345669D01*
X188920362Y-49345669D01*
D16*
X140055600Y-140893800D02*
X140055600Y-141427200D01*
X140055600Y-141427200D02*
X145846800Y-141427200D01*
X145846800Y-141427200D02*
X145846800Y-140817600D01*
X140055600Y-138328400D02*
X140055600Y-139522200D01*
X140055600Y-135788400D02*
X140055600Y-136982200D01*
X140055600Y-133248400D02*
X140055600Y-134416800D01*
X145846800Y-138303000D02*
X145846800Y-139496800D01*
X145846800Y-135712200D02*
X145846800Y-136956800D01*
X145846800Y-133172200D02*
X145846800Y-134442200D01*
X145846800Y-131927600D02*
X145846800Y-131470400D01*
X145846800Y-131470400D02*
X140055600Y-131470400D01*
X140055600Y-131470400D02*
X140055600Y-131953000D01*
X147218400Y-132537200D02*
X147980400Y-132029200D01*
X147980400Y-132029200D02*
X147980400Y-133045200D01*
X147980400Y-133045200D02*
X147218400Y-132537200D01*
X150639400Y-141007200D02*
X149639400Y-141007200D01*
X149639400Y-139307200D02*
X150639400Y-139307200D01*
X142776600Y-130478000D02*
G75*
G03X142776600Y-130478000I-100000J0D01*
G01*
X143226600Y-130228000D02*
X142726600Y-130228000D01*
X143226600Y-127328000D02*
X143226600Y-130228000D01*
X142726600Y-127328000D02*
X143226600Y-127328000D01*
X142726600Y-130228000D02*
X142726600Y-127328000D01*
X138425181Y-133837514D02*
X137425181Y-133837514D01*
X137425181Y-134218467D01*
X137472800Y-134313705D01*
X137520419Y-134361324D01*
X137615657Y-134408943D01*
X137758514Y-134408943D01*
X137853752Y-134361324D01*
X137901371Y-134313705D01*
X137948990Y-134218467D01*
X137948990Y-133837514D01*
X137520419Y-134789895D02*
X137472800Y-134837514D01*
X137425181Y-134932752D01*
X137425181Y-135170848D01*
X137472800Y-135266086D01*
X137520419Y-135313705D01*
X137615657Y-135361324D01*
X137710895Y-135361324D01*
X137853752Y-135313705D01*
X138425181Y-134742276D01*
X138425181Y-135361324D01*
X137425181Y-136218467D02*
X137425181Y-136027990D01*
X137472800Y-135932752D01*
X137520419Y-135885133D01*
X137663276Y-135789895D01*
X137853752Y-135742276D01*
X138234705Y-135742276D01*
X138329943Y-135789895D01*
X138377562Y-135837514D01*
X138425181Y-135932752D01*
X138425181Y-136123229D01*
X138377562Y-136218467D01*
X138329943Y-136266086D01*
X138234705Y-136313705D01*
X137996610Y-136313705D01*
X137901371Y-136266086D01*
X137853752Y-136218467D01*
X137806133Y-136123229D01*
X137806133Y-135932752D01*
X137853752Y-135837514D01*
X137901371Y-135789895D01*
X137996610Y-135742276D01*
X154668457Y-140641343D02*
X154716076Y-140688962D01*
X154858933Y-140736581D01*
X154954171Y-140736581D01*
X155097029Y-140688962D01*
X155192267Y-140593724D01*
X155239886Y-140498486D01*
X155287505Y-140308010D01*
X155287505Y-140165152D01*
X155239886Y-139974676D01*
X155192267Y-139879438D01*
X155097029Y-139784200D01*
X154954171Y-139736581D01*
X154858933Y-139736581D01*
X154716076Y-139784200D01*
X154668457Y-139831819D01*
X153716076Y-140736581D02*
X154287505Y-140736581D01*
X154001791Y-140736581D02*
X154001791Y-139736581D01*
X154097029Y-139879438D01*
X154192267Y-139974676D01*
X154287505Y-140022295D01*
X152858933Y-139736581D02*
X153049410Y-139736581D01*
X153144648Y-139784200D01*
X153192267Y-139831819D01*
X153287505Y-139974676D01*
X153335124Y-140165152D01*
X153335124Y-140546105D01*
X153287505Y-140641343D01*
X153239886Y-140688962D01*
X153144648Y-140736581D01*
X152954171Y-140736581D01*
X152858933Y-140688962D01*
X152811314Y-140641343D01*
X152763695Y-140546105D01*
X152763695Y-140308010D01*
X152811314Y-140212771D01*
X152858933Y-140165152D01*
X152954171Y-140117533D01*
X153144648Y-140117533D01*
X153239886Y-140165152D01*
X153287505Y-140212771D01*
X153335124Y-140308010D01*
X146938905Y-127011181D02*
X146938905Y-127820705D01*
X146891286Y-127915943D01*
X146843667Y-127963562D01*
X146748429Y-128011181D01*
X146557952Y-128011181D01*
X146462714Y-127963562D01*
X146415095Y-127915943D01*
X146367476Y-127820705D01*
X146367476Y-127011181D01*
X145986524Y-127011181D02*
X145367476Y-127011181D01*
X145700810Y-127392133D01*
X145557952Y-127392133D01*
X145462714Y-127439752D01*
X145415095Y-127487371D01*
X145367476Y-127582610D01*
X145367476Y-127820705D01*
X145415095Y-127915943D01*
X145462714Y-127963562D01*
X145557952Y-128011181D01*
X145843667Y-128011181D01*
X145938905Y-127963562D01*
X145986524Y-127915943D01*
M02*
