G04 #@! TF.FileFunction,Legend,Bot*
%FSLAX46Y46*%
G04 Gerber Fmt 4.6, Leading zero omitted, Abs format (unit mm)*
G04 Created by KiCad (PCBNEW 4.0.2-stable) date 5/17/2016 9:00:00 PM*
%MOMM*%
G01*
G04 APERTURE LIST*
%ADD10C,0.100000*%
%ADD11C,0.203200*%
%ADD12C,0.200000*%
%ADD13C,0.300000*%
%ADD14C,0.254000*%
%ADD15C,0.150000*%
G04 APERTURE END LIST*
D10*
D11*
X170142505Y-93487724D02*
X170565838Y-92882962D01*
X170868219Y-93487724D02*
X170868219Y-92217724D01*
X170384410Y-92217724D01*
X170263457Y-92278200D01*
X170202981Y-92338676D01*
X170142505Y-92459629D01*
X170142505Y-92641057D01*
X170202981Y-92762010D01*
X170263457Y-92822486D01*
X170384410Y-92882962D01*
X170868219Y-92882962D01*
X169598219Y-92822486D02*
X169174886Y-92822486D01*
X168993457Y-93487724D02*
X169598219Y-93487724D01*
X169598219Y-92217724D01*
X168993457Y-92217724D01*
X167723457Y-93366771D02*
X167783933Y-93427248D01*
X167965362Y-93487724D01*
X168086314Y-93487724D01*
X168267742Y-93427248D01*
X168388695Y-93306295D01*
X168449171Y-93185343D01*
X168509647Y-92943438D01*
X168509647Y-92762010D01*
X168449171Y-92520105D01*
X168388695Y-92399152D01*
X168267742Y-92278200D01*
X168086314Y-92217724D01*
X167965362Y-92217724D01*
X167783933Y-92278200D01*
X167723457Y-92338676D01*
X166937266Y-92217724D02*
X166695362Y-92217724D01*
X166574409Y-92278200D01*
X166453457Y-92399152D01*
X166392981Y-92641057D01*
X166392981Y-93064390D01*
X166453457Y-93306295D01*
X166574409Y-93427248D01*
X166695362Y-93487724D01*
X166937266Y-93487724D01*
X167058219Y-93427248D01*
X167179171Y-93306295D01*
X167239647Y-93064390D01*
X167239647Y-92641057D01*
X167179171Y-92399152D01*
X167058219Y-92278200D01*
X166937266Y-92217724D01*
X165848695Y-93487724D02*
X165848695Y-92217724D01*
X165425362Y-93124867D01*
X165002028Y-92217724D01*
X165002028Y-93487724D01*
X164397266Y-93487724D02*
X164397266Y-92217724D01*
X163973933Y-93124867D01*
X163550599Y-92217724D01*
X163550599Y-93487724D01*
X162945837Y-92822486D02*
X162522504Y-92822486D01*
X162341075Y-93487724D02*
X162945837Y-93487724D01*
X162945837Y-92217724D01*
X162341075Y-92217724D01*
X161796789Y-93487724D02*
X161796789Y-92217724D01*
X161071075Y-93487724D01*
X161071075Y-92217724D01*
X160466313Y-93487724D02*
X160466313Y-92217724D01*
X160163932Y-92217724D01*
X159982504Y-92278200D01*
X159861551Y-92399152D01*
X159801075Y-92520105D01*
X159740599Y-92762010D01*
X159740599Y-92943438D01*
X159801075Y-93185343D01*
X159861551Y-93306295D01*
X159982504Y-93427248D01*
X160163932Y-93487724D01*
X160466313Y-93487724D01*
X159196313Y-92822486D02*
X158772980Y-92822486D01*
X158591551Y-93487724D02*
X159196313Y-93487724D01*
X159196313Y-92217724D01*
X158591551Y-92217724D01*
X158047265Y-93487724D02*
X158047265Y-92217724D01*
X157744884Y-92217724D01*
X157563456Y-92278200D01*
X157442503Y-92399152D01*
X157382027Y-92520105D01*
X157321551Y-92762010D01*
X157321551Y-92943438D01*
X157382027Y-93185343D01*
X157442503Y-93306295D01*
X157563456Y-93427248D01*
X157744884Y-93487724D01*
X158047265Y-93487724D01*
X155083932Y-93366771D02*
X155144408Y-93427248D01*
X155325837Y-93487724D01*
X155446789Y-93487724D01*
X155628217Y-93427248D01*
X155749170Y-93306295D01*
X155809646Y-93185343D01*
X155870122Y-92943438D01*
X155870122Y-92762010D01*
X155809646Y-92520105D01*
X155749170Y-92399152D01*
X155628217Y-92278200D01*
X155446789Y-92217724D01*
X155325837Y-92217724D01*
X155144408Y-92278200D01*
X155083932Y-92338676D01*
X154297741Y-92217724D02*
X154055837Y-92217724D01*
X153934884Y-92278200D01*
X153813932Y-92399152D01*
X153753456Y-92641057D01*
X153753456Y-93064390D01*
X153813932Y-93306295D01*
X153934884Y-93427248D01*
X154055837Y-93487724D01*
X154297741Y-93487724D01*
X154418694Y-93427248D01*
X154539646Y-93306295D01*
X154600122Y-93064390D01*
X154600122Y-92641057D01*
X154539646Y-92399152D01*
X154418694Y-92278200D01*
X154297741Y-92217724D01*
X153209170Y-93487724D02*
X153209170Y-92217724D01*
X152483456Y-93487724D01*
X152483456Y-92217724D01*
X151878694Y-93487724D02*
X151878694Y-92217724D01*
X151152980Y-93487724D01*
X151152980Y-92217724D01*
X150548218Y-92822486D02*
X150124885Y-92822486D01*
X149943456Y-93487724D02*
X150548218Y-93487724D01*
X150548218Y-92217724D01*
X149943456Y-92217724D01*
X148673456Y-93366771D02*
X148733932Y-93427248D01*
X148915361Y-93487724D01*
X149036313Y-93487724D01*
X149217741Y-93427248D01*
X149338694Y-93306295D01*
X149399170Y-93185343D01*
X149459646Y-92943438D01*
X149459646Y-92762010D01*
X149399170Y-92520105D01*
X149338694Y-92399152D01*
X149217741Y-92278200D01*
X149036313Y-92217724D01*
X148915361Y-92217724D01*
X148733932Y-92278200D01*
X148673456Y-92338676D01*
X148310599Y-92217724D02*
X147584884Y-92217724D01*
X147947741Y-93487724D02*
X147947741Y-92217724D01*
X147161551Y-93487724D02*
X147161551Y-92217724D01*
X146314884Y-92217724D02*
X146072980Y-92217724D01*
X145952027Y-92278200D01*
X145831075Y-92399152D01*
X145770599Y-92641057D01*
X145770599Y-93064390D01*
X145831075Y-93306295D01*
X145952027Y-93427248D01*
X146072980Y-93487724D01*
X146314884Y-93487724D01*
X146435837Y-93427248D01*
X146556789Y-93306295D01*
X146617265Y-93064390D01*
X146617265Y-92641057D01*
X146556789Y-92399152D01*
X146435837Y-92278200D01*
X146314884Y-92217724D01*
X145226313Y-93487724D02*
X145226313Y-92217724D01*
X144500599Y-93487724D01*
X144500599Y-92217724D01*
X143956313Y-93427248D02*
X143774885Y-93487724D01*
X143472504Y-93487724D01*
X143351551Y-93427248D01*
X143291075Y-93366771D01*
X143230599Y-93245819D01*
X143230599Y-93124867D01*
X143291075Y-93003914D01*
X143351551Y-92943438D01*
X143472504Y-92882962D01*
X143714408Y-92822486D01*
X143835361Y-92762010D01*
X143895837Y-92701533D01*
X143956313Y-92580581D01*
X143956313Y-92459629D01*
X143895837Y-92338676D01*
X143835361Y-92278200D01*
X143714408Y-92217724D01*
X143412028Y-92217724D01*
X143230599Y-92278200D01*
X170868219Y-95468924D02*
X170868219Y-94198924D01*
X170868219Y-94803686D02*
X170142505Y-94803686D01*
X170142505Y-95468924D02*
X170142505Y-94198924D01*
X169537743Y-94803686D02*
X169114410Y-94803686D01*
X168932981Y-95468924D02*
X169537743Y-95468924D01*
X169537743Y-94198924D01*
X168932981Y-94198924D01*
X168449171Y-95106067D02*
X167844409Y-95106067D01*
X168570124Y-95468924D02*
X168146790Y-94198924D01*
X167723457Y-95468924D01*
X167481553Y-94198924D02*
X166755838Y-94198924D01*
X167118695Y-95468924D02*
X167118695Y-94198924D01*
X165909172Y-94803686D02*
X165727743Y-94864162D01*
X165667267Y-94924638D01*
X165606791Y-95045590D01*
X165606791Y-95227019D01*
X165667267Y-95347971D01*
X165727743Y-95408448D01*
X165848696Y-95468924D01*
X166332505Y-95468924D01*
X166332505Y-94198924D01*
X165909172Y-94198924D01*
X165788219Y-94259400D01*
X165727743Y-94319876D01*
X165667267Y-94440829D01*
X165667267Y-94561781D01*
X165727743Y-94682733D01*
X165788219Y-94743210D01*
X165909172Y-94803686D01*
X166332505Y-94803686D01*
X165062505Y-94803686D02*
X164639172Y-94803686D01*
X164457743Y-95468924D02*
X165062505Y-95468924D01*
X165062505Y-94198924D01*
X164457743Y-94198924D01*
X163913457Y-95468924D02*
X163913457Y-94198924D01*
X163611076Y-94198924D01*
X163429648Y-94259400D01*
X163308695Y-94380352D01*
X163248219Y-94501305D01*
X163187743Y-94743210D01*
X163187743Y-94924638D01*
X163248219Y-95166543D01*
X163308695Y-95287495D01*
X163429648Y-95408448D01*
X163611076Y-95468924D01*
X163913457Y-95468924D01*
X161675838Y-94985114D02*
X160708219Y-94985114D01*
X158712505Y-94803686D02*
X159135838Y-94803686D01*
X159135838Y-95468924D02*
X159135838Y-94198924D01*
X158531076Y-94198924D01*
X158047267Y-94803686D02*
X157623934Y-94803686D01*
X157442505Y-95468924D02*
X158047267Y-95468924D01*
X158047267Y-94198924D01*
X157442505Y-94198924D01*
X157079648Y-94198924D02*
X156353933Y-94198924D01*
X156716790Y-95468924D02*
X156716790Y-94198924D01*
X155265362Y-95468924D02*
X155991076Y-95468924D01*
X155628219Y-95468924D02*
X155628219Y-94198924D01*
X155749171Y-94380352D01*
X155870124Y-94501305D01*
X155991076Y-94561781D01*
X170868219Y-97450124D02*
X170868219Y-96180124D01*
X170868219Y-96784886D02*
X170142505Y-96784886D01*
X170142505Y-97450124D02*
X170142505Y-96180124D01*
X169295838Y-96180124D02*
X169053934Y-96180124D01*
X168932981Y-96240600D01*
X168812029Y-96361552D01*
X168751553Y-96603457D01*
X168751553Y-97026790D01*
X168812029Y-97268695D01*
X168932981Y-97389648D01*
X169053934Y-97450124D01*
X169295838Y-97450124D01*
X169416791Y-97389648D01*
X169537743Y-97268695D01*
X169598219Y-97026790D01*
X169598219Y-96603457D01*
X169537743Y-96361552D01*
X169416791Y-96240600D01*
X169295838Y-96180124D01*
X168388696Y-96180124D02*
X167662981Y-96180124D01*
X168025838Y-97450124D02*
X168025838Y-96180124D01*
X167239648Y-96784886D02*
X166816315Y-96784886D01*
X166634886Y-97450124D02*
X167239648Y-97450124D01*
X167239648Y-96180124D01*
X166634886Y-96180124D01*
X166090600Y-97450124D02*
X166090600Y-96180124D01*
X165364886Y-97450124D01*
X165364886Y-96180124D01*
X164760124Y-97450124D02*
X164760124Y-96180124D01*
X164457743Y-96180124D01*
X164276315Y-96240600D01*
X164155362Y-96361552D01*
X164094886Y-96482505D01*
X164034410Y-96724410D01*
X164034410Y-96905838D01*
X164094886Y-97147743D01*
X164155362Y-97268695D01*
X164276315Y-97389648D01*
X164457743Y-97450124D01*
X164760124Y-97450124D01*
X162522505Y-96966314D02*
X161554886Y-96966314D01*
X159559172Y-96784886D02*
X159982505Y-96784886D01*
X159982505Y-97450124D02*
X159982505Y-96180124D01*
X159377743Y-96180124D01*
X158893934Y-96784886D02*
X158470601Y-96784886D01*
X158289172Y-97450124D02*
X158893934Y-97450124D01*
X158893934Y-96180124D01*
X158289172Y-96180124D01*
X157926315Y-96180124D02*
X157200600Y-96180124D01*
X157563457Y-97450124D02*
X157563457Y-96180124D01*
X156837743Y-96301076D02*
X156777267Y-96240600D01*
X156656315Y-96180124D01*
X156353934Y-96180124D01*
X156232981Y-96240600D01*
X156172505Y-96301076D01*
X156112029Y-96422029D01*
X156112029Y-96542981D01*
X156172505Y-96724410D01*
X156898219Y-97450124D01*
X156112029Y-97450124D01*
X170868219Y-99431324D02*
X170868219Y-98161324D01*
X170384410Y-98161324D01*
X170263457Y-98221800D01*
X170202981Y-98282276D01*
X170142505Y-98403229D01*
X170142505Y-98584657D01*
X170202981Y-98705610D01*
X170263457Y-98766086D01*
X170384410Y-98826562D01*
X170868219Y-98826562D01*
X168872505Y-99431324D02*
X169295838Y-98826562D01*
X169598219Y-99431324D02*
X169598219Y-98161324D01*
X169114410Y-98161324D01*
X168993457Y-98221800D01*
X168932981Y-98282276D01*
X168872505Y-98403229D01*
X168872505Y-98584657D01*
X168932981Y-98705610D01*
X168993457Y-98766086D01*
X169114410Y-98826562D01*
X169598219Y-98826562D01*
X168328219Y-99431324D02*
X168328219Y-98161324D01*
X167723457Y-99431324D02*
X167723457Y-98161324D01*
X166997743Y-99431324D01*
X166997743Y-98161324D01*
X166574410Y-98161324D02*
X165848695Y-98161324D01*
X166211552Y-99431324D02*
X166211552Y-98161324D01*
X164034410Y-98766086D02*
X164457743Y-98766086D01*
X164457743Y-99431324D02*
X164457743Y-98161324D01*
X163852981Y-98161324D01*
X163429648Y-99068467D02*
X162824886Y-99068467D01*
X163550601Y-99431324D02*
X163127267Y-98161324D01*
X162703934Y-99431324D01*
X162280601Y-99431324D02*
X162280601Y-98161324D01*
X161554887Y-99431324D01*
X161554887Y-98161324D01*
X159982506Y-98947514D02*
X159014887Y-98947514D01*
X157019173Y-98766086D02*
X157442506Y-98766086D01*
X157442506Y-99431324D02*
X157442506Y-98161324D01*
X156837744Y-98161324D01*
X156353935Y-98766086D02*
X155930602Y-98766086D01*
X155749173Y-99431324D02*
X156353935Y-99431324D01*
X156353935Y-98161324D01*
X155749173Y-98161324D01*
X155386316Y-98161324D02*
X154660601Y-98161324D01*
X155023458Y-99431324D02*
X155023458Y-98161324D01*
X153692982Y-98584657D02*
X153692982Y-99431324D01*
X153995363Y-98100848D02*
X154297744Y-99007990D01*
X153511554Y-99007990D01*
D12*
X217682820Y-111658400D02*
G75*
G03X217682820Y-111658400I-3281420J0D01*
G01*
D13*
X209351714Y-112264114D02*
X209423143Y-112335543D01*
X209637429Y-112406971D01*
X209780286Y-112406971D01*
X209994571Y-112335543D01*
X210137429Y-112192686D01*
X210208857Y-112049829D01*
X210280286Y-111764114D01*
X210280286Y-111549829D01*
X210208857Y-111264114D01*
X210137429Y-111121257D01*
X209994571Y-110978400D01*
X209780286Y-110906971D01*
X209637429Y-110906971D01*
X209423143Y-110978400D01*
X209351714Y-111049829D01*
X208708857Y-112406971D02*
X208708857Y-111406971D01*
X208708857Y-111692686D02*
X208637429Y-111549829D01*
X208566000Y-111478400D01*
X208423143Y-111406971D01*
X208280286Y-111406971D01*
X207208858Y-112335543D02*
X207351715Y-112406971D01*
X207637429Y-112406971D01*
X207780286Y-112335543D01*
X207851715Y-112192686D01*
X207851715Y-111621257D01*
X207780286Y-111478400D01*
X207637429Y-111406971D01*
X207351715Y-111406971D01*
X207208858Y-111478400D01*
X207137429Y-111621257D01*
X207137429Y-111764114D01*
X207851715Y-111906971D01*
X205851715Y-112406971D02*
X205851715Y-111621257D01*
X205923144Y-111478400D01*
X206066001Y-111406971D01*
X206351715Y-111406971D01*
X206494572Y-111478400D01*
X205851715Y-112335543D02*
X205994572Y-112406971D01*
X206351715Y-112406971D01*
X206494572Y-112335543D01*
X206566001Y-112192686D01*
X206566001Y-112049829D01*
X206494572Y-111906971D01*
X206351715Y-111835543D01*
X205994572Y-111835543D01*
X205851715Y-111764114D01*
X205351715Y-111406971D02*
X204780286Y-111406971D01*
X205137429Y-110906971D02*
X205137429Y-112192686D01*
X205066001Y-112335543D01*
X204923143Y-112406971D01*
X204780286Y-112406971D01*
X204280286Y-112406971D02*
X204280286Y-111406971D01*
X204280286Y-110906971D02*
X204351715Y-110978400D01*
X204280286Y-111049829D01*
X204208858Y-110978400D01*
X204280286Y-110906971D01*
X204280286Y-111049829D01*
X203708857Y-111406971D02*
X203351714Y-112406971D01*
X202994572Y-111406971D01*
X201851715Y-112335543D02*
X201994572Y-112406971D01*
X202280286Y-112406971D01*
X202423143Y-112335543D01*
X202494572Y-112192686D01*
X202494572Y-111621257D01*
X202423143Y-111478400D01*
X202280286Y-111406971D01*
X201994572Y-111406971D01*
X201851715Y-111478400D01*
X201780286Y-111621257D01*
X201780286Y-111764114D01*
X202494572Y-111906971D01*
X199137429Y-112264114D02*
X199208858Y-112335543D01*
X199423144Y-112406971D01*
X199566001Y-112406971D01*
X199780286Y-112335543D01*
X199923144Y-112192686D01*
X199994572Y-112049829D01*
X200066001Y-111764114D01*
X200066001Y-111549829D01*
X199994572Y-111264114D01*
X199923144Y-111121257D01*
X199780286Y-110978400D01*
X199566001Y-110906971D01*
X199423144Y-110906971D01*
X199208858Y-110978400D01*
X199137429Y-111049829D01*
X198280286Y-112406971D02*
X198423144Y-112335543D01*
X198494572Y-112264114D01*
X198566001Y-112121257D01*
X198566001Y-111692686D01*
X198494572Y-111549829D01*
X198423144Y-111478400D01*
X198280286Y-111406971D01*
X198066001Y-111406971D01*
X197923144Y-111478400D01*
X197851715Y-111549829D01*
X197780286Y-111692686D01*
X197780286Y-112121257D01*
X197851715Y-112264114D01*
X197923144Y-112335543D01*
X198066001Y-112406971D01*
X198280286Y-112406971D01*
X197137429Y-112406971D02*
X197137429Y-111406971D01*
X197137429Y-111549829D02*
X197066001Y-111478400D01*
X196923143Y-111406971D01*
X196708858Y-111406971D01*
X196566001Y-111478400D01*
X196494572Y-111621257D01*
X196494572Y-112406971D01*
X196494572Y-111621257D02*
X196423143Y-111478400D01*
X196280286Y-111406971D01*
X196066001Y-111406971D01*
X195923143Y-111478400D01*
X195851715Y-111621257D01*
X195851715Y-112406971D01*
X195137429Y-112406971D02*
X195137429Y-111406971D01*
X195137429Y-111549829D02*
X195066001Y-111478400D01*
X194923143Y-111406971D01*
X194708858Y-111406971D01*
X194566001Y-111478400D01*
X194494572Y-111621257D01*
X194494572Y-112406971D01*
X194494572Y-111621257D02*
X194423143Y-111478400D01*
X194280286Y-111406971D01*
X194066001Y-111406971D01*
X193923143Y-111478400D01*
X193851715Y-111621257D01*
X193851715Y-112406971D01*
X192923143Y-112406971D02*
X193066001Y-112335543D01*
X193137429Y-112264114D01*
X193208858Y-112121257D01*
X193208858Y-111692686D01*
X193137429Y-111549829D01*
X193066001Y-111478400D01*
X192923143Y-111406971D01*
X192708858Y-111406971D01*
X192566001Y-111478400D01*
X192494572Y-111549829D01*
X192423143Y-111692686D01*
X192423143Y-112121257D01*
X192494572Y-112264114D01*
X192566001Y-112335543D01*
X192708858Y-112406971D01*
X192923143Y-112406971D01*
X191780286Y-111406971D02*
X191780286Y-112406971D01*
X191780286Y-111549829D02*
X191708858Y-111478400D01*
X191566000Y-111406971D01*
X191351715Y-111406971D01*
X191208858Y-111478400D01*
X191137429Y-111621257D01*
X191137429Y-112406971D01*
X190494572Y-112335543D02*
X190351715Y-112406971D01*
X190066000Y-112406971D01*
X189923143Y-112335543D01*
X189851715Y-112192686D01*
X189851715Y-112121257D01*
X189923143Y-111978400D01*
X190066000Y-111906971D01*
X190280286Y-111906971D01*
X190423143Y-111835543D01*
X190494572Y-111692686D01*
X190494572Y-111621257D01*
X190423143Y-111478400D01*
X190280286Y-111406971D01*
X190066000Y-111406971D01*
X189923143Y-111478400D01*
X210280286Y-114378400D02*
X209566000Y-114378400D01*
X210423143Y-114806971D02*
X209923143Y-113306971D01*
X209423143Y-114806971D01*
X209137429Y-113806971D02*
X208566000Y-113806971D01*
X208923143Y-113306971D02*
X208923143Y-114592686D01*
X208851715Y-114735543D01*
X208708857Y-114806971D01*
X208566000Y-114806971D01*
X208066000Y-114806971D02*
X208066000Y-113806971D01*
X208066000Y-114092686D02*
X207994572Y-113949829D01*
X207923143Y-113878400D01*
X207780286Y-113806971D01*
X207637429Y-113806971D01*
X207137429Y-114806971D02*
X207137429Y-113806971D01*
X207137429Y-113306971D02*
X207208858Y-113378400D01*
X207137429Y-113449829D01*
X207066001Y-113378400D01*
X207137429Y-113306971D01*
X207137429Y-113449829D01*
X206423143Y-114806971D02*
X206423143Y-113306971D01*
X206423143Y-113878400D02*
X206280286Y-113806971D01*
X205994572Y-113806971D01*
X205851715Y-113878400D01*
X205780286Y-113949829D01*
X205708857Y-114092686D01*
X205708857Y-114521257D01*
X205780286Y-114664114D01*
X205851715Y-114735543D01*
X205994572Y-114806971D01*
X206280286Y-114806971D01*
X206423143Y-114735543D01*
X204423143Y-113806971D02*
X204423143Y-114806971D01*
X205066000Y-113806971D02*
X205066000Y-114592686D01*
X204994572Y-114735543D01*
X204851714Y-114806971D01*
X204637429Y-114806971D01*
X204494572Y-114735543D01*
X204423143Y-114664114D01*
X203923143Y-113806971D02*
X203351714Y-113806971D01*
X203708857Y-113306971D02*
X203708857Y-114592686D01*
X203637429Y-114735543D01*
X203494571Y-114806971D01*
X203351714Y-114806971D01*
X202851714Y-114806971D02*
X202851714Y-113806971D01*
X202851714Y-113306971D02*
X202923143Y-113378400D01*
X202851714Y-113449829D01*
X202780286Y-113378400D01*
X202851714Y-113306971D01*
X202851714Y-113449829D01*
X201923142Y-114806971D02*
X202066000Y-114735543D01*
X202137428Y-114664114D01*
X202208857Y-114521257D01*
X202208857Y-114092686D01*
X202137428Y-113949829D01*
X202066000Y-113878400D01*
X201923142Y-113806971D01*
X201708857Y-113806971D01*
X201566000Y-113878400D01*
X201494571Y-113949829D01*
X201423142Y-114092686D01*
X201423142Y-114521257D01*
X201494571Y-114664114D01*
X201566000Y-114735543D01*
X201708857Y-114806971D01*
X201923142Y-114806971D01*
X200780285Y-113806971D02*
X200780285Y-114806971D01*
X200780285Y-113949829D02*
X200708857Y-113878400D01*
X200565999Y-113806971D01*
X200351714Y-113806971D01*
X200208857Y-113878400D01*
X200137428Y-114021257D01*
X200137428Y-114806971D01*
X199423142Y-114235543D02*
X198280285Y-114235543D01*
X197637428Y-114735543D02*
X197423142Y-114806971D01*
X197065999Y-114806971D01*
X196923142Y-114735543D01*
X196851713Y-114664114D01*
X196780285Y-114521257D01*
X196780285Y-114378400D01*
X196851713Y-114235543D01*
X196923142Y-114164114D01*
X197065999Y-114092686D01*
X197351713Y-114021257D01*
X197494571Y-113949829D01*
X197565999Y-113878400D01*
X197637428Y-113735543D01*
X197637428Y-113592686D01*
X197565999Y-113449829D01*
X197494571Y-113378400D01*
X197351713Y-113306971D01*
X196994571Y-113306971D01*
X196780285Y-113378400D01*
X196137428Y-114806971D02*
X196137428Y-113306971D01*
X195494571Y-114806971D02*
X195494571Y-114021257D01*
X195566000Y-113878400D01*
X195708857Y-113806971D01*
X195923142Y-113806971D01*
X196066000Y-113878400D01*
X196137428Y-113949829D01*
X194137428Y-114806971D02*
X194137428Y-114021257D01*
X194208857Y-113878400D01*
X194351714Y-113806971D01*
X194637428Y-113806971D01*
X194780285Y-113878400D01*
X194137428Y-114735543D02*
X194280285Y-114806971D01*
X194637428Y-114806971D01*
X194780285Y-114735543D01*
X194851714Y-114592686D01*
X194851714Y-114449829D01*
X194780285Y-114306971D01*
X194637428Y-114235543D01*
X194280285Y-114235543D01*
X194137428Y-114164114D01*
X193423142Y-114806971D02*
X193423142Y-113806971D01*
X193423142Y-114092686D02*
X193351714Y-113949829D01*
X193280285Y-113878400D01*
X193137428Y-113806971D01*
X192994571Y-113806971D01*
X191923143Y-114735543D02*
X192066000Y-114806971D01*
X192351714Y-114806971D01*
X192494571Y-114735543D01*
X192566000Y-114592686D01*
X192566000Y-114021257D01*
X192494571Y-113878400D01*
X192351714Y-113806971D01*
X192066000Y-113806971D01*
X191923143Y-113878400D01*
X191851714Y-114021257D01*
X191851714Y-114164114D01*
X192566000Y-114306971D01*
X191280286Y-114378400D02*
X190566000Y-114378400D01*
X191423143Y-114806971D02*
X190923143Y-113306971D01*
X190423143Y-114806971D01*
X189708857Y-114806971D02*
X189851715Y-114735543D01*
X189923143Y-114592686D01*
X189923143Y-113306971D01*
X189137429Y-114806971D02*
X189137429Y-113806971D01*
X189137429Y-113306971D02*
X189208858Y-113378400D01*
X189137429Y-113449829D01*
X189066001Y-113378400D01*
X189137429Y-113306971D01*
X189137429Y-113449829D01*
X188423143Y-114806971D02*
X188423143Y-113306971D01*
X188280286Y-114235543D02*
X187851715Y-114806971D01*
X187851715Y-113806971D02*
X188423143Y-114378400D01*
X186637429Y-114735543D02*
X186780286Y-114806971D01*
X187066000Y-114806971D01*
X187208857Y-114735543D01*
X187280286Y-114592686D01*
X187280286Y-114021257D01*
X187208857Y-113878400D01*
X187066000Y-113806971D01*
X186780286Y-113806971D01*
X186637429Y-113878400D01*
X186566000Y-114021257D01*
X186566000Y-114164114D01*
X187280286Y-114306971D01*
X214986810Y-112641743D02*
X215107762Y-112762695D01*
X215470619Y-112883648D01*
X215712524Y-112883648D01*
X216075381Y-112762695D01*
X216317286Y-112520790D01*
X216438238Y-112278886D01*
X216559190Y-111795076D01*
X216559190Y-111432219D01*
X216438238Y-110948410D01*
X216317286Y-110706505D01*
X216075381Y-110464600D01*
X215712524Y-110343648D01*
X215470619Y-110343648D01*
X215107762Y-110464600D01*
X214986810Y-110585552D01*
X212446810Y-112641743D02*
X212567762Y-112762695D01*
X212930619Y-112883648D01*
X213172524Y-112883648D01*
X213535381Y-112762695D01*
X213777286Y-112520790D01*
X213898238Y-112278886D01*
X214019190Y-111795076D01*
X214019190Y-111432219D01*
X213898238Y-110948410D01*
X213777286Y-110706505D01*
X213535381Y-110464600D01*
X213172524Y-110343648D01*
X212930619Y-110343648D01*
X212567762Y-110464600D01*
X212446810Y-110585552D01*
D11*
X210306085Y-110025571D02*
X210306085Y-108525571D01*
X209948942Y-108525571D01*
X209734657Y-108597000D01*
X209591799Y-108739857D01*
X209520371Y-108882714D01*
X209448942Y-109168429D01*
X209448942Y-109382714D01*
X209520371Y-109668429D01*
X209591799Y-109811286D01*
X209734657Y-109954143D01*
X209948942Y-110025571D01*
X210306085Y-110025571D01*
X208234657Y-109954143D02*
X208377514Y-110025571D01*
X208663228Y-110025571D01*
X208806085Y-109954143D01*
X208877514Y-109811286D01*
X208877514Y-109239857D01*
X208806085Y-109097000D01*
X208663228Y-109025571D01*
X208377514Y-109025571D01*
X208234657Y-109097000D01*
X208163228Y-109239857D01*
X208163228Y-109382714D01*
X208877514Y-109525571D01*
X207591800Y-109954143D02*
X207448943Y-110025571D01*
X207163228Y-110025571D01*
X207020371Y-109954143D01*
X206948943Y-109811286D01*
X206948943Y-109739857D01*
X207020371Y-109597000D01*
X207163228Y-109525571D01*
X207377514Y-109525571D01*
X207520371Y-109454143D01*
X207591800Y-109311286D01*
X207591800Y-109239857D01*
X207520371Y-109097000D01*
X207377514Y-109025571D01*
X207163228Y-109025571D01*
X207020371Y-109097000D01*
X206306085Y-110025571D02*
X206306085Y-109025571D01*
X206306085Y-108525571D02*
X206377514Y-108597000D01*
X206306085Y-108668429D01*
X206234657Y-108597000D01*
X206306085Y-108525571D01*
X206306085Y-108668429D01*
X204948942Y-109025571D02*
X204948942Y-110239857D01*
X205020371Y-110382714D01*
X205091799Y-110454143D01*
X205234656Y-110525571D01*
X205448942Y-110525571D01*
X205591799Y-110454143D01*
X204948942Y-109954143D02*
X205091799Y-110025571D01*
X205377513Y-110025571D01*
X205520371Y-109954143D01*
X205591799Y-109882714D01*
X205663228Y-109739857D01*
X205663228Y-109311286D01*
X205591799Y-109168429D01*
X205520371Y-109097000D01*
X205377513Y-109025571D01*
X205091799Y-109025571D01*
X204948942Y-109097000D01*
X204234656Y-109025571D02*
X204234656Y-110025571D01*
X204234656Y-109168429D02*
X204163228Y-109097000D01*
X204020370Y-109025571D01*
X203806085Y-109025571D01*
X203663228Y-109097000D01*
X203591799Y-109239857D01*
X203591799Y-110025571D01*
X201734656Y-110025571D02*
X201734656Y-108525571D01*
X201734656Y-109097000D02*
X201591799Y-109025571D01*
X201306085Y-109025571D01*
X201163228Y-109097000D01*
X201091799Y-109168429D01*
X201020370Y-109311286D01*
X201020370Y-109739857D01*
X201091799Y-109882714D01*
X201163228Y-109954143D01*
X201306085Y-110025571D01*
X201591799Y-110025571D01*
X201734656Y-109954143D01*
X200520370Y-109025571D02*
X200163227Y-110025571D01*
X199806085Y-109025571D02*
X200163227Y-110025571D01*
X200306085Y-110382714D01*
X200377513Y-110454143D01*
X200520370Y-110525571D01*
X198091799Y-110025571D02*
X198091799Y-109025571D01*
X198091799Y-109168429D02*
X198020371Y-109097000D01*
X197877513Y-109025571D01*
X197663228Y-109025571D01*
X197520371Y-109097000D01*
X197448942Y-109239857D01*
X197448942Y-110025571D01*
X197448942Y-109239857D02*
X197377513Y-109097000D01*
X197234656Y-109025571D01*
X197020371Y-109025571D01*
X196877513Y-109097000D01*
X196806085Y-109239857D01*
X196806085Y-110025571D01*
X196091799Y-109025571D02*
X196091799Y-110311286D01*
X196163228Y-110454143D01*
X196306085Y-110525571D01*
X196377513Y-110525571D01*
X196091799Y-108525571D02*
X196163228Y-108597000D01*
X196091799Y-108668429D01*
X196020371Y-108597000D01*
X196091799Y-108525571D01*
X196091799Y-108668429D01*
X195377513Y-110025571D02*
X195377513Y-109025571D01*
X195377513Y-109311286D02*
X195306085Y-109168429D01*
X195234656Y-109097000D01*
X195091799Y-109025571D01*
X194948942Y-109025571D01*
X194448942Y-110025571D02*
X194448942Y-109025571D01*
X194448942Y-108525571D02*
X194520371Y-108597000D01*
X194448942Y-108668429D01*
X194377514Y-108597000D01*
X194448942Y-108525571D01*
X194448942Y-108668429D01*
X193091799Y-109954143D02*
X193234656Y-110025571D01*
X193520370Y-110025571D01*
X193663228Y-109954143D01*
X193734656Y-109882714D01*
X193806085Y-109739857D01*
X193806085Y-109311286D01*
X193734656Y-109168429D01*
X193663228Y-109097000D01*
X193520370Y-109025571D01*
X193234656Y-109025571D01*
X193091799Y-109097000D01*
X191877514Y-109954143D02*
X192020371Y-110025571D01*
X192306085Y-110025571D01*
X192448942Y-109954143D01*
X192520371Y-109811286D01*
X192520371Y-109239857D01*
X192448942Y-109097000D01*
X192306085Y-109025571D01*
X192020371Y-109025571D01*
X191877514Y-109097000D01*
X191806085Y-109239857D01*
X191806085Y-109382714D01*
X192520371Y-109525571D01*
X216609657Y-103438371D02*
X216609657Y-101938371D01*
X216038229Y-101938371D01*
X215895371Y-102009800D01*
X215823943Y-102081229D01*
X215752514Y-102224086D01*
X215752514Y-102438371D01*
X215823943Y-102581229D01*
X215895371Y-102652657D01*
X216038229Y-102724086D01*
X216609657Y-102724086D01*
X214895371Y-103438371D02*
X215038229Y-103366943D01*
X215109657Y-103295514D01*
X215181086Y-103152657D01*
X215181086Y-102724086D01*
X215109657Y-102581229D01*
X215038229Y-102509800D01*
X214895371Y-102438371D01*
X214681086Y-102438371D01*
X214538229Y-102509800D01*
X214466800Y-102581229D01*
X214395371Y-102724086D01*
X214395371Y-103152657D01*
X214466800Y-103295514D01*
X214538229Y-103366943D01*
X214681086Y-103438371D01*
X214895371Y-103438371D01*
X213895371Y-102438371D02*
X213609657Y-103438371D01*
X213323943Y-102724086D01*
X213038228Y-103438371D01*
X212752514Y-102438371D01*
X211609657Y-103366943D02*
X211752514Y-103438371D01*
X212038228Y-103438371D01*
X212181085Y-103366943D01*
X212252514Y-103224086D01*
X212252514Y-102652657D01*
X212181085Y-102509800D01*
X212038228Y-102438371D01*
X211752514Y-102438371D01*
X211609657Y-102509800D01*
X211538228Y-102652657D01*
X211538228Y-102795514D01*
X212252514Y-102938371D01*
X210895371Y-103438371D02*
X210895371Y-102438371D01*
X210895371Y-102724086D02*
X210823943Y-102581229D01*
X210752514Y-102509800D01*
X210609657Y-102438371D01*
X210466800Y-102438371D01*
X209895372Y-103366943D02*
X209895372Y-103438371D01*
X209966800Y-103581229D01*
X210038229Y-103652657D01*
X208109657Y-103438371D02*
X208109657Y-101938371D01*
X207395371Y-102438371D02*
X207395371Y-103438371D01*
X207395371Y-102581229D02*
X207323943Y-102509800D01*
X207181085Y-102438371D01*
X206966800Y-102438371D01*
X206823943Y-102509800D01*
X206752514Y-102652657D01*
X206752514Y-103438371D01*
X206252514Y-102438371D02*
X205681085Y-102438371D01*
X206038228Y-101938371D02*
X206038228Y-103224086D01*
X205966800Y-103366943D01*
X205823942Y-103438371D01*
X205681085Y-103438371D01*
X204609657Y-103366943D02*
X204752514Y-103438371D01*
X205038228Y-103438371D01*
X205181085Y-103366943D01*
X205252514Y-103224086D01*
X205252514Y-102652657D01*
X205181085Y-102509800D01*
X205038228Y-102438371D01*
X204752514Y-102438371D01*
X204609657Y-102509800D01*
X204538228Y-102652657D01*
X204538228Y-102795514D01*
X205252514Y-102938371D01*
X203895371Y-103438371D02*
X203895371Y-102438371D01*
X203895371Y-102724086D02*
X203823943Y-102581229D01*
X203752514Y-102509800D01*
X203609657Y-102438371D01*
X203466800Y-102438371D01*
X203181086Y-102438371D02*
X202609657Y-102438371D01*
X202966800Y-103438371D02*
X202966800Y-102152657D01*
X202895372Y-102009800D01*
X202752514Y-101938371D01*
X202609657Y-101938371D01*
X201466800Y-103438371D02*
X201466800Y-102652657D01*
X201538229Y-102509800D01*
X201681086Y-102438371D01*
X201966800Y-102438371D01*
X202109657Y-102509800D01*
X201466800Y-103366943D02*
X201609657Y-103438371D01*
X201966800Y-103438371D01*
X202109657Y-103366943D01*
X202181086Y-103224086D01*
X202181086Y-103081229D01*
X202109657Y-102938371D01*
X201966800Y-102866943D01*
X201609657Y-102866943D01*
X201466800Y-102795514D01*
X200109657Y-103366943D02*
X200252514Y-103438371D01*
X200538228Y-103438371D01*
X200681086Y-103366943D01*
X200752514Y-103295514D01*
X200823943Y-103152657D01*
X200823943Y-102724086D01*
X200752514Y-102581229D01*
X200681086Y-102509800D01*
X200538228Y-102438371D01*
X200252514Y-102438371D01*
X200109657Y-102509800D01*
X198895372Y-103366943D02*
X199038229Y-103438371D01*
X199323943Y-103438371D01*
X199466800Y-103366943D01*
X199538229Y-103224086D01*
X199538229Y-102652657D01*
X199466800Y-102509800D01*
X199323943Y-102438371D01*
X199038229Y-102438371D01*
X198895372Y-102509800D01*
X198823943Y-102652657D01*
X198823943Y-102795514D01*
X199538229Y-102938371D01*
X198109658Y-103366943D02*
X198109658Y-103438371D01*
X198181086Y-103581229D01*
X198252515Y-103652657D01*
X195681086Y-103438371D02*
X195681086Y-102652657D01*
X195752515Y-102509800D01*
X195895372Y-102438371D01*
X196181086Y-102438371D01*
X196323943Y-102509800D01*
X195681086Y-103366943D02*
X195823943Y-103438371D01*
X196181086Y-103438371D01*
X196323943Y-103366943D01*
X196395372Y-103224086D01*
X196395372Y-103081229D01*
X196323943Y-102938371D01*
X196181086Y-102866943D01*
X195823943Y-102866943D01*
X195681086Y-102795514D01*
X194966800Y-102438371D02*
X194966800Y-103438371D01*
X194966800Y-102581229D02*
X194895372Y-102509800D01*
X194752514Y-102438371D01*
X194538229Y-102438371D01*
X194395372Y-102509800D01*
X194323943Y-102652657D01*
X194323943Y-103438371D01*
X192966800Y-103438371D02*
X192966800Y-101938371D01*
X192966800Y-103366943D02*
X193109657Y-103438371D01*
X193395371Y-103438371D01*
X193538229Y-103366943D01*
X193609657Y-103295514D01*
X193681086Y-103152657D01*
X193681086Y-102724086D01*
X193609657Y-102581229D01*
X193538229Y-102509800D01*
X193395371Y-102438371D01*
X193109657Y-102438371D01*
X192966800Y-102509800D01*
X190252514Y-103295514D02*
X190323943Y-103366943D01*
X190538229Y-103438371D01*
X190681086Y-103438371D01*
X190895371Y-103366943D01*
X191038229Y-103224086D01*
X191109657Y-103081229D01*
X191181086Y-102795514D01*
X191181086Y-102581229D01*
X191109657Y-102295514D01*
X191038229Y-102152657D01*
X190895371Y-102009800D01*
X190681086Y-101938371D01*
X190538229Y-101938371D01*
X190323943Y-102009800D01*
X190252514Y-102081229D01*
X189395371Y-103438371D02*
X189538229Y-103366943D01*
X189609657Y-103295514D01*
X189681086Y-103152657D01*
X189681086Y-102724086D01*
X189609657Y-102581229D01*
X189538229Y-102509800D01*
X189395371Y-102438371D01*
X189181086Y-102438371D01*
X189038229Y-102509800D01*
X188966800Y-102581229D01*
X188895371Y-102724086D01*
X188895371Y-103152657D01*
X188966800Y-103295514D01*
X189038229Y-103366943D01*
X189181086Y-103438371D01*
X189395371Y-103438371D01*
X188252514Y-102438371D02*
X188252514Y-103438371D01*
X188252514Y-102581229D02*
X188181086Y-102509800D01*
X188038228Y-102438371D01*
X187823943Y-102438371D01*
X187681086Y-102509800D01*
X187609657Y-102652657D01*
X187609657Y-103438371D01*
X187109657Y-102438371D02*
X186538228Y-102438371D01*
X186895371Y-101938371D02*
X186895371Y-103224086D01*
X186823943Y-103366943D01*
X186681085Y-103438371D01*
X186538228Y-103438371D01*
X186038228Y-103438371D02*
X186038228Y-102438371D01*
X186038228Y-102724086D02*
X185966800Y-102581229D01*
X185895371Y-102509800D01*
X185752514Y-102438371D01*
X185609657Y-102438371D01*
X184895371Y-103438371D02*
X185038229Y-103366943D01*
X185109657Y-103295514D01*
X185181086Y-103152657D01*
X185181086Y-102724086D01*
X185109657Y-102581229D01*
X185038229Y-102509800D01*
X184895371Y-102438371D01*
X184681086Y-102438371D01*
X184538229Y-102509800D01*
X184466800Y-102581229D01*
X184395371Y-102724086D01*
X184395371Y-103152657D01*
X184466800Y-103295514D01*
X184538229Y-103366943D01*
X184681086Y-103438371D01*
X184895371Y-103438371D01*
X183538228Y-103438371D02*
X183681086Y-103366943D01*
X183752514Y-103224086D01*
X183752514Y-101938371D01*
X181895372Y-103009800D02*
X181181086Y-103009800D01*
X182038229Y-103438371D02*
X181538229Y-101938371D01*
X181038229Y-103438371D01*
X179895372Y-103438371D02*
X179895372Y-101938371D01*
X179895372Y-103366943D02*
X180038229Y-103438371D01*
X180323943Y-103438371D01*
X180466801Y-103366943D01*
X180538229Y-103295514D01*
X180609658Y-103152657D01*
X180609658Y-102724086D01*
X180538229Y-102581229D01*
X180466801Y-102509800D01*
X180323943Y-102438371D01*
X180038229Y-102438371D01*
X179895372Y-102509800D01*
X178538229Y-103438371D02*
X178538229Y-102652657D01*
X178609658Y-102509800D01*
X178752515Y-102438371D01*
X179038229Y-102438371D01*
X179181086Y-102509800D01*
X178538229Y-103366943D02*
X178681086Y-103438371D01*
X179038229Y-103438371D01*
X179181086Y-103366943D01*
X179252515Y-103224086D01*
X179252515Y-103081229D01*
X179181086Y-102938371D01*
X179038229Y-102866943D01*
X178681086Y-102866943D01*
X178538229Y-102795514D01*
X177823943Y-102438371D02*
X177823943Y-103938371D01*
X177823943Y-102509800D02*
X177681086Y-102438371D01*
X177395372Y-102438371D01*
X177252515Y-102509800D01*
X177181086Y-102581229D01*
X177109657Y-102724086D01*
X177109657Y-103152657D01*
X177181086Y-103295514D01*
X177252515Y-103366943D01*
X177395372Y-103438371D01*
X177681086Y-103438371D01*
X177823943Y-103366943D01*
X176681086Y-102438371D02*
X176109657Y-102438371D01*
X176466800Y-101938371D02*
X176466800Y-103224086D01*
X176395372Y-103366943D01*
X176252514Y-103438371D01*
X176109657Y-103438371D01*
X175038229Y-103366943D02*
X175181086Y-103438371D01*
X175466800Y-103438371D01*
X175609657Y-103366943D01*
X175681086Y-103224086D01*
X175681086Y-102652657D01*
X175609657Y-102509800D01*
X175466800Y-102438371D01*
X175181086Y-102438371D01*
X175038229Y-102509800D01*
X174966800Y-102652657D01*
X174966800Y-102795514D01*
X175681086Y-102938371D01*
X174323943Y-103438371D02*
X174323943Y-102438371D01*
X174323943Y-102724086D02*
X174252515Y-102581229D01*
X174181086Y-102509800D01*
X174038229Y-102438371D01*
X173895372Y-102438371D01*
X216681086Y-105313000D02*
X215966800Y-105313000D01*
X216823943Y-105741571D02*
X216323943Y-104241571D01*
X215823943Y-105741571D01*
X213323943Y-105741571D02*
X213823943Y-105027286D01*
X214181086Y-105741571D02*
X214181086Y-104241571D01*
X213609658Y-104241571D01*
X213466800Y-104313000D01*
X213395372Y-104384429D01*
X213323943Y-104527286D01*
X213323943Y-104741571D01*
X213395372Y-104884429D01*
X213466800Y-104955857D01*
X213609658Y-105027286D01*
X214181086Y-105027286D01*
X212109658Y-105670143D02*
X212252515Y-105741571D01*
X212538229Y-105741571D01*
X212681086Y-105670143D01*
X212752515Y-105527286D01*
X212752515Y-104955857D01*
X212681086Y-104813000D01*
X212538229Y-104741571D01*
X212252515Y-104741571D01*
X212109658Y-104813000D01*
X212038229Y-104955857D01*
X212038229Y-105098714D01*
X212752515Y-105241571D01*
X211395372Y-104741571D02*
X211395372Y-106241571D01*
X211395372Y-104813000D02*
X211252515Y-104741571D01*
X210966801Y-104741571D01*
X210823944Y-104813000D01*
X210752515Y-104884429D01*
X210681086Y-105027286D01*
X210681086Y-105455857D01*
X210752515Y-105598714D01*
X210823944Y-105670143D01*
X210966801Y-105741571D01*
X211252515Y-105741571D01*
X211395372Y-105670143D01*
X210038229Y-105741571D02*
X210038229Y-104741571D01*
X210038229Y-105027286D02*
X209966801Y-104884429D01*
X209895372Y-104813000D01*
X209752515Y-104741571D01*
X209609658Y-104741571D01*
X208466801Y-105741571D02*
X208466801Y-104955857D01*
X208538230Y-104813000D01*
X208681087Y-104741571D01*
X208966801Y-104741571D01*
X209109658Y-104813000D01*
X208466801Y-105670143D02*
X208609658Y-105741571D01*
X208966801Y-105741571D01*
X209109658Y-105670143D01*
X209181087Y-105527286D01*
X209181087Y-105384429D01*
X209109658Y-105241571D01*
X208966801Y-105170143D01*
X208609658Y-105170143D01*
X208466801Y-105098714D01*
X207752515Y-104741571D02*
X207752515Y-106241571D01*
X207752515Y-104813000D02*
X207609658Y-104741571D01*
X207323944Y-104741571D01*
X207181087Y-104813000D01*
X207109658Y-104884429D01*
X207038229Y-105027286D01*
X207038229Y-105455857D01*
X207109658Y-105598714D01*
X207181087Y-105670143D01*
X207323944Y-105741571D01*
X207609658Y-105741571D01*
X207752515Y-105670143D01*
X205323944Y-105313000D02*
X204609658Y-105313000D01*
X205466801Y-105741571D02*
X204966801Y-104241571D01*
X204466801Y-105741571D01*
X203966801Y-105741571D02*
X203966801Y-104741571D01*
X203966801Y-105027286D02*
X203895373Y-104884429D01*
X203823944Y-104813000D01*
X203681087Y-104741571D01*
X203538230Y-104741571D01*
X202395373Y-105741571D02*
X202395373Y-104241571D01*
X202395373Y-105670143D02*
X202538230Y-105741571D01*
X202823944Y-105741571D01*
X202966802Y-105670143D01*
X203038230Y-105598714D01*
X203109659Y-105455857D01*
X203109659Y-105027286D01*
X203038230Y-104884429D01*
X202966802Y-104813000D01*
X202823944Y-104741571D01*
X202538230Y-104741571D01*
X202395373Y-104813000D01*
X201038230Y-104741571D02*
X201038230Y-105741571D01*
X201681087Y-104741571D02*
X201681087Y-105527286D01*
X201609659Y-105670143D01*
X201466801Y-105741571D01*
X201252516Y-105741571D01*
X201109659Y-105670143D01*
X201038230Y-105598714D01*
X200323944Y-105741571D02*
X200323944Y-104741571D01*
X200323944Y-104241571D02*
X200395373Y-104313000D01*
X200323944Y-104384429D01*
X200252516Y-104313000D01*
X200323944Y-104241571D01*
X200323944Y-104384429D01*
X199609658Y-104741571D02*
X199609658Y-105741571D01*
X199609658Y-104884429D02*
X199538230Y-104813000D01*
X199395372Y-104741571D01*
X199181087Y-104741571D01*
X199038230Y-104813000D01*
X198966801Y-104955857D01*
X198966801Y-105741571D01*
X198038229Y-105741571D02*
X198181087Y-105670143D01*
X198252515Y-105598714D01*
X198323944Y-105455857D01*
X198323944Y-105027286D01*
X198252515Y-104884429D01*
X198181087Y-104813000D01*
X198038229Y-104741571D01*
X197823944Y-104741571D01*
X197681087Y-104813000D01*
X197609658Y-104884429D01*
X197538229Y-105027286D01*
X197538229Y-105455857D01*
X197609658Y-105598714D01*
X197681087Y-105670143D01*
X197823944Y-105741571D01*
X198038229Y-105741571D01*
X195752515Y-105741571D02*
X195752515Y-104241571D01*
X195252515Y-105313000D01*
X194752515Y-104241571D01*
X194752515Y-105741571D01*
X193466801Y-105670143D02*
X193609658Y-105741571D01*
X193895372Y-105741571D01*
X194038229Y-105670143D01*
X194109658Y-105527286D01*
X194109658Y-104955857D01*
X194038229Y-104813000D01*
X193895372Y-104741571D01*
X193609658Y-104741571D01*
X193466801Y-104813000D01*
X193395372Y-104955857D01*
X193395372Y-105098714D01*
X194109658Y-105241571D01*
X192109658Y-104741571D02*
X192109658Y-105955857D01*
X192181087Y-106098714D01*
X192252515Y-106170143D01*
X192395372Y-106241571D01*
X192609658Y-106241571D01*
X192752515Y-106170143D01*
X192109658Y-105670143D02*
X192252515Y-105741571D01*
X192538229Y-105741571D01*
X192681087Y-105670143D01*
X192752515Y-105598714D01*
X192823944Y-105455857D01*
X192823944Y-105027286D01*
X192752515Y-104884429D01*
X192681087Y-104813000D01*
X192538229Y-104741571D01*
X192252515Y-104741571D01*
X192109658Y-104813000D01*
X190752515Y-105741571D02*
X190752515Y-104955857D01*
X190823944Y-104813000D01*
X190966801Y-104741571D01*
X191252515Y-104741571D01*
X191395372Y-104813000D01*
X190752515Y-105670143D02*
X190895372Y-105741571D01*
X191252515Y-105741571D01*
X191395372Y-105670143D01*
X191466801Y-105527286D01*
X191466801Y-105384429D01*
X191395372Y-105241571D01*
X191252515Y-105170143D01*
X190895372Y-105170143D01*
X190752515Y-105098714D01*
X188895372Y-105741571D02*
X188895372Y-104241571D01*
X188323944Y-104241571D01*
X188181086Y-104313000D01*
X188109658Y-104384429D01*
X188038229Y-104527286D01*
X188038229Y-104741571D01*
X188109658Y-104884429D01*
X188181086Y-104955857D01*
X188323944Y-105027286D01*
X188895372Y-105027286D01*
X187181086Y-105741571D02*
X187323944Y-105670143D01*
X187395372Y-105598714D01*
X187466801Y-105455857D01*
X187466801Y-105027286D01*
X187395372Y-104884429D01*
X187323944Y-104813000D01*
X187181086Y-104741571D01*
X186966801Y-104741571D01*
X186823944Y-104813000D01*
X186752515Y-104884429D01*
X186681086Y-105027286D01*
X186681086Y-105455857D01*
X186752515Y-105598714D01*
X186823944Y-105670143D01*
X186966801Y-105741571D01*
X187181086Y-105741571D01*
X185823943Y-105741571D02*
X185966801Y-105670143D01*
X186038229Y-105527286D01*
X186038229Y-104241571D01*
X185038229Y-105741571D02*
X185181087Y-105670143D01*
X185252515Y-105598714D01*
X185323944Y-105455857D01*
X185323944Y-105027286D01*
X185252515Y-104884429D01*
X185181087Y-104813000D01*
X185038229Y-104741571D01*
X184823944Y-104741571D01*
X184681087Y-104813000D01*
X184609658Y-104884429D01*
X184538229Y-105027286D01*
X184538229Y-105455857D01*
X184609658Y-105598714D01*
X184681087Y-105670143D01*
X184823944Y-105741571D01*
X185038229Y-105741571D01*
X183681086Y-105741571D02*
X183823944Y-105670143D01*
X183895372Y-105527286D01*
X183895372Y-104241571D01*
X182466801Y-104741571D02*
X182466801Y-105741571D01*
X183109658Y-104741571D02*
X183109658Y-105527286D01*
X183038230Y-105670143D01*
X182895372Y-105741571D01*
X182681087Y-105741571D01*
X182538230Y-105670143D01*
X182466801Y-105598714D01*
X180681087Y-105670143D02*
X180466801Y-105741571D01*
X180109658Y-105741571D01*
X179966801Y-105670143D01*
X179895372Y-105598714D01*
X179823944Y-105455857D01*
X179823944Y-105313000D01*
X179895372Y-105170143D01*
X179966801Y-105098714D01*
X180109658Y-105027286D01*
X180395372Y-104955857D01*
X180538230Y-104884429D01*
X180609658Y-104813000D01*
X180681087Y-104670143D01*
X180681087Y-104527286D01*
X180609658Y-104384429D01*
X180538230Y-104313000D01*
X180395372Y-104241571D01*
X180038230Y-104241571D01*
X179823944Y-104313000D01*
X179181087Y-105741571D02*
X179181087Y-104241571D01*
X178538230Y-105741571D02*
X178538230Y-104955857D01*
X178609659Y-104813000D01*
X178752516Y-104741571D01*
X178966801Y-104741571D01*
X179109659Y-104813000D01*
X179181087Y-104884429D01*
X177823944Y-105741571D02*
X177823944Y-104741571D01*
X177823944Y-104241571D02*
X177895373Y-104313000D01*
X177823944Y-104384429D01*
X177752516Y-104313000D01*
X177823944Y-104241571D01*
X177823944Y-104384429D01*
X176538230Y-105670143D02*
X176681087Y-105741571D01*
X176966801Y-105741571D01*
X177109658Y-105670143D01*
X177181087Y-105527286D01*
X177181087Y-104955857D01*
X177109658Y-104813000D01*
X176966801Y-104741571D01*
X176681087Y-104741571D01*
X176538230Y-104813000D01*
X176466801Y-104955857D01*
X176466801Y-105098714D01*
X177181087Y-105241571D01*
X175609658Y-105741571D02*
X175752516Y-105670143D01*
X175823944Y-105527286D01*
X175823944Y-104241571D01*
X174395373Y-105741571D02*
X174395373Y-104241571D01*
X174395373Y-105670143D02*
X174538230Y-105741571D01*
X174823944Y-105741571D01*
X174966802Y-105670143D01*
X175038230Y-105598714D01*
X175109659Y-105455857D01*
X175109659Y-105027286D01*
X175038230Y-104884429D01*
X174966802Y-104813000D01*
X174823944Y-104741571D01*
X174538230Y-104741571D01*
X174395373Y-104813000D01*
D13*
X218111828Y-100208543D02*
X216968971Y-100208543D01*
X216326114Y-100708543D02*
X216111828Y-100779971D01*
X215754685Y-100779971D01*
X215611828Y-100708543D01*
X215540399Y-100637114D01*
X215468971Y-100494257D01*
X215468971Y-100351400D01*
X215540399Y-100208543D01*
X215611828Y-100137114D01*
X215754685Y-100065686D01*
X216040399Y-99994257D01*
X216183257Y-99922829D01*
X216254685Y-99851400D01*
X216326114Y-99708543D01*
X216326114Y-99565686D01*
X216254685Y-99422829D01*
X216183257Y-99351400D01*
X216040399Y-99279971D01*
X215683257Y-99279971D01*
X215468971Y-99351400D01*
X214826114Y-99279971D02*
X214826114Y-100494257D01*
X214754686Y-100637114D01*
X214683257Y-100708543D01*
X214540400Y-100779971D01*
X214254686Y-100779971D01*
X214111828Y-100708543D01*
X214040400Y-100637114D01*
X213968971Y-100494257D01*
X213968971Y-99279971D01*
X213254685Y-100779971D02*
X213254685Y-99279971D01*
X212683257Y-99279971D01*
X212540399Y-99351400D01*
X212468971Y-99422829D01*
X212397542Y-99565686D01*
X212397542Y-99779971D01*
X212468971Y-99922829D01*
X212540399Y-99994257D01*
X212683257Y-100065686D01*
X213254685Y-100065686D01*
X218111828Y-94442743D02*
X216968971Y-94442743D01*
X216326114Y-94942743D02*
X216111828Y-95014171D01*
X215754685Y-95014171D01*
X215611828Y-94942743D01*
X215540399Y-94871314D01*
X215468971Y-94728457D01*
X215468971Y-94585600D01*
X215540399Y-94442743D01*
X215611828Y-94371314D01*
X215754685Y-94299886D01*
X216040399Y-94228457D01*
X216183257Y-94157029D01*
X216254685Y-94085600D01*
X216326114Y-93942743D01*
X216326114Y-93799886D01*
X216254685Y-93657029D01*
X216183257Y-93585600D01*
X216040399Y-93514171D01*
X215683257Y-93514171D01*
X215468971Y-93585600D01*
X214826114Y-93514171D02*
X214826114Y-94728457D01*
X214754686Y-94871314D01*
X214683257Y-94942743D01*
X214540400Y-95014171D01*
X214254686Y-95014171D01*
X214111828Y-94942743D01*
X214040400Y-94871314D01*
X213968971Y-94728457D01*
X213968971Y-93514171D01*
X213254685Y-95014171D02*
X213254685Y-93514171D01*
X212683257Y-93514171D01*
X212540399Y-93585600D01*
X212468971Y-93657029D01*
X212397542Y-93799886D01*
X212397542Y-94014171D01*
X212468971Y-94157029D01*
X212540399Y-94228457D01*
X212683257Y-94299886D01*
X213254685Y-94299886D01*
X218086428Y-88549943D02*
X216943571Y-88549943D01*
X217515000Y-89121371D02*
X217515000Y-87978514D01*
X216300714Y-89049943D02*
X216086428Y-89121371D01*
X215729285Y-89121371D01*
X215586428Y-89049943D01*
X215514999Y-88978514D01*
X215443571Y-88835657D01*
X215443571Y-88692800D01*
X215514999Y-88549943D01*
X215586428Y-88478514D01*
X215729285Y-88407086D01*
X216014999Y-88335657D01*
X216157857Y-88264229D01*
X216229285Y-88192800D01*
X216300714Y-88049943D01*
X216300714Y-87907086D01*
X216229285Y-87764229D01*
X216157857Y-87692800D01*
X216014999Y-87621371D01*
X215657857Y-87621371D01*
X215443571Y-87692800D01*
X214800714Y-87621371D02*
X214800714Y-88835657D01*
X214729286Y-88978514D01*
X214657857Y-89049943D01*
X214515000Y-89121371D01*
X214229286Y-89121371D01*
X214086428Y-89049943D01*
X214015000Y-88978514D01*
X213943571Y-88835657D01*
X213943571Y-87621371D01*
X213229285Y-89121371D02*
X213229285Y-87621371D01*
X212657857Y-87621371D01*
X212514999Y-87692800D01*
X212443571Y-87764229D01*
X212372142Y-87907086D01*
X212372142Y-88121371D01*
X212443571Y-88264229D01*
X212514999Y-88335657D01*
X212657857Y-88407086D01*
X213229285Y-88407086D01*
X218035628Y-82911143D02*
X216892771Y-82911143D01*
X217464200Y-83482571D02*
X217464200Y-82339714D01*
X216249914Y-83411143D02*
X216035628Y-83482571D01*
X215678485Y-83482571D01*
X215535628Y-83411143D01*
X215464199Y-83339714D01*
X215392771Y-83196857D01*
X215392771Y-83054000D01*
X215464199Y-82911143D01*
X215535628Y-82839714D01*
X215678485Y-82768286D01*
X215964199Y-82696857D01*
X216107057Y-82625429D01*
X216178485Y-82554000D01*
X216249914Y-82411143D01*
X216249914Y-82268286D01*
X216178485Y-82125429D01*
X216107057Y-82054000D01*
X215964199Y-81982571D01*
X215607057Y-81982571D01*
X215392771Y-82054000D01*
X214749914Y-81982571D02*
X214749914Y-83196857D01*
X214678486Y-83339714D01*
X214607057Y-83411143D01*
X214464200Y-83482571D01*
X214178486Y-83482571D01*
X214035628Y-83411143D01*
X213964200Y-83339714D01*
X213892771Y-83196857D01*
X213892771Y-81982571D01*
X213178485Y-83482571D02*
X213178485Y-81982571D01*
X212607057Y-81982571D01*
X212464199Y-82054000D01*
X212392771Y-82125429D01*
X212321342Y-82268286D01*
X212321342Y-82482571D01*
X212392771Y-82625429D01*
X212464199Y-82696857D01*
X212607057Y-82768286D01*
X213178485Y-82768286D01*
D14*
X170075981Y-78697343D02*
X171726981Y-79197343D01*
X170075981Y-79697343D01*
X171726981Y-80197343D02*
X170075981Y-80197343D01*
X171726981Y-80911629D02*
X170075981Y-80911629D01*
X171726981Y-81768772D01*
X170075981Y-81768772D01*
X172720000Y-79197343D02*
X172641381Y-79054486D01*
X172641381Y-78840200D01*
X172720000Y-78625915D01*
X172877238Y-78483057D01*
X173034476Y-78411629D01*
X173348952Y-78340200D01*
X173584810Y-78340200D01*
X173899286Y-78411629D01*
X174056524Y-78483057D01*
X174213762Y-78625915D01*
X174292381Y-78840200D01*
X174292381Y-78983057D01*
X174213762Y-79197343D01*
X174135143Y-79268772D01*
X173584810Y-79268772D01*
X173584810Y-78983057D01*
X174292381Y-79911629D02*
X172641381Y-79911629D01*
X174292381Y-80768772D01*
X172641381Y-80768772D01*
X174292381Y-81483058D02*
X172641381Y-81483058D01*
X172641381Y-81840201D01*
X172720000Y-82054486D01*
X172877238Y-82197344D01*
X173034476Y-82268772D01*
X173348952Y-82340201D01*
X173584810Y-82340201D01*
X173899286Y-82268772D01*
X174056524Y-82197344D01*
X174213762Y-82054486D01*
X174292381Y-81840201D01*
X174292381Y-81483058D01*
X175285400Y-79197343D02*
X175206781Y-79054486D01*
X175206781Y-78840200D01*
X175285400Y-78625915D01*
X175442638Y-78483057D01*
X175599876Y-78411629D01*
X175914352Y-78340200D01*
X176150210Y-78340200D01*
X176464686Y-78411629D01*
X176621924Y-78483057D01*
X176779162Y-78625915D01*
X176857781Y-78840200D01*
X176857781Y-78983057D01*
X176779162Y-79197343D01*
X176700543Y-79268772D01*
X176150210Y-79268772D01*
X176150210Y-78983057D01*
X176857781Y-79911629D02*
X175206781Y-79911629D01*
X176857781Y-80768772D01*
X175206781Y-80768772D01*
X176857781Y-81483058D02*
X175206781Y-81483058D01*
X175206781Y-81840201D01*
X175285400Y-82054486D01*
X175442638Y-82197344D01*
X175599876Y-82268772D01*
X175914352Y-82340201D01*
X176150210Y-82340201D01*
X176464686Y-82268772D01*
X176621924Y-82197344D01*
X176779162Y-82054486D01*
X176857781Y-81840201D01*
X176857781Y-81483058D01*
X177772181Y-80054487D02*
X177772181Y-79340201D01*
X178558371Y-79268772D01*
X178479752Y-79340201D01*
X178401133Y-79483058D01*
X178401133Y-79840201D01*
X178479752Y-79983058D01*
X178558371Y-80054487D01*
X178715610Y-80125915D01*
X179108705Y-80125915D01*
X179265943Y-80054487D01*
X179344562Y-79983058D01*
X179423181Y-79840201D01*
X179423181Y-79483058D01*
X179344562Y-79340201D01*
X179265943Y-79268772D01*
X177772181Y-80554486D02*
X179423181Y-81054486D01*
X177772181Y-81554486D01*
X180337581Y-78125915D02*
X180337581Y-79054486D01*
X180966533Y-78554486D01*
X180966533Y-78768772D01*
X181045152Y-78911629D01*
X181123771Y-78983058D01*
X181281010Y-79054486D01*
X181674105Y-79054486D01*
X181831343Y-78983058D01*
X181909962Y-78911629D01*
X181988581Y-78768772D01*
X181988581Y-78340200D01*
X181909962Y-78197343D01*
X181831343Y-78125915D01*
X181831343Y-79697343D02*
X181909962Y-79768771D01*
X181988581Y-79697343D01*
X181909962Y-79625914D01*
X181831343Y-79697343D01*
X181988581Y-79697343D01*
X180337581Y-80268772D02*
X180337581Y-81197343D01*
X180966533Y-80697343D01*
X180966533Y-80911629D01*
X181045152Y-81054486D01*
X181123771Y-81125915D01*
X181281010Y-81197343D01*
X181674105Y-81197343D01*
X181831343Y-81125915D01*
X181909962Y-81054486D01*
X181988581Y-80911629D01*
X181988581Y-80483057D01*
X181909962Y-80340200D01*
X181831343Y-80268772D01*
X180337581Y-81625914D02*
X181988581Y-82125914D01*
X180337581Y-82625914D01*
X184553981Y-79518772D02*
X183767790Y-79018772D01*
X184553981Y-78661629D02*
X182902981Y-78661629D01*
X182902981Y-79233057D01*
X182981600Y-79375915D01*
X183060219Y-79447343D01*
X183217457Y-79518772D01*
X183453314Y-79518772D01*
X183610552Y-79447343D01*
X183689171Y-79375915D01*
X183767790Y-79233057D01*
X183767790Y-78661629D01*
X184475362Y-80090200D02*
X184553981Y-80304486D01*
X184553981Y-80661629D01*
X184475362Y-80804486D01*
X184396743Y-80875915D01*
X184239505Y-80947343D01*
X184082267Y-80947343D01*
X183925029Y-80875915D01*
X183846410Y-80804486D01*
X183767790Y-80661629D01*
X183689171Y-80375915D01*
X183610552Y-80233057D01*
X183531933Y-80161629D01*
X183374695Y-80090200D01*
X183217457Y-80090200D01*
X183060219Y-80161629D01*
X182981600Y-80233057D01*
X182902981Y-80375915D01*
X182902981Y-80733057D01*
X182981600Y-80947343D01*
X182902981Y-81375914D02*
X182902981Y-82233057D01*
X184553981Y-81804486D02*
X182902981Y-81804486D01*
D15*
X160816000Y-101973000D02*
X158716000Y-101973000D01*
X160816000Y-107323000D02*
X158716000Y-107323000D01*
X171696000Y-117377500D02*
X171696000Y-119477500D01*
X177046000Y-117377500D02*
X177046000Y-119477500D01*
X140055600Y-140893800D02*
X140055600Y-141427200D01*
X140055600Y-141427200D02*
X145846800Y-141427200D01*
X145846800Y-141427200D02*
X145846800Y-140817600D01*
X140055600Y-138328400D02*
X140055600Y-139522200D01*
X140055600Y-135788400D02*
X140055600Y-136982200D01*
X140055600Y-133248400D02*
X140055600Y-134416800D01*
X145846800Y-138303000D02*
X145846800Y-139496800D01*
X145846800Y-135712200D02*
X145846800Y-136956800D01*
X145846800Y-133172200D02*
X145846800Y-134442200D01*
X145846800Y-131927600D02*
X145846800Y-131470400D01*
X145846800Y-131470400D02*
X140055600Y-131470400D01*
X140055600Y-131470400D02*
X140055600Y-131953000D01*
X147218400Y-132537200D02*
X147980400Y-132029200D01*
X147980400Y-132029200D02*
X147980400Y-133045200D01*
X147980400Y-133045200D02*
X147218400Y-132537200D01*
X150639400Y-141007200D02*
X149639400Y-141007200D01*
X149639400Y-139307200D02*
X150639400Y-139307200D01*
X142776600Y-130478000D02*
G75*
G03X142776600Y-130478000I-100000J0D01*
G01*
X143226600Y-130228000D02*
X142726600Y-130228000D01*
X143226600Y-127328000D02*
X143226600Y-130228000D01*
X142726600Y-127328000D02*
X143226600Y-127328000D01*
X142726600Y-130228000D02*
X142726600Y-127328000D01*
X160432666Y-108600381D02*
X160766000Y-108124190D01*
X161004095Y-108600381D02*
X161004095Y-107600381D01*
X160623142Y-107600381D01*
X160527904Y-107648000D01*
X160480285Y-107695619D01*
X160432666Y-107790857D01*
X160432666Y-107933714D01*
X160480285Y-108028952D01*
X160527904Y-108076571D01*
X160623142Y-108124190D01*
X161004095Y-108124190D01*
X160004095Y-108600381D02*
X160004095Y-107600381D01*
X159623142Y-107600381D01*
X159527904Y-107648000D01*
X159480285Y-107695619D01*
X159432666Y-107790857D01*
X159432666Y-107933714D01*
X159480285Y-108028952D01*
X159527904Y-108076571D01*
X159623142Y-108124190D01*
X160004095Y-108124190D01*
X159099333Y-107600381D02*
X158480285Y-107600381D01*
X158813619Y-107981333D01*
X158670761Y-107981333D01*
X158575523Y-108028952D01*
X158527904Y-108076571D01*
X158480285Y-108171810D01*
X158480285Y-108409905D01*
X158527904Y-108505143D01*
X158575523Y-108552762D01*
X158670761Y-108600381D01*
X158956476Y-108600381D01*
X159051714Y-108552762D01*
X159099333Y-108505143D01*
X178323381Y-117760834D02*
X177847190Y-117427500D01*
X178323381Y-117189405D02*
X177323381Y-117189405D01*
X177323381Y-117570358D01*
X177371000Y-117665596D01*
X177418619Y-117713215D01*
X177513857Y-117760834D01*
X177656714Y-117760834D01*
X177751952Y-117713215D01*
X177799571Y-117665596D01*
X177847190Y-117570358D01*
X177847190Y-117189405D01*
X178323381Y-118189405D02*
X177323381Y-118189405D01*
X177323381Y-118570358D01*
X177371000Y-118665596D01*
X177418619Y-118713215D01*
X177513857Y-118760834D01*
X177656714Y-118760834D01*
X177751952Y-118713215D01*
X177799571Y-118665596D01*
X177847190Y-118570358D01*
X177847190Y-118189405D01*
X178323381Y-119713215D02*
X178323381Y-119141786D01*
X178323381Y-119427500D02*
X177323381Y-119427500D01*
X177466238Y-119332262D01*
X177561476Y-119237024D01*
X177609095Y-119141786D01*
X138425181Y-133837514D02*
X137425181Y-133837514D01*
X137425181Y-134218467D01*
X137472800Y-134313705D01*
X137520419Y-134361324D01*
X137615657Y-134408943D01*
X137758514Y-134408943D01*
X137853752Y-134361324D01*
X137901371Y-134313705D01*
X137948990Y-134218467D01*
X137948990Y-133837514D01*
X137520419Y-134789895D02*
X137472800Y-134837514D01*
X137425181Y-134932752D01*
X137425181Y-135170848D01*
X137472800Y-135266086D01*
X137520419Y-135313705D01*
X137615657Y-135361324D01*
X137710895Y-135361324D01*
X137853752Y-135313705D01*
X138425181Y-134742276D01*
X138425181Y-135361324D01*
X137425181Y-136218467D02*
X137425181Y-136027990D01*
X137472800Y-135932752D01*
X137520419Y-135885133D01*
X137663276Y-135789895D01*
X137853752Y-135742276D01*
X138234705Y-135742276D01*
X138329943Y-135789895D01*
X138377562Y-135837514D01*
X138425181Y-135932752D01*
X138425181Y-136123229D01*
X138377562Y-136218467D01*
X138329943Y-136266086D01*
X138234705Y-136313705D01*
X137996610Y-136313705D01*
X137901371Y-136266086D01*
X137853752Y-136218467D01*
X137806133Y-136123229D01*
X137806133Y-135932752D01*
X137853752Y-135837514D01*
X137901371Y-135789895D01*
X137996610Y-135742276D01*
X154668457Y-140641343D02*
X154716076Y-140688962D01*
X154858933Y-140736581D01*
X154954171Y-140736581D01*
X155097029Y-140688962D01*
X155192267Y-140593724D01*
X155239886Y-140498486D01*
X155287505Y-140308010D01*
X155287505Y-140165152D01*
X155239886Y-139974676D01*
X155192267Y-139879438D01*
X155097029Y-139784200D01*
X154954171Y-139736581D01*
X154858933Y-139736581D01*
X154716076Y-139784200D01*
X154668457Y-139831819D01*
X153716076Y-140736581D02*
X154287505Y-140736581D01*
X154001791Y-140736581D02*
X154001791Y-139736581D01*
X154097029Y-139879438D01*
X154192267Y-139974676D01*
X154287505Y-140022295D01*
X152858933Y-139736581D02*
X153049410Y-139736581D01*
X153144648Y-139784200D01*
X153192267Y-139831819D01*
X153287505Y-139974676D01*
X153335124Y-140165152D01*
X153335124Y-140546105D01*
X153287505Y-140641343D01*
X153239886Y-140688962D01*
X153144648Y-140736581D01*
X152954171Y-140736581D01*
X152858933Y-140688962D01*
X152811314Y-140641343D01*
X152763695Y-140546105D01*
X152763695Y-140308010D01*
X152811314Y-140212771D01*
X152858933Y-140165152D01*
X152954171Y-140117533D01*
X153144648Y-140117533D01*
X153239886Y-140165152D01*
X153287505Y-140212771D01*
X153335124Y-140308010D01*
X146938905Y-127011181D02*
X146938905Y-127820705D01*
X146891286Y-127915943D01*
X146843667Y-127963562D01*
X146748429Y-128011181D01*
X146557952Y-128011181D01*
X146462714Y-127963562D01*
X146415095Y-127915943D01*
X146367476Y-127820705D01*
X146367476Y-127011181D01*
X145986524Y-127011181D02*
X145367476Y-127011181D01*
X145700810Y-127392133D01*
X145557952Y-127392133D01*
X145462714Y-127439752D01*
X145415095Y-127487371D01*
X145367476Y-127582610D01*
X145367476Y-127820705D01*
X145415095Y-127915943D01*
X145462714Y-127963562D01*
X145557952Y-128011181D01*
X145843667Y-128011181D01*
X145938905Y-127963562D01*
X145986524Y-127915943D01*
M02*
