G04 #@! TF.FileFunction,Soldermask,Bot*
%FSLAX46Y46*%
G04 Gerber Fmt 4.6, Leading zero omitted, Abs format (unit mm)*
G04 Created by KiCad (PCBNEW 4.0.2-stable) date 4/3/2017 9:44:54 PM*
%MOMM*%
G01*
G04 APERTURE LIST*
%ADD10C,0.100000*%
%ADD11O,1.924000X2.940000*%
%ADD12C,4.337000*%
%ADD13C,1.924000*%
%ADD14R,1.924000X1.924000*%
%ADD15R,2.686000X1.416000*%
%ADD16C,2.940000*%
%ADD17R,2.432000X2.127200*%
%ADD18O,2.432000X2.127200*%
%ADD19R,2.127200X2.432000*%
%ADD20O,2.127200X2.432000*%
%ADD21C,2.400000*%
%ADD22C,2.900000*%
%ADD23R,2.127200X2.127200*%
%ADD24O,2.127200X2.127200*%
%ADD25C,2.432000*%
%ADD26O,1.670000X2.178000*%
%ADD27R,1.670000X2.178000*%
%ADD28R,1.700000X1.700000*%
%ADD29C,1.700000*%
%ADD30C,2.178000*%
%ADD31R,2.178000X2.178000*%
%ADD32R,2.432000X2.432000*%
%ADD33O,2.432000X2.432000*%
%ADD34R,2.051000X2.051000*%
%ADD35C,2.051000*%
%ADD36R,1.670000X1.797000*%
%ADD37C,1.670000*%
%ADD38R,1.900000X1.650000*%
%ADD39R,1.460000X1.050000*%
%ADD40C,0.254000*%
G04 APERTURE END LIST*
D10*
D11*
X148082000Y-124460000D03*
X145542000Y-124460000D03*
X143002000Y-124460000D03*
X140462000Y-124460000D03*
X137922000Y-124460000D03*
X135382000Y-124460000D03*
X132842000Y-124460000D03*
X130302000Y-124460000D03*
X125222000Y-76200000D03*
X127762000Y-76200000D03*
X130302000Y-76200000D03*
X132842000Y-76200000D03*
X143002000Y-76200000D03*
X148082000Y-76200000D03*
X150622000Y-76200000D03*
X140462000Y-76200000D03*
X137922000Y-76200000D03*
X135382000Y-76200000D03*
X153162000Y-76200000D03*
X155702000Y-76200000D03*
X158242000Y-76200000D03*
X165862000Y-76200000D03*
X163322000Y-76200000D03*
X160782000Y-76200000D03*
X170942000Y-76200000D03*
X173482000Y-76200000D03*
X176022000Y-76200000D03*
X181102000Y-76200000D03*
X183642000Y-76200000D03*
X153162000Y-124460000D03*
X155702000Y-124460000D03*
X158242000Y-124460000D03*
X160782000Y-124460000D03*
X163322000Y-124460000D03*
X165862000Y-124460000D03*
X168402000Y-124460000D03*
X170942000Y-124460000D03*
X175006000Y-124460000D03*
X177546000Y-124460000D03*
X180086000Y-124460000D03*
X182626000Y-124460000D03*
X185166000Y-124460000D03*
X187706000Y-124460000D03*
X190246000Y-124460000D03*
X192786000Y-124460000D03*
X178562000Y-76200000D03*
D12*
X120142000Y-76200000D03*
X126492000Y-124460000D03*
X201422000Y-124460000D03*
X202692000Y-76200000D03*
D13*
X122682000Y-121920000D03*
X120142000Y-121920000D03*
X122682000Y-119380000D03*
X120142000Y-119380000D03*
X122682000Y-116840000D03*
X120142000Y-116840000D03*
X122682000Y-114300000D03*
X120142000Y-114300000D03*
X122682000Y-124460000D03*
X120142000Y-124460000D03*
X120142000Y-111760000D03*
X122682000Y-111760000D03*
X122682000Y-109220000D03*
X120142000Y-109220000D03*
X122682000Y-106680000D03*
X120142000Y-106680000D03*
X122682000Y-104140000D03*
X120142000Y-104140000D03*
X122682000Y-101600000D03*
X120142000Y-101600000D03*
X122682000Y-99060000D03*
X120142000Y-99060000D03*
X122682000Y-96520000D03*
X120142000Y-96520000D03*
X122682000Y-93980000D03*
X120142000Y-93980000D03*
X122682000Y-91440000D03*
X120142000Y-91440000D03*
X122682000Y-88900000D03*
X120142000Y-88900000D03*
X122682000Y-86360000D03*
X120142000Y-86360000D03*
X122682000Y-83820000D03*
X120142000Y-83820000D03*
X122682000Y-81280000D03*
X120142000Y-81280000D03*
D14*
X150050500Y-58166000D03*
D13*
X147510500Y-58166000D03*
X144970500Y-58166000D03*
X142430500Y-58166000D03*
X139890500Y-58166000D03*
X137350500Y-58166000D03*
D14*
X134810500Y-58166000D03*
D13*
X132270500Y-58166000D03*
X132270500Y-70866000D03*
X134810500Y-70866000D03*
X137350500Y-70866000D03*
X139890500Y-70866000D03*
X142430500Y-70866000D03*
X144970500Y-70866000D03*
X147510500Y-70866000D03*
X150050500Y-70866000D03*
D15*
X145846800Y-132537200D03*
X140030200Y-132562600D03*
X145846800Y-135077200D03*
X140030200Y-135102600D03*
X145846800Y-137617200D03*
X140030200Y-137642600D03*
X145846800Y-140157200D03*
X140030200Y-140182600D03*
D16*
X174671091Y-83705444D03*
X174671091Y-88785444D03*
D14*
X170370500Y-58166000D03*
D13*
X167830500Y-58166000D03*
X165290500Y-58166000D03*
X162750500Y-58166000D03*
X160210500Y-58166000D03*
X157670500Y-58166000D03*
D14*
X155130500Y-58166000D03*
D13*
X152590500Y-58166000D03*
X152590500Y-70866000D03*
X155130500Y-70866000D03*
X157670500Y-70866000D03*
X160210500Y-70866000D03*
X162750500Y-70866000D03*
X165290500Y-70866000D03*
X167830500Y-70866000D03*
X170370500Y-70866000D03*
D14*
X211010500Y-58166000D03*
D13*
X208470500Y-58166000D03*
X205930500Y-58166000D03*
X203390500Y-58166000D03*
X200850500Y-58166000D03*
X198310500Y-58166000D03*
D14*
X195770500Y-58166000D03*
D13*
X193230500Y-58166000D03*
X193230500Y-70866000D03*
X195770500Y-70866000D03*
X198310500Y-70866000D03*
X200850500Y-70866000D03*
X203390500Y-70866000D03*
X205930500Y-70866000D03*
X208470500Y-70866000D03*
X211010500Y-70866000D03*
D16*
X207060800Y-82753200D03*
X212140800Y-82753200D03*
X207086200Y-88417400D03*
X212166200Y-88417400D03*
X207162400Y-94310200D03*
X212242400Y-94310200D03*
D14*
X129730500Y-58166000D03*
D13*
X127190500Y-58166000D03*
X124650500Y-58166000D03*
X122110500Y-58166000D03*
X119570500Y-58166000D03*
X117030500Y-58166000D03*
D14*
X114490500Y-58166000D03*
D13*
X111950500Y-58166000D03*
X111950500Y-70866000D03*
X114490500Y-70866000D03*
X117030500Y-70866000D03*
X119570500Y-70866000D03*
X122110500Y-70866000D03*
X124650500Y-70866000D03*
X127190500Y-70866000D03*
X129730500Y-70866000D03*
D16*
X180513090Y-83705444D03*
X180513090Y-88785444D03*
D14*
X190690500Y-58166000D03*
D13*
X188150500Y-58166000D03*
X185610500Y-58166000D03*
X183070500Y-58166000D03*
X180530500Y-58166000D03*
X177990500Y-58166000D03*
D14*
X175450500Y-58166000D03*
D13*
X172910500Y-58166000D03*
X172910500Y-70866000D03*
X175450500Y-70866000D03*
X177990500Y-70866000D03*
X180530500Y-70866000D03*
X183070500Y-70866000D03*
X185610500Y-70866000D03*
X188150500Y-70866000D03*
X190690500Y-70866000D03*
D16*
X207137000Y-100253800D03*
X212217000Y-100253800D03*
D17*
X135001000Y-136906000D03*
D18*
X135001000Y-134366000D03*
X135001000Y-131826000D03*
X135001000Y-129286000D03*
D19*
X205930500Y-54102000D03*
D20*
X203390500Y-54102000D03*
X200850500Y-54102000D03*
X198310500Y-54102000D03*
D19*
X185610500Y-54102000D03*
D20*
X183070500Y-54102000D03*
X180530500Y-54102000D03*
X177990500Y-54102000D03*
D19*
X165303200Y-51562000D03*
D20*
X162763200Y-51562000D03*
X160223200Y-51562000D03*
X157683200Y-51562000D03*
D19*
X165303200Y-54102000D03*
D20*
X162763200Y-54102000D03*
X160223200Y-54102000D03*
X157683200Y-54102000D03*
D19*
X144970500Y-54102000D03*
D20*
X142430500Y-54102000D03*
X139890500Y-54102000D03*
X137350500Y-54102000D03*
D19*
X124650500Y-54102000D03*
D20*
X122110500Y-54102000D03*
X119570500Y-54102000D03*
X117030500Y-54102000D03*
D16*
X167386000Y-88773000D03*
X167386000Y-83693000D03*
X161544000Y-88773000D03*
X161544000Y-83693000D03*
D21*
X216969600Y-65593600D03*
X216969600Y-61093600D03*
D22*
X214469600Y-66843600D03*
X214469600Y-59843600D03*
D16*
X154432000Y-83693000D03*
X154432000Y-88773000D03*
X148463000Y-88773000D03*
X148463000Y-83693000D03*
D23*
X139446000Y-87096600D03*
D24*
X139446000Y-89636600D03*
X136906000Y-87096600D03*
X136906000Y-89636600D03*
X134366000Y-87096600D03*
X134366000Y-89636600D03*
X131826000Y-87096600D03*
X131826000Y-89636600D03*
D23*
X141605000Y-111760000D03*
D24*
X141605000Y-114300000D03*
X139065000Y-111760000D03*
X139065000Y-114300000D03*
X136525000Y-111760000D03*
X136525000Y-114300000D03*
X133985000Y-111760000D03*
X133985000Y-114300000D03*
X131445000Y-111760000D03*
X131445000Y-114300000D03*
X128905000Y-111760000D03*
X128905000Y-114300000D03*
D19*
X141605000Y-109220000D03*
D20*
X139065000Y-109220000D03*
X136525000Y-109220000D03*
X133985000Y-109220000D03*
X131445000Y-109220000D03*
X128905000Y-109220000D03*
D17*
X163449000Y-136906000D03*
D18*
X163449000Y-134366000D03*
X163449000Y-131826000D03*
D17*
X167259000Y-136906000D03*
D18*
X167259000Y-134366000D03*
X167259000Y-131826000D03*
D17*
X171069000Y-136906000D03*
D18*
X171069000Y-134366000D03*
X171069000Y-131826000D03*
D17*
X154559000Y-136906000D03*
D18*
X154559000Y-134366000D03*
X154559000Y-131826000D03*
X154559000Y-129286000D03*
D17*
X150622000Y-136842500D03*
D18*
X150622000Y-134302500D03*
X150622000Y-131762500D03*
X150622000Y-129222500D03*
D16*
X209677000Y-133680200D03*
X214757000Y-133680200D03*
X209677000Y-127812800D03*
X214757000Y-127812800D03*
D25*
X203352400Y-98679000D03*
X198272400Y-98679000D03*
X200812400Y-96139000D03*
X200812400Y-101219000D03*
X203352400Y-82575400D03*
X198272400Y-82575400D03*
X200812400Y-80035400D03*
X200812400Y-85115400D03*
D26*
X203479400Y-68351400D03*
D27*
X203479400Y-60731400D03*
D26*
X200939400Y-68351400D03*
X200939400Y-60731400D03*
X198399400Y-68351400D03*
X198399400Y-60731400D03*
X183286400Y-68376800D03*
D27*
X183286400Y-60756800D03*
D26*
X180746400Y-68376800D03*
X180746400Y-60756800D03*
X178206400Y-68376800D03*
X178206400Y-60756800D03*
X163195000Y-68326000D03*
D27*
X163195000Y-60706000D03*
D26*
X160655000Y-68326000D03*
X160655000Y-60706000D03*
X158115000Y-68326000D03*
X158115000Y-60706000D03*
X142392400Y-68376800D03*
D27*
X142392400Y-60756800D03*
D26*
X139852400Y-68376800D03*
X139852400Y-60756800D03*
X137312400Y-68376800D03*
X137312400Y-60756800D03*
X122097800Y-68427600D03*
D27*
X122097800Y-60807600D03*
D26*
X119557800Y-68427600D03*
X119557800Y-60807600D03*
X117017800Y-68427600D03*
X117017800Y-60807600D03*
D12*
X107696000Y-50800000D03*
X216281000Y-50800000D03*
X107696000Y-139700000D03*
X216281000Y-139700000D03*
D28*
X179006500Y-114046000D03*
D29*
X179006500Y-119046000D03*
D30*
X143126460Y-95185980D03*
D31*
X143126460Y-105345980D03*
D32*
X185356500Y-110490000D03*
D33*
X185356500Y-107950000D03*
D23*
X107721400Y-122834400D03*
D24*
X110261400Y-122834400D03*
X107721400Y-125374400D03*
X110261400Y-125374400D03*
X107721400Y-127914400D03*
X110261400Y-127914400D03*
X107721400Y-130454400D03*
X110261400Y-130454400D03*
X107721400Y-132994400D03*
X110261400Y-132994400D03*
X107721400Y-135534400D03*
X110261400Y-135534400D03*
D34*
X122286600Y-135162800D03*
D35*
X124786600Y-135162800D03*
D36*
X122232600Y-129727200D03*
D37*
X124232600Y-129727200D03*
D36*
X153550800Y-113064800D03*
D37*
X155550800Y-113064800D03*
D32*
X153263600Y-108280200D03*
D33*
X155803600Y-108280200D03*
D38*
X148889400Y-140157200D03*
X151389400Y-140157200D03*
D39*
X141876600Y-129728000D03*
X141876600Y-128778000D03*
X141876600Y-127828000D03*
X144076600Y-127828000D03*
X144076600Y-129728000D03*
D34*
X166531800Y-111774400D03*
D35*
X166531800Y-109274400D03*
D13*
X110591600Y-112547400D03*
X110591600Y-110007400D03*
X110591600Y-107467400D03*
X110591600Y-104927400D03*
X110591600Y-102387400D03*
X113131600Y-102387400D03*
X113131600Y-104927400D03*
X113131600Y-107467400D03*
X113131600Y-110007400D03*
X113131600Y-112547400D03*
X110566200Y-90322400D03*
X110566200Y-87782400D03*
X110566200Y-85242400D03*
X110566200Y-82702400D03*
X110566200Y-80162400D03*
X113106200Y-80162400D03*
X113106200Y-82702400D03*
X113106200Y-85242400D03*
X113106200Y-87782400D03*
X113106200Y-90322400D03*
D40*
G36*
X183210200Y-101473000D02*
X172085000Y-101473000D01*
X172085000Y-91795600D01*
X183210200Y-91795600D01*
X183210200Y-101473000D01*
X183210200Y-101473000D01*
G37*
X183210200Y-101473000D02*
X172085000Y-101473000D01*
X172085000Y-91795600D01*
X183210200Y-91795600D01*
X183210200Y-101473000D01*
M02*
